<svg width="1920" height="2464" viewBox="0 0 1920 2464" fill="none" xmlns="http://www.w3.org/2000/svg">
<path fill-rule="evenodd" clip-rule="evenodd" d="M-3849.2 671.566C-4102.36 823.728 -3561.25 1257.75 -3484.35 1338.05C-3281.72 1548.6 -3067.86 1749.62 -2838.28 1943.33C-2798.43 1873.14 -2883.19 1821.49 -2463.32 1921.43L-1286.25 2185.33C-674.422 2275.16 -34.5261 2143.78 589.092 2144.34C1250.32 2144.9 1805.46 2244.28 2484.08 2196.56C2798.98 2174.66 3054.37 2148.83 3372.08 2199.36C3593.23 2234.74 3968.75 2286.39 4105.71 2463.82L4932.53 1615.42C4808.48 1424.52 4451.48 1286.39 4204.5 1304.36C3369.83 1365 3559.56 1816.43 1566.9 1381.28C719.878 1195.99 -1052.19 804.076 -1543.89 284.142C-1915.48 225.186 -2074.9 -227.371 -2768.68 146.578C-2988.71 265.612 -2990.4 359.38 -3239.06 462.132C-3445.06 546.916 -3638.15 603.626 -3849.77 672.127L-3849.2 671.566Z" fill="#F4F4F4"/>
</svg>
