<svg width="84" height="84" viewBox="0 0 84 84" fill="none" xmlns="http://www.w3.org/2000/svg">
<path d="M1.05987 44.5588C-0.353291 43.1456 -0.353291 40.8544 1.05987 39.4412L39.4412 1.05987C40.8544 -0.353291 43.1456 -0.353291 44.5588 1.05987L82.9401 39.4412C84.3533 40.8544 84.3533 43.1456 82.9401 44.5588L44.5588 82.9401C43.1456 84.3533 40.8544 84.3533 39.4412 82.9401L1.05987 44.5588Z" fill="#FFB300"/>
<g clip-path="url(#clip0_11170_1132)">
<path fill-rule="evenodd" clip-rule="evenodd" d="M39.3142 47.7238C39.2815 47.626 39.2598 47.5066 39.238 47.3762C39.1835 47.0721 39.14 46.6595 39.1073 46.225C39.0747 45.7146 39.0529 45.1499 39.0529 44.6286C39.042 43.7489 39.0638 42.9887 39.1073 42.033C39.0855 41.4682 39.0638 40.8383 39.0202 40.0998C38.9767 39.3288 38.9222 38.4382 38.8678 37.5694C38.8024 36.6245 38.748 35.7231 38.6935 35.0498C38.6391 34.4199 38.6064 33.9963 38.552 33.6705C38.4976 33.3447 38.4213 33.0949 38.3016 32.8017C38.1709 32.4868 37.9967 32.1067 37.8007 31.7591C37.6265 31.455 37.4414 31.1727 37.278 30.9772C37.1256 30.7926 36.9949 30.6948 36.8643 30.6948C36.7445 30.684 36.6138 30.7708 36.4505 30.9555C36.2763 31.1509 36.0803 31.455 35.8952 31.7808C35.6774 32.1718 35.4705 32.6062 35.329 32.9538C35.1983 33.2796 35.1221 33.5402 35.0676 33.8334C35.0132 34.1375 34.9805 34.4851 34.937 34.9846C34.8934 35.4951 34.839 36.1358 34.7845 36.9178C34.7192 37.7214 34.6539 38.6554 34.5776 39.698L34.5341 40.2953C34.3925 42.3045 34.2292 44.7046 34.0114 46.9853C33.8917 48.2885 33.761 49.5374 33.6303 50.5909C33.5105 51.59 33.3799 52.4263 33.271 53.0019C33.2383 53.143 33.2166 53.2625 33.1839 53.3711C33.565 53.3494 33.9679 53.3385 34.3925 53.3603C35.231 53.3928 35.3834 53.7404 35.5032 54.0227V54.0336C35.6229 54.3051 35.6774 54.5983 35.7427 54.8807C35.7754 55.0436 35.8081 55.2065 35.8407 55.3151L36.0258 55.3368C36.7118 55.402 37.3542 55.1088 37.8442 54.8916C37.9531 54.8373 38.062 54.7938 38.1709 54.7504C38.4431 54.6309 38.7589 54.4789 39.0747 54.316C39.042 53.9793 39.0311 53.5232 39.0311 52.9041C39.0529 51.666 39.1618 49.7655 39.2924 47.7129L39.3142 47.7238ZM31.9317 53.5666C31.8773 53.2191 31.8446 52.6869 31.8555 51.8398C31.8773 50.3085 32.0515 47.7563 32.2148 45.1607C32.291 44.0747 32.3564 42.9778 32.4217 41.9461L32.5197 40.3279C32.683 37.5585 32.8137 35.2996 33.1839 33.5619C33.4017 32.5302 33.7174 31.6831 34.055 30.988C34.3925 30.293 34.7519 29.75 35.0676 29.3156C35.3943 28.8811 35.6774 28.5553 35.9605 28.3381C36.2545 28.1101 36.5267 27.9906 36.8098 27.9906C37.0929 27.9906 37.376 28.0992 37.67 28.3273C37.9422 28.5445 38.2362 28.8594 38.552 29.283C38.8895 29.7391 39.2598 30.3256 39.5864 30.9663C39.8369 31.455 40.0655 31.9872 40.2397 32.5302C40.316 32.3564 40.4031 32.1827 40.4902 32.0198C40.8168 31.3682 41.1871 30.7926 41.5246 30.3364C41.8404 29.9129 42.1235 29.5979 42.4066 29.3807C42.7006 29.1527 42.9837 29.044 43.2668 29.044C43.4083 29.044 43.5499 29.0766 43.6914 29.1309C43.8003 29.0984 43.9201 29.0766 44.029 29.0766C44.3121 29.0766 44.5952 29.1852 44.8892 29.4133C45.1614 29.6305 45.4554 29.9455 45.7712 30.369C46.1087 30.8251 46.4789 31.4116 46.8056 32.0524C46.9363 32.3021 47.056 32.5628 47.1649 32.8343C47.3174 32.4216 47.5025 32.0089 47.6876 31.6288C48.0142 30.9772 48.3845 30.4016 48.722 29.9455C49.0378 29.5219 49.3209 29.207 49.604 28.9897C49.898 28.7617 50.1811 28.6531 50.4642 28.6531C50.7473 28.6531 51.0304 28.7725 51.3135 29.0006C51.5857 29.2178 51.8797 29.5436 52.2064 29.978C52.533 30.4124 52.8924 30.9555 53.219 31.6505C53.5566 32.3456 53.8614 33.1927 54.0901 34.2244C54.4603 35.9621 54.591 38.221 54.7543 40.9904L54.8523 42.6086C54.9176 43.6294 54.983 44.7372 55.0592 45.8232C55.2334 48.4188 55.3967 50.971 55.4185 52.5023C55.4294 53.5992 55.375 54.1856 55.277 54.4897C55.179 54.8264 55.0374 54.9024 54.8959 54.9459L55.0048 54.9676C55.179 54.9784 55.4185 54.9784 55.669 54.9784C55.9194 54.9784 56.1698 54.9676 56.3767 54.9567C56.5945 54.9459 56.6707 54.9133 56.8123 54.859L56.8994 54.8264C57.324 54.6635 57.8031 54.8698 57.9665 55.2934C58.1298 55.7169 57.9229 56.1948 57.4983 56.3577L57.4111 56.3903C57.1172 56.5097 56.9647 56.564 56.4747 56.5966C56.2678 56.6075 55.9738 56.6183 55.669 56.6183C55.3967 56.6183 55.0919 56.6075 54.8414 56.5966H54.7761L54.7216 56.5858C53.7743 56.3794 53.1863 56.1405 52.7944 55.9667L52.6746 55.9233C52.4786 55.8473 52.337 55.7495 52.1846 55.6518C52.0213 55.5432 51.847 55.4237 51.5422 55.3694C51.1937 55.3042 50.8562 55.2608 50.5731 55.2499C50.3662 55.2391 50.2029 55.2499 50.1157 55.2825C49.9524 55.3368 49.8 55.402 49.6584 55.478C49.5169 55.554 49.3862 55.6518 49.2555 55.7495C49.1249 55.8581 49.016 55.9776 48.9071 56.0862C48.5478 56.488 48.2538 56.803 47.4698 56.8899C47.2629 56.9116 47.0451 56.9333 46.8274 56.9333C46.5552 56.9333 46.2938 56.9007 46.0761 56.803C45.7712 56.6618 45.4227 56.488 45.0852 56.2925C44.7476 56.097 44.421 55.8907 44.1488 55.7061C44.0072 55.6083 43.8003 55.478 43.5608 55.3585C43.3321 55.2391 43.0926 55.1196 42.8748 55.0327C42.7006 54.9567 42.4501 54.9024 42.1997 54.8807C41.9928 54.859 41.775 54.8698 41.5899 54.9133C41.4375 54.9459 40.9911 55.1956 40.4902 55.4672C39.9675 55.7495 39.4013 56.0536 38.8351 56.2925L38.5629 56.412C37.9096 56.7052 37.0494 57.0962 35.9169 56.9876C35.7318 56.9659 35.5467 56.9442 35.3616 56.9007C35.0676 56.8247 34.8063 56.6835 34.6212 56.4337C34.349 56.0753 34.2619 55.6626 34.1748 55.2391L34.1312 55.011C33.7937 55.011 33.467 55.0219 33.1403 55.0436C32.7592 55.0762 32.4217 55.1305 32.1386 55.2065C31.801 55.2934 31.2675 55.4889 30.5924 55.7604C29.8955 56.0427 29.068 56.3903 28.1533 56.7704C27.7396 56.9442 27.2496 56.7487 27.0754 56.336C26.9011 55.9233 27.0971 55.4346 27.5109 55.2608C28.4255 54.8698 29.264 54.5223 29.9826 54.2291C30.7122 53.9358 31.311 53.7186 31.7248 53.61C31.801 53.5883 31.8664 53.5775 31.9426 53.5557L31.9317 53.5666ZM54.3405 54.7938L54.3188 54.7612C54.199 54.5983 54.0792 54.2834 53.9594 53.6643C53.8506 53.0887 53.7199 52.2525 53.6001 51.2534C53.4695 50.1999 53.3388 48.951 53.219 47.6477C53.0121 45.3671 52.8379 42.967 52.6964 40.9578L52.6528 40.3605C52.5766 39.307 52.5113 38.373 52.4459 37.5802C52.3915 36.7983 52.337 36.1467 52.2935 35.6471C52.2499 35.1475 52.2173 34.8 52.1628 34.4959C52.1084 34.1918 52.0322 33.9312 51.9015 33.6162C51.7599 33.2578 51.5531 32.8343 51.3353 32.4433C51.1502 32.1175 50.9542 31.8134 50.78 31.6179C50.6166 31.4333 50.486 31.3464 50.3662 31.3573C50.2464 31.3682 50.1157 31.4659 49.9524 31.6397C49.7891 31.8351 49.604 32.1175 49.4298 32.4216C49.2338 32.7691 49.0595 33.1384 48.9289 33.4642C48.8091 33.7574 48.7329 34.0072 48.6784 34.333C48.624 34.6588 48.5804 35.0824 48.5369 35.7123C48.4825 36.3856 48.4171 37.2979 48.3627 38.2319C48.3082 39.1007 48.2538 39.9912 48.2102 40.7623C48.1776 41.327 48.1558 41.8375 48.1449 42.2936C48.1776 43.1516 48.1993 43.8575 48.1885 44.6612C48.1776 45.1933 48.1667 45.7472 48.134 46.2576C48.1013 46.7029 48.0578 47.1047 48.0033 47.4088C47.9816 47.5391 47.9598 47.6477 47.9271 47.7346C48.0578 49.7655 48.1667 51.6443 48.1885 52.8715C48.1993 53.6426 48.1776 54.1639 48.1231 54.5006L48.1885 54.4463C48.3953 54.2834 48.6131 54.1313 48.8309 54.0119C49.0595 53.8924 49.2991 53.7838 49.5822 53.6969C49.8544 53.61 50.2137 53.5775 50.5948 53.5883C50.976 53.5992 51.4006 53.6535 51.8144 53.7295C52.435 53.849 52.7726 54.0662 53.0666 54.2508C53.1428 54.3051 53.219 54.3485 53.2843 54.3811C53.3061 54.3811 53.3932 54.4246 53.4041 54.4246C53.6328 54.5223 53.9377 54.6526 54.3405 54.7721V54.7938ZM47.2303 55.2608C47.1976 55.2282 47.1649 55.1956 47.1323 55.1522C47.0125 54.9893 46.8927 54.6743 46.7729 54.0553C46.664 53.4797 46.5334 52.6435 46.4136 51.6443C46.2829 50.5909 46.1523 49.3419 46.0325 48.0387C45.8256 45.758 45.6514 43.3579 45.5098 41.3488L45.4663 40.7514C45.3901 39.698 45.3247 38.764 45.2594 37.9712C45.205 37.1893 45.1505 36.5377 45.107 36.0381C45.0634 35.5385 45.0307 35.191 44.9763 34.8869C44.9219 34.5828 44.8456 34.3222 44.715 34.0072C44.5734 33.6488 44.3665 33.2253 44.1488 32.8343C43.9745 32.5302 43.8003 32.2478 43.637 32.0524C43.4628 32.2478 43.2777 32.5411 43.1035 32.8669C42.8857 33.2578 42.6788 33.6923 42.5372 34.0398C42.4066 34.3656 42.3304 34.6262 42.2759 34.9195C42.2215 35.2236 42.1888 35.5711 42.1453 36.0707C42.1017 36.5811 42.0473 37.2219 41.9928 38.0038C41.9275 38.8075 41.8621 39.7414 41.7859 40.784L41.7424 41.3813C41.6008 43.3905 41.4375 45.7906 41.2197 48.0713C41.0999 49.3745 40.9693 50.6235 40.8386 51.6769C40.7515 52.3937 40.6644 53.0236 40.5773 53.534C40.8059 53.4254 41.0128 53.3494 41.1871 53.306C41.5682 53.2191 41.9601 53.1973 42.3195 53.2299C42.755 53.2734 43.1688 53.3711 43.4737 53.4906C43.7677 53.61 44.0617 53.7512 44.323 53.8815C44.6061 54.0336 44.8783 54.1965 45.0961 54.3485C45.3356 54.5223 45.6187 54.6961 45.891 54.859C46.1741 55.0219 46.4789 55.1739 46.7403 55.3042C46.762 55.3151 46.7403 55.2934 46.7947 55.2934C46.9036 55.2934 47.056 55.2825 47.2303 55.2608Z" fill="#1E2020"/>
</g>
<defs>
<clipPath id="clip0_11170_1132">
<rect width="31" height="29" fill="white" transform="translate(27 28)"/>
</clipPath>
</defs>
</svg>
