<svg width="84" height="84" viewBox="0 0 84 84" fill="none" xmlns="http://www.w3.org/2000/svg">
<path d="M1.05987 44.5588C-0.353291 43.1456 -0.353291 40.8544 1.05987 39.4412L39.4412 1.05987C40.8544 -0.353291 43.1456 -0.353291 44.5588 1.05987L82.9401 39.4412C84.3533 40.8544 84.3533 43.1456 82.9401 44.5588L44.5588 82.9401C43.1456 84.3533 40.8544 84.3533 39.4412 82.9401L1.05987 44.5588Z" fill="#FFB300"/>
<path d="M46.6438 26.0719C46.9591 25.9563 47.266 25.9918 47.5178 26.0914C47.9612 26.2669 48.2952 26.6647 48.513 26.9674C48.972 27.6053 49.3608 28.4905 49.4309 28.6275C50.6485 30.9565 52.6183 34.5901 54.262 37.5699C54.801 38.5449 55.2642 39.3899 55.5921 40.0787C55.7564 40.4239 55.8938 40.7458 55.9925 41.0367C56.0884 41.3197 56.1629 41.6179 56.1663 41.9039C56.1697 42.1979 56.0966 42.5605 55.8059 42.8424C55.5266 43.113 55.1697 43.1885 54.8782 43.1988C54.4602 43.2135 53.9381 43.1021 53.3333 42.9107L52.7014 42.6949L52.3733 42.5748C52.4902 42.7892 52.6059 43.0045 52.7229 43.2183L54.0061 45.5435L54.0071 45.5455C54.503 46.4424 54.9096 47.1906 55.18 47.7974C55.4349 48.3698 55.6422 48.967 55.5735 49.5074C55.5348 49.812 55.4097 50.0958 55.1829 50.3277C54.9679 50.5475 54.7012 50.6812 54.4387 50.7672C53.934 50.9325 53.2601 50.9802 52.4798 50.9908H50.5051C50.3856 50.9908 50.3046 50.9947 50.2473 50.9996C50.2347 51.0447 50.2199 51.1105 50.2044 51.2037L50.2034 51.2047L49.5559 55.0387L49.552 55.0601L49.5471 55.0806C49.3869 55.7816 48.8278 56.1948 48.2327 56.1949H46.8938C46.5372 56.1949 46.1279 56.1745 45.801 55.9849C45.3679 55.7337 45.2661 55.3205 45.2288 55.0689V55.0699L44.6341 51.1939V51.1929C44.6217 51.119 44.6134 51.0512 44.6057 50.9928C44.5721 50.9922 44.5345 50.9903 44.4925 50.9908H44.4837C43.7575 50.9908 43.0513 51.0017 42.3714 51.0123H41.6721C41.4439 51.0074 41.2226 50.9955 41.0188 50.9703C40.6299 50.9221 40.1416 50.8091 39.7864 50.4498C39.3879 50.0467 39.3184 49.5114 39.3977 48.9957C39.4747 48.4953 39.704 47.903 40.055 47.2066V47.2056C40.406 46.5111 41.1472 45.0315 42.0042 43.3502C41.9962 43.3536 41.9886 43.3576 41.9807 43.3609L41.9719 43.3648L41.9641 43.3678C40.9762 43.7543 39.951 43.312 39.3801 42.5387C39.2154 42.3154 39.0865 42.0646 38.9983 41.7935C38.9608 41.8497 38.9173 41.9058 38.8635 41.9576C38.6199 42.1922 38.3186 42.2488 38.1038 42.2564C37.8313 42.2661 37.5145 42.2005 37.1721 42.0992L37.8128 43.2603L37.8137 43.2633C38.1157 43.8095 38.371 44.278 38.5423 44.6627C38.6982 45.013 38.8595 45.4458 38.8059 45.8648C38.7747 46.1085 38.672 46.343 38.4856 46.5338C38.3112 46.712 38.1016 46.8137 37.9143 46.8756C37.5592 46.9927 37.1059 47.0229 36.6282 47.0308H35.5003L35.1145 49.275L35.1106 49.2984L35.1048 49.3219C34.9796 49.8469 34.5451 50.2271 34.0139 50.2271H33.1966C32.9866 50.2271 32.6619 50.2206 32.387 50.0631C32.004 49.8433 31.919 49.4772 31.8919 49.2926L31.5491 47.0426C31.3928 47.0435 31.2366 47.0445 31.0803 47.0465C30.8672 47.0491 30.6521 47.0513 30.4417 47.0513C30.4401 47.0514 30.4383 47.0513 30.4368 47.0513L30.4358 47.0523V47.0513C30.1572 47.0539 29.8478 47.0563 29.5784 47.023C29.3256 46.9917 28.9415 46.9131 28.6526 46.6187C28.3212 46.281 28.2815 45.8446 28.3382 45.4801C28.3927 45.1296 28.5492 44.7347 28.7669 44.2994C28.945 43.9432 29.2878 43.2582 29.6985 42.4459C29.1641 42.4351 28.676 42.1435 28.3753 41.7369C27.971 41.1901 27.8699 40.4341 28.1878 39.6734V39.6471L28.2669 39.4888C28.5963 38.83 29.4398 37.1455 30.2903 35.4976C31.1257 33.8792 32.0086 32.2147 32.4007 31.6529L32.4016 31.6519C32.523 31.4787 32.7029 31.299 32.9592 31.2047C33.2297 31.1053 33.4918 31.1357 33.7005 31.2174C34.0576 31.3573 34.3044 31.6639 34.4417 31.8551C34.73 32.2568 34.9731 32.8074 35.0198 32.9058L35.6526 34.1041C36.3525 35.4143 37.2231 37.0055 37.9729 38.3775C38.3022 38.9728 38.5908 39.4989 38.7962 39.9303C38.8474 40.038 38.8955 40.1437 38.9387 40.2467C38.9765 40.0756 39.0282 39.9019 39.096 39.7271L39.0784 39.6939L39.2473 39.358C39.7875 38.2882 41.1655 35.538 42.552 32.8502C43.9219 30.1945 45.3429 27.516 45.9592 26.6324C46.1204 26.3998 46.3423 26.1825 46.6438 26.0719ZM47.1087 27.6138C46.5188 28.5128 45.2154 30.9587 43.885 33.5377C42.6294 35.9719 41.3814 38.4558 40.7561 39.6969L41.1409 40.4674H40.426C40.2788 40.9953 40.4037 41.3995 40.5872 41.648C40.836 41.985 41.1744 42.0589 41.4075 41.9732C41.8331 41.7944 42.5471 41.4399 43.3557 41.025L45.4417 39.9547L44.3635 42.0367C43.1126 44.4537 41.8843 46.9121 41.3938 47.8824C41.0656 48.5339 40.921 48.9579 40.8801 49.2232C40.8658 49.3168 40.867 49.3729 40.8704 49.4029C40.9066 49.4202 41.0003 49.4569 41.2034 49.482C41.4922 49.5177 41.864 49.5177 42.3479 49.5123C43.0246 49.5017 43.7387 49.4909 44.4749 49.4908C44.7193 49.488 44.96 49.4987 45.1731 49.5513C45.4075 49.6093 45.6598 49.7314 45.8411 49.983C45.9988 50.202 46.0411 50.4414 46.0608 50.566C46.0717 50.6345 46.0808 50.7104 46.0882 50.7681L46.1155 50.9547L46.1175 50.9664L46.6887 54.69C46.7434 54.6931 46.8109 54.6949 46.8938 54.6949H48.093L48.7249 50.9547C48.7918 50.5541 48.9181 50.0674 49.3411 49.7642C49.7272 49.4877 50.2083 49.4908 50.5051 49.4908H52.4592C53.2399 49.4802 53.7068 49.4282 53.9719 49.3414C54.0286 49.3228 54.0639 49.3051 54.0852 49.2935C54.0876 49.1885 54.0436 48.9326 53.8098 48.4078C53.5706 47.8708 53.1974 47.1806 52.6956 46.273C51.8655 44.7832 50.9504 43.1128 50.1096 41.5484L49.179 39.816L51.0266 40.4888L53.2151 41.2847C53.8974 41.5334 54.3459 41.6486 54.6223 41.6851C54.6092 41.637 54.5939 41.5812 54.5725 41.5181C54.5003 41.305 54.3893 41.0421 54.2376 40.7232C54.0852 40.4031 53.8988 40.0422 53.6829 39.6383L52.9495 38.2955C51.3024 35.3096 49.3239 31.6615 48.0989 29.3179L48.096 29.3121C47.9534 29.034 47.6676 28.3597 47.2962 27.8433C47.229 27.75 47.165 27.6741 47.1087 27.6138ZM33.3616 32.9459C32.9568 33.6376 32.3001 34.8749 31.6233 36.1861C30.8386 37.7065 30.0589 39.2598 29.6878 40.0015V40.0133L29.6077 40.1724C29.4263 40.5321 29.5124 40.7521 29.5813 40.8453C29.6228 40.9013 29.6687 40.9292 29.6995 40.94C29.7258 40.9491 29.7377 40.9458 29.7425 40.9439L29.7522 40.94L29.9573 40.8521C30.194 40.7437 30.523 40.5763 30.9124 40.3775L32.9846 39.3189L31.9202 41.3883C31.1578 42.8707 30.405 44.3756 30.1077 44.9703C29.9811 45.2234 29.9069 45.4092 29.8645 45.5406C30.0062 45.5504 30.1876 45.5545 30.429 45.5523H30.4358C30.6372 45.5523 30.8447 45.5491 31.0618 45.5465C31.2775 45.5438 31.5026 45.5416 31.7307 45.5416C31.8861 45.5416 32.0634 45.5493 32.2307 45.5933C32.4198 45.6432 32.6378 45.7512 32.7962 45.9742C32.9319 46.1655 32.9664 46.3677 32.9798 46.4517C32.9873 46.4995 32.9932 46.5517 32.9973 46.5846C33.0022 46.6226 33.0065 46.6553 33.012 46.6881L33.0139 46.6988L33.3235 48.7271H33.6868L34.0393 46.6744C34.0811 46.4156 34.1741 46.0187 34.5276 45.7603C34.8515 45.524 35.2425 45.5308 35.4163 45.5308H36.6038C36.9075 45.5258 37.1175 45.5083 37.26 45.4879C37.2394 45.4312 37.2109 45.3602 37.1721 45.273C37.0318 44.9579 36.8097 44.5468 36.5012 43.9888V43.9879C35.9896 43.0711 35.4347 42.0484 34.9163 41.0963L33.9671 39.3521L35.8323 40.0328L37.1702 40.5211H37.1692C37.2775 40.5604 37.3749 40.5919 37.4612 40.6197C37.4544 40.6052 37.4488 40.5898 37.4417 40.5748C37.2597 40.1925 36.9948 39.7087 36.6604 39.1041L36.6585 39.1002C35.6625 37.2777 34.4358 35.039 33.6878 33.5963L33.6829 33.5865C33.61 33.4408 33.5012 33.1863 33.3616 32.9459Z" fill="#1E2020"/>
</svg>
