<svg width="84" height="84" viewBox="0 0 84 84" fill="none" xmlns="http://www.w3.org/2000/svg">
<path d="M1.05987 44.5588C-0.353291 43.1456 -0.353291 40.8544 1.05987 39.4412L39.4412 1.05987C40.8544 -0.353291 43.1456 -0.353291 44.5588 1.05987L82.9401 39.4412C84.3533 40.8544 84.3533 43.1456 82.9401 44.5588L44.5588 82.9401C43.1456 84.3533 40.8544 84.3533 39.4412 82.9401L1.05987 44.5588Z" fill="#FFB300"/>
<path fill-rule="evenodd" clip-rule="evenodd" d="M32.7111 47.5526C32.1654 48.4034 31.6917 49.154 31.3005 49.6945C30.8989 50.255 30.5797 50.6054 30.312 50.8155C30.034 51.0458 29.8178 51.1358 29.6325 51.1659L29.5707 51.1759C29.3956 51.1959 29.2412 51.1659 29.1279 51.0858C29.0147 51.0057 28.9323 50.8856 28.9014 50.7255L28.8911 50.6754C28.8705 50.5053 28.9014 50.3051 28.9632 50.0849C29.025 49.8647 29.1176 49.6245 29.2309 49.3642C29.3442 49.104 29.478 48.8338 29.6325 48.5535C29.7869 48.2732 29.9516 47.983 30.1267 47.6927C30.3017 47.3925 30.4974 47.0922 30.7651 46.6918C31.0328 46.2915 31.3931 45.781 31.908 45.0804C32.4537 44.3197 33.195 43.3388 34.0084 42.2578C34.6983 41.347 35.4499 40.3561 36.2118 39.3852C37.0253 38.3443 37.8387 37.3334 38.6212 36.3825C39.414 35.4216 40.1965 34.5108 40.9482 33.6801L41.4939 33.0895C41.2262 32.7292 41.0099 32.4389 40.8555 32.1987C40.6805 31.9385 40.5569 31.7283 40.4642 31.5481C40.351 31.3179 40.2892 31.1077 40.2686 30.9376C40.248 30.7374 40.2892 30.5773 40.3819 30.4572C40.4951 30.317 40.6496 30.237 41.0202 30.4672C41.3085 30.6473 41.7616 31.0577 42.5132 31.8884L42.575 31.9585C42.9971 31.5381 43.3884 31.1478 43.7488 30.8175C44.14 30.4572 44.4798 30.1669 44.7681 29.9467C45.2212 29.5964 45.5301 29.4362 45.7463 29.3762C46.014 29.3061 46.1684 29.3662 46.2611 29.4563C46.3641 29.5563 46.3949 29.6865 46.3435 29.8466C46.3023 29.9767 46.2199 30.1469 46.0758 30.3571C45.911 30.5873 45.6639 30.8875 45.355 31.2679C45.1491 31.5181 44.902 31.8084 44.624 32.1687C44.3872 32.469 44.1503 32.7692 43.9032 33.0895L43.7488 33.2897C44.521 34.2005 45.4065 35.3015 46.3229 36.4626C47.1672 37.5436 48.0218 38.6746 48.8043 39.7656C49.8648 41.2469 50.7915 42.6482 51.574 43.8693C52.3565 45.1004 52.9846 46.1714 53.4583 46.9921C53.9319 47.8128 54.2511 48.3934 54.4776 48.8237C54.7041 49.2541 54.8277 49.5344 54.9203 49.7646C55.013 49.9948 55.0748 50.165 55.0954 50.3051C55.1263 50.4652 55.116 50.5853 55.0748 50.6954C55.0233 50.8256 54.9409 50.9457 54.8071 51.0157C54.6938 51.0758 54.5497 51.1058 54.3746 51.0858C54.1893 51.0658 53.9731 50.9957 53.7054 50.7855C53.448 50.5853 53.1288 50.265 52.7478 49.7446C52.2124 49.0139 51.5431 47.8829 50.7606 46.5817C50.4517 46.0613 50.1222 45.5208 49.7825 44.9402C49.3912 44.2997 48.9896 43.6391 48.5675 42.9785L48.5263 42.9885C48.413 42.9985 48.2483 43.0085 48.0733 43.0085C47.9291 43.0085 47.7644 42.9985 47.6202 42.9885L47.507 42.9785L47.404 42.9384C46.8892 42.7583 46.5803 42.5381 46.3641 42.3779L46.3126 42.3379C46.1684 42.2378 46.0861 42.1477 45.9934 42.0476C45.9728 42.0176 45.9934 42.0076 45.9728 41.9976C45.8904 41.9776 45.8183 41.9575 45.7669 41.9475C45.7257 41.9876 45.6845 42.0276 45.6433 42.0977C45.5815 42.1777 45.5403 42.2478 45.5095 42.3179C45.2829 42.7382 45.0976 43.0786 44.4489 43.1987C44.3151 43.2187 44.1812 43.2387 44.0268 43.2387C43.7488 43.2387 43.4914 43.1786 43.2648 43.0085C43.1104 42.8884 42.9354 42.7382 42.7603 42.5681C42.5956 42.408 42.4308 42.2378 42.297 42.0777C42.2352 42.0076 42.1631 41.9275 42.0808 41.8575C41.9984 41.7874 41.9057 41.7173 41.8337 41.6573C41.7822 41.7073 41.6895 41.8074 41.5557 41.9375C41.3085 42.1677 41.0305 42.418 40.7422 42.6181L40.629 42.6982C40.2274 42.9985 39.7023 43.3988 38.8889 43.2687C38.755 43.2487 38.6212 43.2187 38.4564 43.1486C38.2093 43.0385 37.9931 42.8584 37.8593 42.5681C37.7563 42.3279 37.7048 42.0676 37.6739 41.8074C37.6224 41.8174 37.5813 41.8374 37.5401 41.8474C37.4165 41.8975 37.2003 42.0376 36.9223 42.2178C36.6443 42.3979 36.2942 42.6482 35.9029 42.9284C35.4705 43.519 35.0381 44.1095 34.6262 44.71C33.9466 45.6909 33.3186 46.6718 32.7728 47.5426L32.7111 47.5526ZM46.9201 40.4962C46.5494 39.9457 46.1787 39.3952 45.7978 38.8648C45.2212 38.044 44.6343 37.2433 44.0886 36.5126C43.584 35.832 43.1001 35.2014 42.678 34.6409L42.1014 35.3516C41.638 35.9121 41.1644 36.4626 40.6393 37.0631C40.0627 37.7337 39.4346 38.4544 38.755 39.2751C38.5594 39.5053 38.3638 39.7455 38.1681 39.9858C38.2093 39.9858 38.2505 39.9858 38.302 39.9958C39.1154 40.0458 39.2287 40.4662 39.311 40.8065V40.8165C39.3522 40.9867 39.3831 41.1668 39.4037 41.337L39.4346 41.317L39.5993 41.1969C39.7744 41.0767 40.0215 40.8565 40.2377 40.6564C40.5569 40.3661 40.8349 40.1159 41.1129 39.9958C41.4115 39.8757 41.7204 39.8556 41.9984 39.8957C42.3073 39.9457 42.5956 40.0658 42.8015 40.206C42.956 40.3161 43.1207 40.4362 43.2546 40.5563C43.409 40.6964 43.5531 40.8465 43.6664 40.9666C43.7488 41.0667 43.8517 41.1768 43.9547 41.2769C43.9959 41.2069 44.0474 41.1368 44.0989 41.0667C44.2121 40.9166 44.3254 40.7865 44.4592 40.6664C44.5931 40.5363 44.7475 40.4362 44.9226 40.3361C45.1697 40.206 45.458 40.1559 45.7566 40.1659C45.9934 40.1759 46.2508 40.226 46.4876 40.3061C46.6627 40.3561 46.7965 40.4262 46.9201 40.5062V40.4962ZM42.6985 30.3571C42.9251 30.247 43.4502 29.4963 43.6973 29.0459C43.8723 28.7256 43.8826 28.5955 43.687 28.2351C43.4296 27.7547 42.956 27.1041 42.8015 26.964C42.5544 26.7538 41.8542 27.9549 41.6792 28.2251C41.5145 28.4654 41.4012 28.7356 41.5762 29.0359C41.8542 29.5463 42.4823 30.5372 42.7088 30.3571H42.6985Z" fill="#1E2020"/>
</svg>
