<svg width="84" height="84" viewBox="0 0 84 84" fill="none" xmlns="http://www.w3.org/2000/svg">
<path d="M1.05987 44.5588C-0.353291 43.1456 -0.353291 40.8544 1.05987 39.4412L39.4412 1.05987C40.8544 -0.353291 43.1456 -0.353291 44.5588 1.05987L82.9401 39.4412C84.3533 40.8544 84.3533 43.1456 82.9401 44.5588L44.5588 82.9401C43.1456 84.3533 40.8544 84.3533 39.4412 82.9401L1.05987 44.5588Z" fill="#FFB300"/>
<g clip-path="url(#clip0_11170_1111)">
<path fill-rule="evenodd" clip-rule="evenodd" d="M49.0059 38.7525C49.0861 38.437 48.9366 37.8226 48.7616 37.2885C48.5902 36.7544 48.3932 36.2977 48.1854 35.9241C47.9775 35.5505 47.7587 35.2572 47.5436 35.069C47.3284 34.8808 47.1206 34.7978 46.92 34.8753C46.7194 34.9527 46.5225 35.188 46.3475 35.4896C46.1724 35.7913 46.0229 36.1594 45.8734 36.5274C45.7239 36.8955 45.5744 37.2636 45.4759 37.6482C45.3775 38.0329 45.3301 38.437 45.3301 38.6833C45.3301 38.9296 45.3775 39.0154 45.5817 39.0513C45.7896 39.0873 46.1542 39.0679 46.6356 39.0679C47.1133 39.0679 47.704 39.0845 48.1562 39.0845C48.6084 39.0845 48.9184 39.0679 48.9986 38.7525H49.0059ZM36.4906 42.2726C36.5381 42.0872 36.4505 41.7275 36.3484 41.4147C36.2463 41.102 36.1333 40.8336 36.0093 40.6149C35.889 40.3963 35.7577 40.2247 35.6337 40.114C35.5097 40.0033 35.3857 39.9535 35.269 40.0006C35.1487 40.0449 35.0356 40.1832 34.9335 40.3603C34.8314 40.5375 34.7439 40.7533 34.6564 40.9692C34.5689 41.185 34.4814 41.4009 34.423 41.6278C34.3647 41.8548 34.3391 42.09 34.3391 42.2339C34.3391 42.3778 34.3647 42.4304 34.4886 42.4498C34.609 42.4691 34.8241 42.4608 35.1049 42.4608C35.3857 42.4608 35.7322 42.4719 35.9984 42.4719C36.2646 42.4719 36.4469 42.4608 36.4943 42.2754L36.4906 42.2726ZM52.1274 32.1466C52.1493 32.2517 52.1639 32.3873 52.1784 32.5589C52.2003 32.7914 52.2186 33.1096 52.2441 33.5386L52.2623 33.8541C52.3571 35.4038 52.5176 38.0661 52.7619 41.3096C53.0099 44.6167 53.3381 48.5409 53.5569 51.1119C53.6882 52.6506 53.8121 54.192 53.9471 55.7307C53.9945 56.2566 54.0127 56.489 53.9762 56.7547C53.9544 56.9014 53.9142 57.0591 53.8595 57.2058C53.8085 57.3469 53.7392 57.4825 53.6626 57.596C53.5715 57.7261 53.4621 57.8312 53.3235 57.8783C53.1594 57.9336 52.9844 57.906 52.7984 57.7593C52.6562 57.6458 52.4957 57.4438 52.3462 57.0813C52.204 56.7326 52.0618 56.2289 51.9451 55.49C51.7591 54.2944 51.6315 52.4735 51.4746 50.1682L51.3652 48.5686C51.2741 47.2651 51.1647 45.8261 51.0589 44.398C50.9167 42.5051 50.7781 40.6343 50.6797 39.1012C50.5046 36.4527 50.4499 34.8587 50.4171 33.879V33.8651C50.3989 33.3808 50.388 33.046 50.377 32.7969C50.3661 32.6115 50.3551 32.4786 50.3442 32.3624C50.0707 32.3818 49.7863 32.4012 49.4909 32.4178C49.1372 32.4371 48.7506 32.4565 48.3495 32.4759C47.6129 32.5119 46.8288 32.5451 46.0959 32.5727C45.4759 32.5949 44.8961 32.6115 44.4148 32.6198L43.8714 32.6226L43.5833 32.6198C43.576 32.7305 43.5651 32.8606 43.5578 33.0211L43.5214 33.9841C43.4885 34.9666 43.4338 36.5579 43.2588 39.1952C43.1567 40.7339 43.0181 42.6158 42.8759 44.5226C42.7701 45.9395 42.6644 47.3675 42.5732 48.6627L42.4638 50.2512C42.307 52.5593 42.183 54.3858 41.9934 55.5841C41.8767 56.323 41.7381 56.8294 41.5923 57.1754C41.4428 57.5379 41.2823 57.7399 41.1401 57.8534C40.9541 58.0028 40.7791 58.0277 40.615 57.9724C40.4764 57.9281 40.367 57.8229 40.2758 57.6901C40.1956 57.5766 40.13 57.441 40.0789 57.2999C40.0242 57.1532 39.9841 56.9955 39.9622 56.8488C39.9221 56.5831 39.944 56.3507 39.9914 55.8304C40.13 54.264 40.2576 52.6976 40.3889 51.134C40.604 48.5631 40.9322 44.6803 41.1766 41.4037C41.4209 38.1242 41.585 35.4426 41.6762 33.8984L41.7418 32.8661C41.7527 32.7139 41.7637 32.5866 41.7746 32.4786L41.6433 32.4482C41.5558 32.4261 41.4792 32.4012 41.4136 32.3707C41.2896 32.3154 41.2094 32.249 41.162 32.1687C41.1146 32.0912 41.1 32.0054 41.1036 31.9113C41.1073 31.8228 41.1292 31.7204 41.2167 31.5571C41.3006 31.4049 41.4464 31.189 41.698 30.8652C41.9351 30.5608 42.2706 30.1568 42.6316 29.7306C43.0254 29.2656 43.463 28.7675 43.8423 28.3413C44.1996 27.94 44.5059 27.6135 44.7721 27.3423C45.042 27.0683 45.2754 26.8552 45.4869 26.6864C45.702 26.5148 45.899 26.3875 46.0703 26.2934C46.2417 26.1993 46.3912 26.1357 46.5152 26.0886C46.6502 26.0388 46.7523 26.0056 46.8653 26.0001C46.9856 25.9945 47.0987 26.0139 47.2409 26.0692C47.3612 26.1163 47.5108 26.1938 47.6967 26.3128C47.8754 26.429 48.0979 26.5868 48.3714 26.8054C48.6412 27.0185 48.9658 27.2952 49.2976 27.5803C49.6331 27.8708 49.9649 28.1642 50.2567 28.4216C50.552 28.6845 50.8073 28.9114 51.0261 29.1245C51.2522 29.3404 51.4491 29.5479 51.6315 29.7693C51.956 30.1651 52.2295 30.6051 52.4301 30.9261L52.5395 31.0977C52.7291 31.3966 52.8239 31.5516 52.7765 31.7314C52.751 31.8228 52.689 31.9113 52.5504 31.9943C52.4556 32.0497 52.3207 32.1023 52.131 32.1493L52.1274 32.1466ZM44.3965 30.3505C44.2434 30.5608 44.1157 30.749 44.0392 30.8874C43.9699 31.0119 43.9407 31.0894 43.9517 31.1309C43.9553 31.1364 43.9772 31.1447 44.0246 31.1503C44.2033 31.1779 44.5315 31.1613 44.8815 31.142L45.0858 31.1309C45.3009 31.1198 45.5233 31.1143 45.7896 31.1088C46.0485 31.1032 46.3475 31.1032 46.7231 31.106L47.1534 31.1088C47.8317 31.1143 48.6193 31.1226 49.1007 31.0894C49.3742 31.07 49.5419 31.0396 49.644 31.0008C49.7206 30.9732 49.7534 30.9372 49.7717 30.904C49.7936 30.8652 49.8008 30.8237 49.7826 30.7628C49.7571 30.6826 49.6914 30.5746 49.5675 30.4197C49.3961 30.2038 49.097 29.8883 48.8163 29.5894L48.4297 29.1771C48.3021 29.0387 48.1963 28.9142 48.0979 28.8035C47.9447 28.6291 47.8317 28.4963 47.704 28.3856C47.6092 28.3026 47.5108 28.2334 47.4014 28.1836C47.2993 28.1365 47.1899 28.1088 47.0695 28.1033C46.9419 28.0978 46.7924 28.1227 46.6356 28.1808C46.4788 28.2362 46.311 28.3275 46.1396 28.452C45.95 28.5876 45.7567 28.7647 45.5598 28.964C45.3629 29.166 45.1623 29.3957 44.9618 29.6309C44.7576 29.8745 44.557 30.1263 44.3929 30.3532L44.3965 30.3505ZM39.7434 43.6896C39.7908 44.6028 39.8273 45.2836 39.8164 46.0779C39.8091 46.5068 39.7908 46.969 39.7544 47.3814C39.7216 47.7411 39.6778 48.0705 39.6158 48.3223C39.5502 48.6046 39.459 48.7928 39.3605 48.9145C39.2439 49.0584 39.1053 49.1249 38.9667 49.1498C38.8099 49.1774 38.6531 49.1581 38.5072 49.0446C38.3905 48.956 38.2848 48.8011 38.1973 48.5492C38.1207 48.3278 38.0587 48.0289 38.0076 47.6858C37.9493 47.2956 37.9019 46.8389 37.8691 46.3685C37.8363 45.9423 37.8144 45.4967 37.7888 44.9958C37.7633 44.4894 37.7341 43.9248 37.6867 43.2413C37.643 42.6103 37.5883 41.8824 37.5263 41.1767C37.4607 40.4102 37.3914 39.6685 37.3367 39.115C37.282 38.5975 37.2419 38.2543 37.1799 37.9859C37.1215 37.7202 37.0413 37.5182 36.9137 37.2774C36.7787 37.0173 36.5855 36.7128 36.3776 36.4306C36.1916 36.1815 35.9984 35.9518 35.8197 35.7941C35.6519 35.6446 35.5097 35.5644 35.3821 35.5588C35.2544 35.5533 35.1122 35.6225 34.9408 35.7719C34.7549 35.9324 34.547 36.1787 34.3501 36.4472C34.1167 36.7654 33.8979 37.1169 33.7484 37.4047C33.6098 37.6704 33.5259 37.8835 33.4639 38.127C33.4056 38.3705 33.3655 38.6556 33.3217 39.0624C33.2743 39.4775 33.2196 40.0061 33.1576 40.6426C33.092 41.2985 33.0191 42.0568 32.9425 42.9147L32.8987 43.4045C32.7456 45.0456 32.5669 47.005 32.3408 48.8675C32.2132 49.9302 32.0709 50.9486 31.9324 51.8065C31.8011 52.6229 31.6662 53.3065 31.5458 53.7742C31.4145 54.2723 31.2869 54.5324 31.1593 54.6653C30.9879 54.8452 30.8201 54.8396 30.6415 54.8147C30.4701 54.7926 30.2841 54.7511 30.1565 54.4356C30.0543 54.181 29.9887 53.7077 30.0069 52.8111C30.0288 51.5602 30.2112 49.4819 30.3971 47.362C30.4737 46.4736 30.5539 45.577 30.6196 44.7412L30.7217 43.4239C30.8931 41.1629 31.0316 39.317 31.4328 37.9028C31.6735 37.0588 32.0053 36.3669 32.3627 35.7996C32.7237 35.2295 33.1066 34.7867 33.453 34.438C33.7994 34.0838 34.113 33.8209 34.4084 33.6437C34.722 33.4556 35.0211 33.3615 35.3237 33.3615C35.6264 33.3587 35.9291 33.45 36.2427 33.6327C36.5381 33.807 36.848 34.0644 37.1835 34.4103C37.5445 34.7812 37.9384 35.2572 38.2921 35.7858C38.5875 36.2285 38.8573 36.7128 39.0469 37.2027C39.2584 37.7396 39.3751 38.282 39.4517 38.8355C39.5246 39.3834 39.5538 39.9369 39.583 40.5015L39.7507 43.6923L39.7434 43.6896Z" fill="#1E2020"/>
</g>
<defs>
<clipPath id="clip0_11170_1111">
<rect width="24" height="32" fill="white" transform="translate(30 26)"/>
</clipPath>
</defs>
</svg>
