<svg width="1272" height="135" viewBox="0 0 1272 135" fill="none" xmlns="http://www.w3.org/2000/svg">
<path d="M9.5835 3.66675C10.2739 3.66675 10.8335 4.22639 10.8335 4.91675V8.00008L13.7013 7.42652C16.4522 6.87635 19.3037 7.13815 21.9084 8.18003L22.2478 8.31579C24.8497 9.35657 27.7135 9.55092 30.4322 8.87125C31.6942 8.55573 32.9168 9.51029 32.9168 10.8112V23.0896C32.9168 24.1634 32.186 25.0995 31.1442 25.3599L30.7868 25.4493C27.8375 26.1866 24.731 25.9757 21.9084 24.8467C19.3037 23.8048 16.4522 23.543 13.7013 24.0932L10.8335 24.6667V38.2501C10.8335 38.9404 10.2739 39.5001 9.5835 39.5001C8.89314 39.5001 8.3335 38.9404 8.3335 38.2501V4.91675C8.3335 4.22639 8.89314 3.66675 9.5835 3.66675Z" fill="#FFB300"/>
<path d="M1241.58 72.6667C1242.27 72.6667 1242.83 73.2264 1242.83 73.9167V77.0001L1245.7 76.4265C1248.45 75.8763 1251.3 76.1382 1253.91 77.18L1254.6 77.4556C1256.97 78.4055 1259.59 78.5829 1262.07 77.9625C1263.12 77.6996 1263.96 78.8394 1263.41 79.7689L1261.27 83.3204C1260.71 84.269 1260.42 84.7433 1260.35 85.2592C1260.33 85.4744 1260.33 85.6924 1260.35 85.9076C1260.42 86.4235 1260.71 86.8978 1261.27 87.8464L1263.88 92.1815C1264.39 93.0449 1263.93 94.1633 1262.95 94.4075L1262.79 94.4493C1259.84 95.1866 1256.73 94.9757 1253.91 93.8467C1251.3 92.8048 1248.45 92.543 1245.7 93.0932L1242.83 93.6667V107.25C1242.83 107.94 1242.27 108.5 1241.58 108.5C1240.89 108.5 1240.33 107.94 1240.33 107.25V73.9167C1240.33 73.2264 1240.89 72.6667 1241.58 72.6667Z" fill="#FFB300"/>
<path d="M10.4219 40.7653C23.1311 29.1714 55.9064 18.1272 70.4482 30.3234C83.8169 41.5349 114.222 26.5066 122.062 37.0345C134.329 53.516 156.77 39.3839 160.469 52.0127C163.506 62.3829 173.84 46.8742 187.861 47.4741C218.653 48.791 198.656 50.2226 216.937 56.2311C235.749 62.414 236.048 20.3165 246.759 22.1185C256.589 23.7724 241.603 47.4717 255.641 47.4717C274.858 47.4717 279.112 72.5165 310.193 66.1806C316.706 64.8518 313.38 42.2663 337.159 59.2114C342.784 63.2218 354.26 52.3879 340.696 43.1888C340.395 42.9857 325.908 15.8161 349.642 28.0195C366.571 43.2247 360.317 11.3325 401.15 9.37743C414.22 8.75125 432.262 -13.0408 430.907 21.3729C430.317 36.3582 463.253 9.44196 464.457 9.44196C478.506 9.44196 458.256 21.6095 491.359 26.5305C564.486 37.4026 472.812 47.7011 509.487 67.8656C521.819 74.646 528.151 73.0614 546.401 85.0186C557.34 92.1839 598.464 69.976 604.126 78.6039C609.206 86.3427 631.951 68.3149 650.285 80.0952C655.823 83.6539 674.635 72.06 691.098 72.8296C699.755 73.2335 694.835 67.1653 714.956 69.1634C721.051 69.7704 730.951 66.2882 745.524 66.8618C748.627 66.9837 750.673 44.912 769.19 58.1048C780.313 66.0277 771.26 35.873 807.404 55.1866C813.411 58.3964 833.69 66.3073 839.463 64.0703C841.133 63.4226 871.287 60.7314 872.14 61.023C873.048 65.423 901.565 71.8784 913.527 90.5969C917.483 96.7846 945.927 101.894 958.196 93.1518C966.449 87.2724 980.594 97.4251 962.968 79.7917C956.16 72.985 992.885 70.5591 992.3 63.131C997.784 59.8782 1004.79 68.0209 1010.23 71.5796C1020.9 78.5752 1018.27 67.3565 1026.16 87.368C1031.16 100.064 1040.5 96.113 1051.66 95.6016C1074.68 94.5524 1075.12 118.075 1111.58 103.869C1112.96 103.333 1122.54 113.577 1131 115.3C1141.53 117.446 1113.2 132.482 1137.68 129.468C1147.83 128.218 1142.21 136.282 1156.35 129.339C1166.07 124.566 1168.74 124.664 1179.46 123.873C1200.93 122.293 1187.49 105.049 1203.48 111.877C1205.04 112.542 1210.4 102.279 1224.69 102.279C1229.56 102.279 1238.71 103.257 1240.57 108.618" stroke="#FFB300" stroke-width="4.00018" stroke-miterlimit="22.9256"/>
<path d="M716.247 31.1668C716.247 28.8651 714.382 27.0001 712.081 27.0001C709.779 27.0001 707.914 28.8651 707.914 31.1668C707.914 33.4685 709.779 35.3335 712.081 35.3335C714.382 35.3335 716.247 33.4685 716.247 31.1668ZM708.546 44.5635L710.892 53.3901L706.246 56.0301V67.0001H709.579V57.9701L717.049 53.7268C718.962 52.6401 719.949 50.3835 719.447 48.2401L717.719 40.8501L722.917 43.4485L724.634 49.9268L727.857 49.0718L725.754 41.1401L717.472 37.0001H712.079C710.637 37.0001 709.267 37.6235 708.316 38.7068L708.159 38.9168L704.404 44.8835L698.154 48.0085L699.646 50.9901L706.729 47.4485L708.546 44.5635ZM719.542 55.5535L720.314 58.8801L724.101 67.0001H720.436L717.231 60.1901L716.584 57.3768L718.299 56.4018C718.731 56.1568 719.144 55.8735 719.542 55.5535Z" fill="#FFB300"/>
</svg>
