<svg width="196" height="40" viewBox="0 0 196 40" fill="none" xmlns="http://www.w3.org/2000/svg">
<path d="M28.3682 0L13.695 19.1682L13.0371 20.0266L12.5735 20.6363L11.8648 21.561L11.57 21.9466L11.0014 22.6884L10.8292 22.9155L10.8257 22.9197L10.779 22.9789L10.7533 23.0112L10.3435 23.5438L10.3032 23.5994L9.75739 24.3113V24.3149L9.66399 24.432L8.95587 25.3609L8.84145 25.508L8.83736 25.511L8.22673 26.3155L7.97454 26.6455L7.97104 26.6491L7.41003 27.3796L6.59391 28.4477L5.57289 29.7795L4.29675 31.4497L2.82972 33.3619V33.3655L1.4882 35.1163L0.938285 35.8354L3.48647 37.8696L7.43513 32.7085L7.43864 32.705L9.46317 30.0623L10.2892 28.9833L10.2939 28.9803L10.5811 28.602V28.5978L10.9296 28.1465L11.5157 27.3796L11.6015 27.2702V27.266L12.3307 26.3161L12.4323 26.1799L13.1439 25.2551L13.3167 25.0274L13.9711 24.172L14.7656 23.1337L14.859 23.0124L15.34 22.3817L15.4696 22.209L15.4737 22.2048L15.6716 21.9478L15.7866 21.7977L16.0091 21.5114L16.0488 21.4576L16.6676 20.6494L16.9367 20.2968L19.141 17.412L19.1474 17.4048L21.9986 13.6838L30.9164 2.03476L28.367 0.00179326L28.3682 0ZM22.7558 14.4232L22.7517 14.4304L19.0733 19.231L19.0698 19.2345L17.625 21.1246L17.6139 21.1396L17.6104 21.1432L17.4014 21.4181L17.1714 21.72L16.9951 21.9466L16.9665 21.9872L16.4632 22.6441L16.3803 22.7499L16.1824 23.0106L14.9308 24.6472L14.2764 25.5026L14.2659 25.5175L13.8958 25.9993L14.413 25.569L14.4311 25.554L15.305 24.8349H15.3091L17.5094 23.0106L17.6244 22.9191L18.0809 22.5407L18.4008 22.2765L18.6489 22.0673L18.8001 21.946L18.9764 21.7995L20.2525 20.7463L23.0424 18.4377L26.6344 15.4687L36.6543 7.18202H36.659L34.8971 4.96555L34.6198 4.61765L22.7552 14.4232H22.7558ZM27.2065 16.3647L22.5684 20.1999L20.7166 21.7308L20.4545 21.9466L20.0114 22.3142L19.9396 22.3722L19.5537 22.6914L19.1667 23.0106L19.1398 23.0327L19.113 23.0554L18.911 23.2204L16.3412 25.3496L16.183 25.4793L16.0242 25.6096L16.4451 25.4004L20.1346 23.5617L20.2064 23.5288H20.2105L20.7254 23.27L21.2414 23.0112L21.3278 22.9669L21.6945 22.787L23.381 21.9466L26.5993 20.3428L30.7698 18.2656L41.6392 12.8571L40.2188 9.88746L27.2065 16.3653V16.3647ZM44.4506 16.1376L31.1184 19.2788L25.761 21.9472L23.6221 23.0118L23.3086 23.166H23.3051L22.5182 23.5623L21.8206 23.9078L21.3278 24.1577H21.3243L18.1965 25.713L22.4423 24.7112L23.8369 24.3848L24.0599 24.3304H24.0634L26.1528 23.8385L29.6542 23.0124L34.1703 21.9478L45.1798 19.3529L44.453 16.1382H44.4495L44.4506 16.1376ZM7.14383 17.0952L6.17301 19.1281L11.4474 20.3727L12.0767 19.5508L7.14733 17.0952H7.14383ZM3.65985 21.9466H10.2425L10.7387 21.2974L5.92082 20.1599H5.91731L5.70482 20.1085L4.15898 19.745L3.65927 21.9466H3.65985ZM34.2929 23.0112L28.4721 24.3842L26.1603 24.9311H26.1533L25.5532 25.071H25.5491L23.9315 25.4524L20.2741 26.3155H47.1792V23.0118H34.2929V23.0112ZM2.62773 23.0112V24.8983L4.81398 24.3836L7.13566 23.8373L9.16078 23.3603L9.38319 23.0662L9.42639 23.0112H2.62773ZM7.13624 24.9306H7.13332L2.62773 25.9916L1.0422 26.3658L1.4164 28.0251L1.4199 28.0209L2.71063 27.3784L4.85017 26.3144L7.46782 25.0077H7.47133L8.07554 24.7106L7.13624 24.9306ZM5.0831 27.3784L1.6575 29.0855L0.175873 29.822L0.826784 31.1837L1.92779 30.2739L3.15722 29.2571L5.42928 27.3784L5.95059 26.9492L5.08368 27.3784H5.0831ZM22.1626 27.3784L32.8697 29.9033H32.8767L37.3963 30.9679L37.3998 30.9715H37.4068L46.8418 33.1957L47.5715 29.9774L36.5481 27.379H22.1626V27.3784ZM45.7688 39.9999H45.77L47.1903 37.0315L37.0332 31.9739H37.0291L23.0249 28.6749L45.7688 39.9999ZM3.62774 30.238L1.29731 32.164H1.29381L-0.000427246 33.2358L0.812189 34.2639L1.7293 33.0708L2.15312 32.5161V32.5125L3.95524 30.1597L4.36097 29.6313L3.62774 30.2374V30.238Z" fill="#00AAAA"/>
<path d="M150.935 22.949H154.551V26.6688H150.935V22.949ZM147.406 27.9678C147.406 30.3594 144.543 31.9835 140.956 31.9835C138.816 31.9835 137.11 31.6296 135.027 30.8023L135.172 27.6731C136.531 28.4992 138.873 29.0897 140.986 29.0897C142.779 29.0897 143.704 28.4992 143.704 27.5541C143.704 26.6097 142.952 26.2259 141.304 26.2259H137.138L137.544 23.4206H140.87C142.345 23.4206 143.126 22.8599 143.126 22.004C143.126 20.9411 142.027 20.5275 140.58 20.5275C138.874 20.5275 136.675 21.0882 135.229 21.7672V18.638C136.56 17.9589 139.221 17.6045 140.956 17.6045C144.948 17.6045 146.799 19.494 146.799 21.3243C146.799 22.5581 146.001 23.7661 144.427 24.334V24.5163C146.433 25.0806 147.406 26.1852 147.406 27.9672V27.9678ZM112.032 24.7339L117.788 31.5698H113.507L109.919 27.3479L106.507 31.5698H103.73V18.0767H107.143V26.2827L113.478 18.0767H117.411L112.032 24.7339ZM124.296 29.1782C123.081 29.1782 122.3 28.529 122.3 27.4955C122.3 26.4321 123.081 25.9306 124.73 25.9306H128.172C127.687 27.896 126.219 29.1776 124.296 29.1776V29.1782ZM131.267 24.4542C131.267 20.3799 128.635 17.7228 124.528 17.7228C122.677 17.7228 120.362 18.1957 119.553 18.7271V21.7386C120.652 21.1187 122.532 20.705 124.239 20.705C126.104 20.705 127.602 21.7152 128.135 23.2144H125.164C120.681 23.2144 118.656 24.5426 118.656 27.4955C118.656 30.3002 120.739 31.9835 124.21 31.9835C126.106 31.9835 127.824 31.1974 129.09 29.9075L129.965 31.5997H133.205L130.905 26.8541C131.14 26.1022 131.267 25.2958 131.267 24.4542ZM95.3716 28.8237H91.6692V26.0191H95.3716C96.3546 26.0191 96.9623 26.5798 96.9623 27.4065C96.9623 28.3515 96.3546 28.8231 95.3716 28.8231V28.8237ZM94.9956 20.8222C95.9793 20.8222 96.5578 21.2651 96.5578 22.1211C96.5578 22.9771 95.9215 23.4792 94.9956 23.4792H91.6692V20.8216H94.9956V20.8222ZM97.5409 24.3687V24.34C98.8695 24.0423 100.087 22.9263 100.087 21.5311C100.087 19.3463 98.4667 18.0767 95.6611 18.0767H91.6698H90.7445H88.2571V31.5698H90.7445H91.6698H95.7773C98.6407 31.5698 100.666 30.1531 100.666 27.85C100.666 26.0101 99.5222 24.8756 97.542 24.3693L97.5409 24.3687ZM165.196 29.0306C164.184 29.0306 163.122 28.9271 162.043 28.3055V21.4451C163.121 20.8945 164.191 20.6453 165.311 20.6453C167.509 20.6453 168.869 21.9149 168.869 24.7787C168.869 27.6725 167.25 29.0306 165.196 29.0306ZM166.093 17.6045C164.656 17.6045 163.375 17.901 162.043 18.5137V18.0767H158.63V36.5593H162.043V31.0558C163.063 31.6714 164.306 31.9829 165.832 31.9829C169.563 31.9829 172.398 29.0599 172.398 24.7787C172.398 19.8485 169.881 17.6045 166.093 17.6045ZM64.6246 24.7339L70.3807 31.5698H66.0998L62.5119 27.3479L59.0998 31.5698H56.3228V18.0767H59.7361V26.2827L66.0707 18.0767H70.0041L64.6246 24.7339ZM189.088 28.9714C188.322 28.9714 187.526 28.908 186.716 28.5793V21.0768C187.535 20.7421 188.358 20.5861 189.203 20.5861C191.315 20.5861 192.616 21.8557 192.616 24.7202C192.616 27.6133 191.054 28.9714 189.088 28.9714ZM181.22 28.9714C179.253 28.9714 177.691 27.6133 177.691 24.7202C177.691 21.8557 178.993 20.5861 181.104 20.5861C181.95 20.5861 182.772 20.7421 183.592 21.0768V28.5793C182.781 28.9074 181.985 28.9714 181.22 28.9714ZM189.955 17.5453C188.814 17.5453 187.769 17.745 186.716 18.1658V13.0867H183.592V18.1658C182.538 17.745 181.494 17.5453 180.352 17.5453C176.737 17.5453 174.307 19.7893 174.307 24.7202C174.307 29.0007 177.026 31.9237 180.613 31.9237C181.769 31.9237 182.75 31.7318 183.592 31.3516V36.5593H186.716V31.3516C187.559 31.7318 188.539 31.9237 189.695 31.9237C193.281 31.9237 196.001 29.0007 196.001 24.7202C196.001 19.7893 193.571 17.5453 189.956 17.5453H189.955ZM76.8886 29.1489C75.6738 29.1489 74.8927 28.4992 74.8927 27.4656C74.8927 26.4028 75.6738 25.9007 77.3224 25.9007H80.7649C80.2798 27.8661 78.8122 29.1483 76.8886 29.1483V29.1489ZM83.8595 24.4249C83.8595 20.3506 81.2272 17.6935 77.1204 17.6935C75.2692 17.6935 72.9551 18.1658 72.1454 18.6972V21.7093C73.2447 21.0888 75.1244 20.6751 76.8314 20.6751C78.6966 20.6751 80.1951 21.6859 80.7281 23.1851H77.7567C73.2739 23.1851 71.2487 24.5133 71.2487 27.4656C71.2487 30.2709 73.3317 31.9542 76.8022 31.9542C78.6983 31.9542 80.4164 31.1669 81.6832 29.8782L82.5577 31.5698H85.7976L83.4981 26.8248C83.7322 26.0723 83.8595 25.2659 83.8595 24.4249Z" fill="white"/>
</svg>
