<svg width="1263" height="279" viewBox="0 0 1263 279" fill="none" xmlns="http://www.w3.org/2000/svg">
<g clip-path="url(#clip0_11118_346)">
<path d="M18.4219 71.6239C31.1311 60.03 63.9064 48.9858 78.4482 61.1819C91.8169 72.3934 122.222 57.3651 130.062 67.8931C142.329 84.3745 164.77 70.2424 168.469 82.8712C171.506 93.2414 181.84 77.7327 195.861 78.3326C226.653 79.6495 206.656 81.0811 224.937 87.0896C243.749 93.2725 244.048 51.175 254.759 52.9771C264.589 54.6309 249.603 78.3302 263.641 78.3302C282.858 78.3302 287.112 103.375 318.193 97.0391C324.706 95.7103 321.38 73.1248 345.16 90.0699C350.784 94.0803 362.26 83.2464 348.696 74.0473C348.395 73.8442 333.908 46.6746 357.642 58.878C374.571 74.0832 368.318 42.191 409.15 40.2359C422.22 39.6098 440.262 17.8177 438.907 52.2314C438.317 67.2167 471.253 40.3005 472.457 40.3005C486.506 40.3005 466.256 52.468 499.359 57.389C572.486 68.2611 480.813 78.5596 517.487 98.7241C529.819 105.505 536.151 103.92 554.401 115.877C565.34 123.042 606.464 100.834 612.126 109.462C617.206 117.201 639.951 99.1734 658.285 110.954C663.823 114.512 682.635 102.919 699.098 103.688C707.755 104.092 702.835 98.0238 722.956 100.022C729.051 100.629 738.951 97.1467 753.524 97.7203C756.627 97.8422 758.673 75.7705 777.19 88.9633C788.313 96.8862 779.26 66.7315 815.404 86.0451C821.411 89.2549 841.69 97.1658 847.463 94.9288C849.133 94.2811 879.287 91.5899 880.14 91.8815C881.048 96.2815 909.565 102.737 921.527 121.455C925.483 127.643 953.927 132.753 966.196 124.01C974.449 118.131 988.594 128.284 970.968 110.65C964.161 103.843 1000.89 101.418 1000.3 93.9895C1005.78 90.7367 1012.79 98.8795 1018.23 102.438C1028.9 109.434 1026.27 98.215 1034.16 118.227C1039.16 130.922 1048.5 126.972 1059.66 126.46C1082.68 125.411 1083.12 148.933 1119.58 134.727C1120.96 134.192 1130.54 144.435 1139 146.158C1149.53 148.305 1121.2 163.34 1145.68 160.326C1155.83 159.076 1150.21 167.14 1164.35 160.197C1174.07 155.425 1176.74 155.523 1187.46 154.731C1208.93 153.152 1195.49 135.908 1211.48 142.736C1213.04 143.4 1218.4 133.138 1232.69 133.138C1237.56 133.138 1246.71 134.115 1248.57 139.476" stroke="#FFB300" stroke-width="4.00018" stroke-miterlimit="22.9256"/>
<path d="M8.76159 93.1794C11.4258 95.089 13.9991 95.3853 17.3538 95.3853C18.7779 95.3853 22.0872 95.3423 25.5781 93.0097C27.3702 91.8219 31.1383 88.3468 31.2745 81.944C31.3652 78.2132 30.8611 76.772 30.5863 76.0932C30.0798 74.8648 29.3462 73.2515 28.4717 72.0661C27.9651 71.3873 26.1755 69.2674 23.2795 67.9529C22.178 67.4438 19.9702 66.5117 16.8473 66.5117C14.7351 66.5117 11.0578 67.3171 9.03637 68.6317C8.52981 68.971 7.61229 69.6498 6.41759 71.0503C5.1775 72.4915 3.88961 74.4418 3.34005 76.0956C3.06527 76.9011 2.42014 79.2743 2.42014 80.9712C2.42014 81.7336 2.7881 84.7857 2.97209 85.5935C3.34005 87.3741 4.12138 88.4758 5.03891 89.7927C6.23361 91.5303 6.3698 91.4896 7.5191 92.2951L8.7592 93.1865L8.76159 93.1794Z" fill="#1E2020"/>
<path d="M208.462 62.7905C211.129 64.7001 213.7 64.9964 217.055 64.9964C218.479 64.9964 221.788 64.9534 225.279 62.6208C227.071 61.4329 230.839 57.9579 230.978 51.5551C231.068 47.8243 230.564 46.3831 230.287 45.7043C229.781 44.4759 229.047 42.8626 228.175 41.6772C227.668 41.0008 225.879 38.8785 222.983 37.5664C221.881 37.0573 219.673 36.1228 216.55 36.1228C214.438 36.1228 210.761 36.9282 208.74 38.2427C208.233 38.5821 207.315 39.2609 206.121 40.6614C204.881 42.1026 203.593 44.0528 203.043 45.7067C202.768 46.5145 202.123 48.8878 202.123 50.5823C202.123 51.3471 202.491 54.3992 202.675 55.2046C203.043 56.9851 203.825 58.0893 204.742 59.4014C205.937 61.1414 206.073 61.0983 207.222 61.9038L208.462 62.7952V62.7905Z" fill="#1E2020"/>
<path d="M500.384 71.1291C503.049 73.0387 505.622 73.3351 508.977 73.3351C510.401 73.3351 513.71 73.292 517.201 70.9594C518.993 69.7716 522.761 66.2965 522.897 59.8937C522.99 56.1629 522.484 54.7217 522.209 54.0429C521.703 52.8121 520.969 51.2036 520.095 50.0158C519.588 49.3394 517.798 47.2195 514.902 45.9026C513.801 45.3935 511.593 44.4614 508.47 44.4614C506.356 44.4614 502.681 45.2669 500.659 46.5814C500.153 46.9207 499.235 47.5971 498.04 48.9977C496.8 50.4388 495.512 52.3891 494.963 54.0429C494.688 54.8484 494.043 57.224 494.043 58.9209C494.043 59.6834 494.411 62.7354 494.593 63.5432C494.961 65.3238 495.742 66.4256 496.659 67.7401C497.854 69.4776 497.993 69.437 499.142 70.2424L500.382 71.1339L500.384 71.1291Z" fill="#1E2020"/>
<path d="M708.345 78.0793C711.009 79.9865 713.583 80.2829 716.937 80.2829C718.361 80.2829 721.671 80.2398 725.162 77.9096C726.954 76.7218 730.722 73.2467 730.858 66.8439C730.949 63.1131 730.445 61.6719 730.17 60.9931C729.663 59.7623 728.93 58.1538 728.055 56.966C727.549 56.2872 725.759 54.1673 722.863 52.8528C721.761 52.3437 719.554 51.4116 716.431 51.4116C714.318 51.4116 710.641 52.2147 708.62 53.5316C708.113 53.8709 707.196 54.5473 706.001 55.9455C704.761 57.389 703.473 59.3369 702.924 60.9908C702.649 61.7962 702.006 64.1718 702.006 65.8664C702.006 66.6288 702.374 69.6808 702.556 70.4886C702.924 72.2692 703.705 73.371 704.622 74.6855C705.817 76.4254 705.956 76.3824 707.103 77.1878L708.343 78.0793H708.345Z" fill="#1E2020"/>
<path d="M1240.47 151.72C1243.13 153.627 1245.71 153.924 1249.06 153.924C1250.48 153.924 1253.79 153.883 1257.28 151.55C1259.08 150.363 1262.84 146.887 1262.98 140.485C1263.07 136.754 1262.57 135.313 1262.29 134.634C1261.79 133.403 1261.05 131.795 1260.18 130.607C1259.67 129.928 1257.88 127.808 1254.99 126.494C1253.89 125.987 1251.68 125.052 1248.56 125.052C1246.44 125.052 1242.77 125.855 1240.74 127.172C1240.24 127.512 1239.32 128.188 1238.13 129.589C1236.89 131.03 1235.6 132.98 1235.05 134.634C1234.77 135.439 1234.13 137.815 1234.13 139.509C1234.13 140.272 1234.5 143.324 1234.68 144.132C1235.05 145.912 1235.83 147.014 1236.75 148.329C1237.94 150.066 1238.08 150.023 1239.23 150.829L1240.47 151.72Z" fill="#1E2020"/>
<path d="M12.3289 119.821C10.9718 119.821 9.75556 120.069 8.68034 120.569C7.60511 121.068 6.68997 121.797 5.93492 122.758C5.17987 123.719 4.60403 124.885 4.20739 126.255C3.81075 127.624 3.61243 129.168 3.61243 130.884C3.61243 133.138 3.93261 135.098 4.57297 136.763C5.21333 138.427 6.18103 139.71 7.47369 140.604C8.76635 141.5 10.3744 141.95 12.2955 141.95C13.4209 141.95 14.4913 141.847 15.5021 141.641C16.5128 141.438 17.5187 141.18 18.5175 140.874V143.871C17.545 144.256 16.5462 144.536 15.5236 144.717C14.4985 144.897 13.2704 144.985 11.8367 144.985C9.19883 144.985 7.00298 144.409 5.24917 143.257C3.49535 142.105 2.18357 140.466 1.31144 138.341C0.441705 136.214 0.00683594 133.719 0.00683594 130.848C0.00683594 128.774 0.274448 126.876 0.814451 125.162C1.35206 123.446 2.14534 121.96 3.19668 120.705C4.24562 119.448 5.53828 118.482 7.07466 117.804C8.61104 117.125 10.3792 116.785 12.3743 116.785C13.6813 116.785 14.9477 116.926 16.1759 117.208C17.4064 117.488 18.5175 117.885 19.5186 118.399L18.1734 121.319C17.3801 120.934 16.4913 120.59 15.5044 120.282C14.52 119.976 13.4639 119.821 12.3361 119.821H12.3289Z" fill="#1E2020"/>
<path d="M40.5978 134.266C40.5978 135.982 40.3876 137.499 39.9647 138.819C39.5417 140.138 38.9348 141.259 38.1392 142.181C37.3459 143.104 36.3853 143.802 35.2576 144.275C34.1298 144.751 32.8753 144.987 31.4919 144.987C30.2112 144.987 29.0284 144.751 27.9388 144.275C26.8517 143.802 25.9031 143.104 25.0978 142.181C24.2902 141.259 23.669 140.138 23.2341 138.819C22.7993 137.499 22.5818 135.982 22.5818 134.266C22.5818 131.986 22.9474 130.059 23.6762 128.482C24.4073 126.907 25.4491 125.705 26.8063 124.871C28.1634 124.039 29.7643 123.623 31.6066 123.623C33.3747 123.623 34.9302 124.039 36.273 124.871C37.6159 125.705 38.6744 126.907 39.4414 128.482C40.2108 130.057 40.5931 131.986 40.5931 134.266H40.5978ZM26.0417 134.266C26.0417 135.879 26.2352 137.282 26.6175 138.472C27.0022 139.662 27.6019 140.578 28.4239 141.221C29.2434 141.859 30.2924 142.181 31.5731 142.181C32.8538 142.181 33.9028 141.861 34.7223 141.221C35.5419 140.58 36.1512 139.662 36.5478 138.472C36.9445 137.282 37.1428 135.879 37.1428 134.266C37.1428 132.626 36.9445 131.23 36.5478 130.078C36.1512 128.926 35.5419 128.035 34.7223 127.406C33.9028 126.78 32.8395 126.467 31.5349 126.467C29.6138 126.467 28.2184 127.158 27.3487 128.542C26.4789 129.925 26.044 131.833 26.044 134.266H26.0417Z" fill="#1E2020"/>
<path d="M48.1651 131.501C48.1651 132.705 48.4733 133.594 49.0874 134.17C49.7015 134.746 50.5975 135.035 51.7754 135.035C52.9797 135.035 54.0669 134.837 55.0417 134.44C56.0142 134.044 57.013 133.513 58.038 132.846V124.01H61.3808V144.603H58.038V135.42C56.9867 136.163 55.9306 136.744 54.8697 137.167C53.8064 137.59 52.5592 137.801 51.1255 137.801C49.128 137.801 47.5797 137.249 46.4782 136.149C45.3766 135.047 44.8271 133.575 44.8271 131.73V124.008H48.1699V131.498L48.1651 131.501Z" fill="#1E2020"/>
<path d="M70.5994 136.572C70.5994 136.802 70.5922 137.129 70.5803 137.552C70.5684 137.975 70.5492 138.424 70.523 138.898C70.4967 139.373 70.4728 139.82 70.4465 140.241C70.4202 140.664 70.3963 141.003 70.37 141.259L80.6635 124.008H84.7351V144.6H81.6241V132.459C81.6241 132.048 81.6312 131.51 81.6432 130.846C81.6551 130.179 81.6766 129.519 81.7005 128.867C81.7268 128.214 81.7507 127.722 81.777 127.387L71.5982 144.6H67.4502V124.008H70.5994V136.57V136.572Z" fill="#1E2020"/>
<path d="M213.571 16.0706L211.824 11.1185H205.887L204.161 16.0706H202.123L207.949 0.000244141H209.831L215.633 16.0706H213.573H213.571ZM209.583 4.48389C209.552 4.36439 209.49 4.1469 209.392 3.83381C209.294 3.52072 209.198 3.19568 209.1 2.86108C209.002 2.52409 208.926 2.26597 208.866 2.08672C208.761 2.54799 208.646 3.00209 208.52 3.44185C208.393 3.88161 208.286 4.22816 208.195 4.48389L206.537 9.32365H211.241L209.583 4.48389Z" fill="#1E2020"/>
<path d="M222.868 3.83374C224.257 3.83374 225.375 4.34998 226.218 5.38007C227.062 6.41255 227.485 7.96367 227.485 10.0406C227.485 11.4005 227.291 12.5477 226.902 13.4822C226.512 14.4167 225.972 15.1193 225.277 15.5878C224.584 16.0586 223.771 16.2952 222.847 16.2952C222.264 16.2952 221.752 16.2116 221.31 16.049C220.871 15.8841 220.493 15.6714 220.178 15.4109C219.865 15.1504 219.595 14.8612 219.37 14.5481H219.236C219.267 14.8039 219.296 15.1241 219.327 15.5137C219.358 15.9033 219.373 16.2379 219.373 16.5223V21.4528H217.423V4.06079H219.014L219.282 5.69794H219.373C219.597 5.35378 219.865 5.04069 220.18 4.75867C220.493 4.47426 220.871 4.2496 221.313 4.08469C221.755 3.91978 222.273 3.83852 222.871 3.83852L222.868 3.83374ZM222.488 5.4924C221.74 5.4924 221.141 5.64536 220.684 5.95367C220.228 6.25959 219.896 6.71847 219.688 7.33031C219.478 7.94455 219.375 8.71891 219.375 9.66296V10.043C219.375 11.03 219.468 11.8665 219.655 12.5549C219.841 13.2408 220.166 13.7642 220.629 14.1251C221.093 14.4836 221.726 14.6628 222.534 14.6628C223.205 14.6628 223.76 14.4621 224.192 14.0582C224.627 13.6543 224.947 13.107 225.155 12.4115C225.365 11.7184 225.468 10.9201 225.468 10.0238C225.468 8.6496 225.224 7.55258 224.739 6.73042C224.254 5.90826 223.504 5.49718 222.488 5.49718V5.4924Z" fill="#1E2020"/>
<path d="M232.636 9.92839L228.739 4.05615H230.956L233.826 8.58521L236.648 4.05615H238.865L234.968 9.92839L239.068 16.0707H236.851L233.826 11.274L230.755 16.0707H228.56L232.636 9.92839Z" fill="#1E2020"/>
<path d="M241.197 16.0707V4.05615H243.147V8.98673H245.971C246.972 8.98673 247.794 9.1134 248.434 9.36674C249.077 9.62008 249.555 9.9977 249.868 10.4996C250.181 10.9991 250.339 11.6325 250.339 12.3925C250.339 13.1406 250.186 13.7906 249.88 14.3427C249.574 14.8948 249.096 15.3202 248.446 15.619C247.797 15.9177 246.948 16.0683 245.904 16.0683H241.199L241.197 16.0707ZM245.723 14.479C246.516 14.479 247.156 14.3308 247.651 14.0416C248.143 13.75 248.389 13.2385 248.389 12.5072C248.389 11.7735 248.162 11.2787 247.706 11.0158C247.249 10.7529 246.597 10.6239 245.746 10.6239H243.147V14.479H245.723ZM252.198 16.0707V4.05615H254.148V16.0707H252.198Z" fill="#1E2020"/>
<path d="M260.757 3.83381C261.607 3.83381 262.355 3.95809 262.998 4.20426C263.641 4.45043 264.138 4.80893 264.489 5.27976C264.84 5.7482 265.017 6.3218 265.017 6.9934C265.017 7.72713 264.826 8.30551 264.446 8.73093C264.066 9.15635 263.545 9.46705 262.888 9.66064V9.74907C263.337 9.8853 263.751 10.0717 264.13 10.3107C264.51 10.5473 264.819 10.8628 265.05 11.2524C265.282 11.642 265.397 12.1415 265.397 12.7533C265.397 13.4106 265.225 14.0081 264.881 14.5458C264.537 15.0836 264.001 15.5114 263.277 15.8245C262.553 16.1375 261.631 16.2953 260.511 16.2953C259.973 16.2953 259.462 16.2642 258.977 16.2045C258.491 16.1447 258.049 16.0563 257.655 15.9368C257.259 15.8173 256.912 15.6763 256.613 15.5114V13.7404C257.091 13.9794 257.658 14.1969 258.315 14.3905C258.972 14.584 259.689 14.682 260.465 14.682C261.301 14.682 262.011 14.5291 262.594 14.2208C263.177 13.9148 263.469 13.3867 263.469 12.641C263.469 11.955 263.203 11.446 262.673 11.1185C262.142 10.7887 261.332 10.6238 260.243 10.6238H258.764V9.01056H259.975C260.945 9.01056 261.722 8.87194 262.305 8.5947C262.888 8.31985 263.179 7.84424 263.179 7.17265C263.179 6.60382 262.96 6.18079 262.518 5.89399C262.078 5.60958 261.447 5.46857 260.625 5.46857C260.014 5.46857 259.464 5.53071 258.979 5.65738C258.494 5.78405 257.975 5.97525 257.421 6.22859L256.728 4.66075C257.34 4.37634 257.983 4.16602 258.656 4.03218C259.328 3.89834 260.03 3.83142 260.761 3.83142L260.757 3.83381Z" fill="#1E2020"/>
<path d="M494.043 24.8133V8.80981H503.027V10.5808H496.038V15.5783H498.188C499.696 15.5783 500.864 15.7767 501.694 16.1734C502.523 16.5702 503.106 17.1079 503.44 17.7867C503.777 18.4654 503.944 19.247 503.944 20.1289C503.944 21.0992 503.76 21.9381 503.395 22.6408C503.029 23.3434 502.441 23.8812 501.636 24.254C500.829 24.6269 499.761 24.8133 498.432 24.8133H494.04H494.043ZM498.255 23.0877C499.584 23.0877 500.523 22.8439 501.068 22.3587C501.612 21.8712 501.885 21.1303 501.885 20.1289C501.885 19.4429 501.753 18.8932 501.493 18.4822C501.232 18.0711 500.809 17.7771 500.226 17.5979C499.643 17.4162 498.881 17.3278 497.94 17.3278H496.035V23.0877H498.253H498.255Z" fill="#1E2020"/>
<path d="M511.185 12.5764C512.155 12.5764 512.991 12.8011 513.693 13.2504C514.396 13.6973 514.936 14.3283 515.318 15.1457C515.698 15.9583 515.889 16.9119 515.889 18.0017V19.1896H508.181C508.212 20.5495 508.532 21.5819 509.144 22.2918C509.756 23.0016 510.616 23.3553 511.72 23.3553C512.437 23.3553 513.075 23.2836 513.636 23.1426C514.195 23.0016 514.776 22.7961 515.373 22.526V24.254C514.79 24.5217 514.219 24.72 513.66 24.8467C513.098 24.9734 512.422 25.0379 511.631 25.0379C510.556 25.0379 509.608 24.8061 508.786 24.3424C507.964 23.8787 507.321 23.188 506.857 22.2679C506.394 21.3501 506.162 20.2244 506.162 18.8956C506.162 17.5787 506.372 16.453 506.79 15.5113C507.209 14.5721 507.794 13.8455 508.549 13.3388C509.304 12.8321 510.181 12.5764 511.182 12.5764H511.185ZM511.185 14.1897C510.317 14.1897 509.631 14.4908 509.123 15.0979C508.614 15.7025 508.315 16.5438 508.227 17.6193H513.873C513.873 16.9334 513.775 16.3335 513.581 15.8268C513.388 15.3201 513.091 14.9186 512.697 14.6294C512.3 14.3378 511.796 14.1921 511.185 14.1921V14.1897Z" fill="#1E2020"/>
<path d="M521.781 12.5764C522.632 12.5764 523.38 12.7007 524.022 12.9469C524.665 13.193 525.162 13.5515 525.513 14.0224C525.865 14.4908 526.041 15.0644 526.041 15.736C526.041 16.4673 525.85 17.0481 525.47 17.4735C525.09 17.899 524.57 18.2097 523.912 18.4032V18.4917C524.362 18.6279 524.775 18.8143 525.155 19.0533C525.535 19.2923 525.843 19.6054 526.075 19.995C526.307 20.3846 526.421 20.8841 526.421 21.4959C526.421 22.1532 526.249 22.7507 525.905 23.2884C525.561 23.8262 525.026 24.254 524.302 24.5671C523.578 24.8802 522.656 25.0379 521.535 25.0379C520.997 25.0379 520.486 25.0068 520.001 24.9471C519.516 24.8873 519.074 24.7989 518.68 24.6794C518.283 24.5599 517.937 24.4189 517.638 24.254V22.483C518.116 22.722 518.682 22.9395 519.339 23.1331C519.996 23.329 520.713 23.4246 521.49 23.4246C522.326 23.4246 523.036 23.2717 523.619 22.9658C524.202 22.6574 524.493 22.1317 524.493 21.386C524.493 20.7 524.228 20.191 523.697 19.8611C523.167 19.5313 522.357 19.3664 521.267 19.3664H519.788V17.7532H521C521.97 17.7532 522.746 17.6145 523.329 17.3397C523.912 17.0648 524.204 16.5892 524.204 15.9176C524.204 15.3488 523.984 14.9258 523.542 14.6414C523.102 14.357 522.472 14.216 521.65 14.216C521.038 14.216 520.488 14.2805 520.003 14.4072C519.518 14.5338 519 14.725 518.446 14.9784L517.753 13.4105C518.364 13.1285 519.007 12.9158 519.681 12.7843C520.352 12.6481 521.055 12.5812 521.786 12.5812L521.781 12.5764Z" fill="#1E2020"/>
<path d="M533.523 12.5764C534.493 12.5764 535.329 12.8011 536.031 13.2504C536.734 13.6973 537.274 14.3283 537.656 15.1457C538.036 15.9583 538.227 16.9119 538.227 18.0017V19.1896H530.519C530.55 20.5495 530.87 21.5819 531.482 22.2918C532.094 23.0016 532.954 23.3553 534.058 23.3553C534.775 23.3553 535.413 23.2836 535.974 23.1426C536.533 23.0016 537.114 22.7961 537.711 22.526V24.254C537.128 24.5217 536.557 24.72 535.998 24.8467C535.437 24.9734 534.76 25.0379 533.969 25.0379C532.894 25.0379 531.946 24.8061 531.124 24.3424C530.302 23.8787 529.659 23.188 529.195 22.2679C528.732 21.3501 528.5 20.2244 528.5 18.8956C528.5 17.5787 528.71 16.453 529.129 15.5113C529.547 14.5721 530.132 13.8455 530.887 13.3388C531.642 12.8321 532.519 12.5764 533.52 12.5764H533.523ZM533.523 14.1897C532.655 14.1897 531.969 14.4908 531.461 15.0979C530.952 15.7025 530.653 16.5438 530.565 17.6193H536.211C536.211 16.9334 536.113 16.3335 535.919 15.8268C535.726 15.3201 535.429 14.9186 535.035 14.6294C534.638 14.3378 534.134 14.1921 533.523 14.1921V14.1897Z" fill="#1E2020"/>
<path d="M542.999 12.7987V17.7986H549.003V12.7987H550.953V24.8133H549.003V19.4573H542.999V24.8133H541.049V12.7987H542.999Z" fill="#1E2020"/>
<path d="M561.462 12.7987V14.4574H556.442V24.8133H554.492V12.7987H561.462Z" fill="#1E2020"/>
<path d="M565.516 20.1288C565.516 20.265 565.511 20.4538 565.504 20.7024C565.497 20.9485 565.485 21.2091 565.471 21.4863C565.456 21.7635 565.44 22.024 565.425 22.2702C565.411 22.5164 565.394 22.7148 565.38 22.8653L571.385 12.801H573.76V24.8156H571.946V17.734C571.946 17.495 571.951 17.1819 571.958 16.7947C571.965 16.4051 571.977 16.0204 571.991 15.6403C572.006 15.2579 572.022 14.9711 572.037 14.7752L566.099 24.8156H563.679V12.801H565.516V20.1288Z" fill="#1E2020"/>
<path d="M706.329 16.0706C707.583 16.0706 708.637 16.1973 709.488 16.4506C710.338 16.7064 710.981 17.1222 711.416 17.7054C711.848 18.2886 712.066 19.0653 712.066 20.038C712.066 20.6642 711.956 21.2235 711.741 21.7063C711.523 22.1938 711.205 22.5953 710.787 22.918C710.369 23.2382 709.853 23.4581 709.241 23.5776V23.69C709.87 23.7951 710.434 23.9911 710.933 24.2731C711.432 24.5551 711.829 24.9614 712.121 25.4825C712.412 26.0059 712.558 26.6846 712.558 27.5235C712.558 28.4939 712.345 29.3184 711.92 29.9996C711.495 30.6783 710.892 31.1946 710.116 31.5459C709.339 31.8972 708.405 32.0717 707.316 32.0717H702.004V16.0682H706.329V16.0706ZM706.709 22.8845C707.963 22.8845 708.826 22.6646 709.296 22.2249C709.767 21.7827 710.001 21.1303 710.001 20.2627C710.001 19.3808 709.715 18.7498 709.139 18.3698C708.563 17.9874 707.657 17.7986 706.417 17.7986H703.997V22.8845H706.709ZM703.997 24.5671V30.37H706.955C708.255 30.37 709.163 30.0952 709.676 29.5407C710.192 28.9862 710.45 28.262 710.45 27.3658C710.45 26.7994 710.333 26.3046 710.104 25.8864C709.872 25.4681 709.495 25.1431 708.971 24.9136C708.448 24.6818 707.731 24.5671 706.821 24.5671H703.999H703.997Z" fill="#1E2020"/>
<path d="M724.208 32.0741H722.237V21.6967H718.944C718.811 23.5944 718.636 25.2124 718.419 26.5484C718.201 27.8868 717.934 28.9743 717.611 29.8084C717.291 30.6449 716.906 31.2567 716.457 31.6463C716.008 32.0359 715.48 32.2295 714.866 32.2295C714.672 32.2295 714.481 32.2175 714.295 32.196C714.108 32.1745 713.955 32.1315 713.836 32.0741V30.5947C713.927 30.6258 714.022 30.6473 714.127 30.6616C714.232 30.676 714.338 30.6831 714.44 30.6831C714.739 30.6831 715.011 30.5493 715.257 30.2792C715.504 30.0115 715.728 29.6005 715.929 29.046C716.13 28.4939 716.314 27.796 716.478 26.95C716.643 26.1063 716.789 25.1096 716.916 23.9577C717.042 22.8081 717.157 21.5079 717.262 20.0596H724.208V32.0717V32.0741Z" fill="#1E2020"/>
<path d="M732.072 19.8588C733.446 19.8588 734.473 20.1814 735.152 20.8243C735.83 21.4672 736.172 22.4878 736.172 23.8931V32.0741H734.76L734.38 30.37H734.289C733.962 30.805 733.63 31.1659 733.293 31.4575C732.956 31.749 732.569 31.9617 732.127 32.098C731.685 32.2318 731.145 32.2987 730.502 32.2987C729.831 32.2987 729.226 32.1721 728.688 31.9187C728.151 31.6654 727.726 31.271 727.41 30.7428C727.097 30.2123 726.939 29.5431 726.939 28.7352C726.939 27.5402 727.379 26.6177 728.261 25.9676C729.142 25.3175 730.502 24.9638 732.339 24.9041L734.244 24.8371V24.1201C734.244 23.1211 734.045 22.4232 733.651 22.0361C733.255 21.6465 732.691 21.4529 731.96 21.4529C731.377 21.4529 730.82 21.5461 730.292 21.7325C729.761 21.9189 729.257 22.1317 728.779 22.3707L728.175 20.8912C728.684 20.6068 729.271 20.3654 729.945 20.1623C730.617 19.9615 731.326 19.8612 732.074 19.8612L732.072 19.8588ZM732.609 26.2688C731.236 26.3285 730.282 26.5675 729.754 26.9858C729.224 27.404 728.958 27.9943 728.958 28.7544C728.958 29.4283 729.145 29.9207 729.52 30.2338C729.893 30.5469 730.378 30.7046 730.975 30.7046C731.9 30.7046 732.679 30.4226 733.305 29.8633C733.931 29.3017 734.246 28.4413 734.246 27.2749V26.1994L732.609 26.2664V26.2688Z" fill="#1E2020"/>
<path d="M748.181 20.062V30.4155H749.818V36.2423H747.959V32.0742H740.117V36.2423H738.258V30.4155H739.175C739.818 29.4595 740.349 28.4175 740.767 27.2894C741.185 26.1613 741.503 24.9806 741.718 23.7474C741.935 22.5142 742.05 21.2857 742.064 20.062H748.181ZM743.789 21.6083C743.73 22.6241 743.584 23.6733 743.352 24.756C743.12 25.841 742.822 26.8735 742.456 27.8606C742.09 28.8453 741.667 29.6985 741.19 30.4155H746.274V21.6083H743.787H743.789Z" fill="#1E2020"/>
<path d="M753.829 27.3898C753.829 27.526 753.825 27.7148 753.817 27.961C753.81 28.2071 753.798 28.47 753.784 28.7449C753.77 29.0221 753.753 29.2826 753.739 29.5288C753.724 29.775 753.708 29.9734 753.693 30.1239L759.698 20.062H762.073V32.0742H760.259V24.9926C760.259 24.7536 760.264 24.4405 760.271 24.0533C760.278 23.6637 760.29 23.279 760.305 22.8989C760.319 22.5189 760.336 22.2321 760.35 22.0362L754.412 32.0766H751.992V20.0644H753.829V27.3922V27.3898Z" fill="#1E2020"/>
<path d="M772.381 20.062H774.51L769.714 25.841L774.911 32.0742H772.649L767.585 25.9773V32.0742H765.636V20.062H767.585V25.8864L772.381 20.062Z" fill="#1E2020"/>
<path d="M781.231 19.8588C782.605 19.8588 783.632 20.1814 784.311 20.8243C784.99 21.4672 785.331 22.4878 785.331 23.8931V32.0741H783.919L783.539 30.37H783.448C783.121 30.805 782.789 31.1659 782.452 31.4575C782.115 31.749 781.728 31.9617 781.286 32.098C780.844 32.2318 780.304 32.2987 779.661 32.2987C778.99 32.2987 778.385 32.1721 777.848 31.9187C777.31 31.6654 776.885 31.271 776.569 30.7428C776.256 30.2123 776.099 29.5431 776.099 28.7352C776.099 27.5402 776.538 26.6177 777.42 25.9676C778.302 25.3175 779.661 24.9638 781.499 24.9041L783.403 24.8371V24.1201C783.403 23.1211 783.205 22.4232 782.81 22.0361C782.414 21.6465 781.85 21.4529 781.119 21.4529C780.536 21.4529 779.979 21.5461 779.451 21.7325C778.92 21.9189 778.416 22.1317 777.938 22.3707L777.334 20.8912C777.843 20.6068 778.431 20.3654 779.104 20.1623C779.776 19.9615 780.486 19.8612 781.233 19.8612L781.231 19.8588ZM781.769 26.2688C780.395 26.3285 779.441 26.5675 778.913 26.9858C778.383 27.404 778.118 27.9943 778.118 28.7544C778.118 29.4283 778.304 29.9207 778.679 30.2338C779.052 30.5469 779.537 30.7046 780.134 30.7046C781.059 30.7046 781.838 30.4226 782.464 29.8633C783.09 29.3017 783.405 28.4413 783.405 27.2749V26.1994L781.769 26.2664V26.2688Z" fill="#1E2020"/>
<path d="M797.968 23.0854C797.968 23.8334 797.758 24.4142 797.34 24.8348C796.922 25.2531 796.377 25.5375 795.706 25.6857V25.7741C796.408 25.8793 797.02 26.1446 797.543 26.57C798.066 26.9954 798.327 27.6574 798.327 28.5537C798.327 29.0628 798.241 29.5336 798.069 29.9662C797.897 30.3988 797.624 30.774 797.249 31.0871C796.877 31.4002 796.399 31.644 795.816 31.816C795.233 31.9881 794.53 32.0742 793.711 32.0742H788.803V20.062H793.687C794.509 20.062 795.24 20.1552 795.882 20.3416C796.525 20.5281 797.032 20.8412 797.407 21.2833C797.78 21.7255 797.968 22.3253 797.968 23.0878V23.0854ZM796.31 28.5537C796.31 27.8678 796.069 27.373 795.581 27.0743C795.096 26.7755 794.389 26.625 793.464 26.625H790.752V30.48H793.51C794.406 30.48 795.096 30.3319 795.581 30.0427C796.066 29.7511 796.31 29.254 796.31 28.5513V28.5537ZM795.997 23.3315C795.997 22.7651 795.806 22.3492 795.426 22.0887C795.046 21.8282 794.437 21.6968 793.601 21.6968H790.755V24.9902H793.242C794.153 24.9902 794.841 24.8564 795.304 24.5863C795.768 24.3186 796 23.9004 796 23.3291L795.997 23.3315Z" fill="#1E2020"/>
<path d="M807.759 20.062H809.887L805.092 25.841L810.291 32.0742H808.029L802.965 25.9773V32.0742H801.016V20.062H802.965V25.8864L807.759 20.062Z" fill="#1E2020"/>
<path d="M816.608 19.8588C817.982 19.8588 819.009 20.1814 819.688 20.8243C820.367 21.4672 820.708 22.4878 820.708 23.8931V32.0741H819.296L818.916 30.37H818.825C818.498 30.805 818.166 31.1659 817.829 31.4575C817.492 31.749 817.105 31.9617 816.663 32.098C816.221 32.2318 815.681 32.2987 815.038 32.2987C814.367 32.2987 813.762 32.1721 813.225 31.9187C812.687 31.6654 812.262 31.271 811.946 30.7428C811.633 30.2123 811.476 29.5431 811.476 28.7352C811.476 27.5402 811.915 26.6177 812.797 25.9676C813.679 25.3175 815.038 24.9638 816.876 24.9041L818.78 24.8371V24.1201C818.78 23.1211 818.582 22.4232 818.187 22.0361C817.791 21.6465 817.227 21.4529 816.496 21.4529C815.913 21.4529 815.356 21.5461 814.828 21.7325C814.297 21.9189 813.793 22.1317 813.315 22.3707L812.711 20.8912C813.22 20.6068 813.808 20.3654 814.481 20.1623C815.153 19.9615 815.863 19.8612 816.61 19.8612L816.608 19.8588ZM817.146 26.2688C815.772 26.3285 814.818 26.5675 814.29 26.9858C813.76 27.404 813.495 27.9943 813.495 28.7544C813.495 29.4283 813.681 29.9207 814.056 30.2338C814.429 30.5469 814.914 30.7046 815.511 30.7046C816.436 30.7046 817.215 30.4226 817.841 29.8633C818.467 29.3017 818.782 28.4413 818.782 27.2749V26.1994L817.146 26.2664V26.2688Z" fill="#1E2020"/>
<path d="M827.254 19.835C828.104 19.835 828.852 19.9592 829.495 20.2054C830.138 20.4516 830.635 20.8101 830.986 21.2809C831.337 21.7517 831.514 22.323 831.514 22.9969C831.514 23.7283 831.323 24.309 830.943 24.7321C830.563 25.1575 830.042 25.4682 829.385 25.6642V25.7526C829.834 25.8864 830.247 26.0753 830.627 26.3143C831.007 26.5533 831.315 26.8687 831.547 27.2559C831.779 27.6431 831.894 28.145 831.894 28.7568C831.894 29.4141 831.722 30.014 831.378 30.5517C831.034 31.0895 830.498 31.5149 829.774 31.828C829.05 32.1411 828.128 32.2988 827.007 32.2988C826.47 32.2988 825.958 32.2701 825.473 32.208C824.988 32.1483 824.546 32.0598 824.152 31.9403C823.755 31.8208 823.409 31.6798 823.11 31.5149V29.7439C823.588 29.9805 824.154 30.2004 824.812 30.394C825.469 30.59 826.185 30.6856 826.962 30.6856C827.798 30.6856 828.508 30.5326 829.091 30.2267C829.674 29.9208 829.966 29.3926 829.966 28.6469C829.966 27.961 829.7 27.4519 829.17 27.1221C828.639 26.7923 827.829 26.6274 826.74 26.6274H825.261V25.0141H826.472C827.442 25.0141 828.219 24.8755 828.802 24.6006C829.385 24.3234 829.676 23.8502 829.676 23.1762C829.676 22.6098 829.457 22.1843 829.015 21.8999C828.575 21.6155 827.944 21.4745 827.122 21.4745C826.51 21.4745 825.961 21.539 825.476 21.6657C824.991 21.7924 824.472 21.9836 823.918 22.2369L823.225 20.6667C823.837 20.3823 824.479 20.172 825.153 20.0405C825.825 19.9043 826.527 19.8374 827.258 19.8374L827.254 19.835Z" fill="#1E2020"/>
<path d="M1134.4 195.18V219.539H1137.71V229.835H1134.44V222.612H1116.81V229.835H1113.55V219.539H1115.55C1116.39 217.952 1117.2 216.171 1117.97 214.2C1118.74 212.228 1119.42 210.158 1120.02 207.995C1120.62 205.83 1121.12 203.66 1121.5 201.482C1121.88 199.305 1122.13 197.207 1122.23 195.182H1134.4V195.18ZM1125.22 198.292C1125.12 199.778 1124.89 201.456 1124.52 203.325C1124.14 205.196 1123.68 207.111 1123.13 209.071C1122.58 211.03 1121.97 212.919 1121.29 214.737C1120.61 216.556 1119.9 218.155 1119.16 219.539H1131.02V198.292H1125.22H1125.22Z" fill="#1E2020"/>
<path d="M1149.08 201.635C1150.74 201.635 1152.17 202.02 1153.38 202.787C1154.58 203.557 1155.51 204.637 1156.16 206.035C1156.81 207.431 1157.14 209.066 1157.14 210.932V212.969H1143.93C1143.98 215.301 1144.53 217.075 1145.58 218.291C1146.63 219.505 1148.1 220.115 1150 220.115C1151.22 220.115 1152.32 219.993 1153.28 219.751C1154.24 219.508 1155.23 219.156 1156.26 218.695V221.654C1155.26 222.115 1154.28 222.455 1153.32 222.672C1152.36 222.89 1151.2 222.997 1149.84 222.997C1148 222.997 1146.37 222.6 1144.96 221.807C1143.56 221.013 1142.45 219.83 1141.66 218.253C1140.87 216.678 1140.47 214.752 1140.47 212.469C1140.47 210.218 1140.83 208.282 1141.54 206.669C1142.26 205.055 1143.27 203.813 1144.56 202.943C1145.85 202.073 1147.36 201.635 1149.07 201.635H1149.08ZM1149.08 204.4C1147.59 204.4 1146.41 204.922 1145.54 205.959C1144.67 206.996 1144.16 208.435 1144.01 210.28H1153.68C1153.68 209.102 1153.52 208.079 1153.19 207.206C1152.85 206.336 1152.35 205.653 1151.67 205.153C1150.99 204.654 1150.12 204.403 1149.08 204.403V204.4Z" fill="#1E2020"/>
<path d="M1171.31 201.635C1173.7 201.635 1175.61 202.519 1177.06 204.286C1178.5 206.052 1179.22 208.719 1179.22 212.278C1179.22 214.611 1178.89 216.575 1178.23 218.176C1177.56 219.775 1176.63 220.98 1175.44 221.788C1174.25 222.596 1172.86 222.997 1171.28 222.997C1170.28 222.997 1169.4 222.858 1168.64 222.574C1167.89 222.292 1167.24 221.926 1166.7 221.479C1166.17 221.03 1165.71 220.538 1165.32 220H1165.09C1165.14 220.437 1165.19 220.987 1165.25 221.651C1165.3 222.316 1165.32 222.892 1165.32 223.379V231.83H1161.98V202.018H1164.71L1165.17 204.821H1165.32C1165.71 204.233 1166.17 203.695 1166.7 203.208C1167.24 202.723 1167.89 202.338 1168.64 202.056C1169.4 201.774 1170.29 201.633 1171.31 201.633V201.635ZM1170.66 204.479C1169.38 204.479 1168.35 204.742 1167.57 205.268C1166.79 205.791 1166.22 206.58 1165.86 207.629C1165.5 208.681 1165.32 210.012 1165.32 211.625V212.278C1165.32 213.968 1165.48 215.404 1165.8 216.582C1166.12 217.761 1166.68 218.657 1167.47 219.271C1168.27 219.885 1169.36 220.194 1170.74 220.194C1171.89 220.194 1172.84 219.847 1173.58 219.156C1174.32 218.466 1174.87 217.524 1175.23 216.334C1175.59 215.141 1175.77 213.776 1175.77 212.24C1175.77 209.885 1175.35 208.002 1174.52 206.592C1173.69 205.184 1172.4 204.479 1170.66 204.479Z" fill="#1E2020"/>
<path d="M1183.22 210.242C1183.22 207.245 1183.51 204.692 1184.09 202.577C1184.66 200.464 1185.56 198.774 1186.78 197.505C1187.99 196.239 1189.56 195.385 1191.48 194.95C1193.02 194.592 1194.53 194.272 1196.01 193.99C1197.5 193.708 1198.89 193.452 1200.2 193.22L1200.78 196.179C1200.13 196.282 1199.43 196.403 1198.66 196.544C1197.89 196.683 1197.12 196.826 1196.34 196.967C1195.56 197.106 1194.8 197.247 1194.07 197.391C1193.34 197.532 1192.7 197.665 1192.13 197.794C1191.34 197.974 1190.63 198.275 1190 198.698C1189.38 199.121 1188.84 199.69 1188.39 200.407C1187.94 201.124 1187.58 202.008 1187.31 203.057C1187.05 204.109 1186.88 205.349 1186.83 206.783H1187.06C1187.39 206.298 1187.86 205.799 1188.45 205.285C1189.03 204.773 1189.74 204.338 1190.56 203.977C1191.38 203.619 1192.31 203.44 1193.36 203.44C1195.03 203.44 1196.42 203.829 1197.55 204.613C1198.68 205.395 1199.53 206.475 1200.1 207.859C1200.68 209.243 1200.97 210.856 1200.97 212.698C1200.97 214.979 1200.59 216.886 1199.84 218.423C1199.08 219.959 1198.04 221.104 1196.71 221.862C1195.38 222.617 1193.82 222.995 1192.06 222.995C1190.73 222.995 1189.52 222.72 1188.43 222.17C1187.34 221.618 1186.41 220.805 1185.62 219.73C1184.84 218.654 1184.25 217.323 1183.84 215.734C1183.43 214.147 1183.23 212.316 1183.23 210.239L1183.22 210.242ZM1192.33 220.191C1193.35 220.191 1194.25 219.962 1195.01 219.5C1195.78 219.039 1196.38 218.284 1196.8 217.232C1197.22 216.183 1197.43 214.787 1197.43 213.045C1197.43 210.947 1197.07 209.288 1196.36 208.071C1195.64 206.855 1194.46 206.245 1192.82 206.245C1191.77 206.245 1190.83 206.496 1189.98 206.996C1189.13 207.495 1188.42 208.064 1187.85 208.705C1187.27 209.345 1186.87 209.885 1186.64 210.318C1186.64 211.575 1186.72 212.792 1186.89 213.968C1187.05 215.146 1187.35 216.202 1187.77 217.139C1188.19 218.074 1188.77 218.815 1189.5 219.367C1190.23 219.916 1191.17 220.191 1192.32 220.191H1192.33Z" fill="#1E2020"/>
<path d="M1213.45 201.635C1215.11 201.635 1216.55 202.02 1217.75 202.787C1218.96 203.557 1219.88 204.637 1220.53 206.035C1221.19 207.431 1221.51 209.066 1221.51 210.932V212.969H1208.3C1208.35 215.301 1208.9 217.075 1209.95 218.291C1211 219.505 1212.48 220.115 1214.37 220.115C1215.6 220.115 1216.69 219.993 1217.65 219.751C1218.61 219.508 1219.61 219.156 1220.63 218.695V221.654C1219.63 222.115 1218.65 222.455 1217.69 222.672C1216.73 222.89 1215.57 222.997 1214.21 222.997C1212.37 222.997 1210.75 222.6 1209.34 221.807C1207.93 221.013 1206.83 219.83 1206.03 218.253C1205.24 216.678 1204.84 214.752 1204.84 212.469C1204.84 210.218 1205.2 208.282 1205.92 206.669C1206.64 205.055 1207.64 203.813 1208.93 202.943C1210.23 202.073 1211.73 201.635 1213.45 201.635H1213.45ZM1213.45 204.4C1211.96 204.4 1210.79 204.922 1209.92 205.959C1209.04 206.996 1208.53 208.435 1208.38 210.28H1218.06C1218.06 209.102 1217.89 208.079 1217.56 207.206C1217.23 206.336 1216.72 205.653 1216.04 205.153C1215.36 204.654 1214.5 204.403 1213.45 204.403V204.4Z" fill="#1E2020"/>
<path d="M1229.7 202.02V210.586H1239.99V202.02H1243.33V222.612H1239.99V213.43H1229.7V222.612H1226.36V202.02H1229.7Z" fill="#1E2020"/>
<path d="M1263 204.862H1256.66V222.612H1253.36V204.862H1247.1V202.02H1263V204.862Z" fill="#1E2020"/>
<path fill-rule="evenodd" clip-rule="evenodd" d="M403.394 137.241C402.18 137.82 400.223 139.283 398.78 140.59C397.339 141.897 396.41 143.049 395.122 144.438C393.834 145.829 392.185 147.461 386.458 153.135C380.728 158.806 370.92 168.522 365.195 174.303C359.47 180.082 357.83 181.927 356.411 183.452C354.992 184.977 353.795 186.184 353.553 187.138C353.315 188.091 354.031 188.794 354.903 189.107C355.776 189.422 356.801 189.348 358.253 189.277C359.706 189.2 361.584 189.128 365.496 189.124C369.407 189.121 375.357 189.191 381.822 189.073C388.29 188.954 395.279 188.648 400.734 188.634C406.189 188.617 410.113 188.892 413.255 189.026C416.397 189.162 418.762 189.155 420.609 188.947C422.454 188.736 423.783 188.321 426.623 188.478C429.464 188.634 433.82 189.365 438.568 189.767C443.316 190.17 448.458 190.245 451.526 190.115C454.596 189.986 455.59 189.654 456.106 189.162C456.622 188.667 456.656 188.015 456.453 187.527C456.252 187.04 455.815 186.719 454.998 185.88C454.178 185.044 452.979 183.686 451.241 181.987C449.507 180.285 447.232 178.244 444.704 175.742C442.174 173.24 439.385 170.281 436.387 167.688C433.388 165.092 430.184 162.862 428.205 160.836C426.229 158.809 425.479 156.983 423.051 154.282C420.624 151.584 416.514 148.016 413.649 145.284C410.782 142.552 409.159 140.659 408.017 139.462C406.875 138.267 406.211 137.77 405.642 137.368C405.074 136.964 404.6 136.658 403.387 137.237L403.394 137.241Z" fill="#1E2020"/>
<path d="M367.792 211.886C367.106 211.886 366.47 211.972 365.887 212.144C365.304 212.316 364.774 212.515 364.296 212.739L363.488 211.059C364.086 210.758 364.757 210.526 365.505 210.364C366.253 210.199 367.022 210.117 367.813 210.117C369.008 210.117 370.054 210.316 370.95 210.71C371.846 211.107 372.589 211.664 373.18 212.381C373.77 213.098 374.209 213.937 374.501 214.902C374.792 215.868 374.938 216.922 374.938 218.074C374.938 219.821 374.673 221.329 374.143 222.6C373.612 223.87 372.809 224.849 371.734 225.535C370.659 226.224 369.299 226.565 367.655 226.565C366.788 226.565 366.054 226.513 365.448 226.41C364.843 226.305 364.234 226.142 363.622 225.918V224.168C364.234 224.333 364.843 224.479 365.448 224.606C366.052 224.732 366.69 224.797 367.364 224.797C368.26 224.797 369.041 224.665 369.705 224.405C370.37 224.144 370.931 223.762 371.385 223.262C371.842 222.763 372.188 222.142 372.427 221.403C372.666 220.665 372.8 219.816 372.831 218.86H365.572V217.089H372.809C372.75 216.267 372.589 215.536 372.327 214.893C372.066 214.25 371.715 213.705 371.273 213.258C370.833 212.809 370.322 212.469 369.739 212.237C369.156 212.008 368.506 211.891 367.789 211.891L367.792 211.886Z" fill="#1E2020"/>
<path d="M386.546 226.341H384.575V215.966H381.282C381.149 217.863 380.974 219.479 380.757 220.817C380.539 222.153 380.272 223.241 379.949 224.077C379.629 224.914 379.244 225.526 378.795 225.915C378.346 226.305 377.818 226.496 377.204 226.496C377.01 226.496 376.819 226.484 376.633 226.463C376.446 226.441 376.293 226.398 376.174 226.338V224.859C376.265 224.888 376.36 224.911 376.465 224.926C376.57 224.943 376.676 224.947 376.778 224.947C377.077 224.947 377.349 224.813 377.596 224.543C377.842 224.276 378.066 223.865 378.267 223.31C378.468 222.758 378.652 222.06 378.817 221.214C378.981 220.37 379.127 219.374 379.254 218.222C379.38 217.072 379.495 215.772 379.6 214.324H386.546V226.336V226.341Z" fill="#1E2020"/>
<path d="M395.308 219.259C396.293 219.259 397.114 219.386 397.772 219.639C398.429 219.893 398.926 220.27 399.263 220.772C399.599 221.272 399.767 221.903 399.767 222.665C399.767 223.413 399.609 224.061 399.296 224.615C398.983 225.17 398.493 225.593 397.829 225.894C397.165 226.193 396.302 226.341 395.241 226.341H390.09V214.329H392.039V219.259H395.31H395.308ZM397.817 222.777C397.817 222.046 397.578 221.549 397.1 221.288C396.622 221.025 395.958 220.894 395.105 220.894H392.035V224.749H395.15C395.913 224.749 396.546 224.598 397.055 224.3C397.561 224.001 397.817 223.492 397.817 222.775V222.777Z" fill="#1E2020"/>
<path d="M402.051 219.125C402.051 217.376 402.218 215.887 402.555 214.654C402.892 213.42 403.415 212.436 404.125 211.695C404.835 210.956 405.75 210.459 406.87 210.203C407.766 209.996 408.648 209.807 409.515 209.644C410.383 209.482 411.195 209.331 411.957 209.197L412.294 210.923C411.922 210.983 411.511 211.054 411.061 211.136C410.612 211.217 410.161 211.3 409.707 211.382C409.25 211.463 408.811 211.547 408.385 211.628C407.96 211.712 407.582 211.788 407.253 211.865C406.789 211.97 406.376 212.144 406.008 212.39C405.642 212.636 405.329 212.969 405.066 213.387C404.806 213.805 404.596 214.321 404.44 214.933C404.283 215.548 404.19 216.272 404.161 217.106H404.295C404.488 216.821 404.758 216.53 405.102 216.233C405.446 215.935 405.857 215.679 406.335 215.471C406.813 215.263 407.358 215.158 407.972 215.158C408.942 215.158 409.757 215.385 410.414 215.841C411.071 216.298 411.568 216.929 411.905 217.737C412.242 218.542 412.409 219.484 412.409 220.559C412.409 221.888 412.189 223.002 411.75 223.898C411.308 224.797 410.701 225.464 409.924 225.906C409.148 226.346 408.244 226.565 407.212 226.565C406.436 226.565 405.731 226.405 405.095 226.085C404.46 225.765 403.915 225.289 403.458 224.661C403.002 224.034 402.656 223.255 402.417 222.33C402.178 221.403 402.058 220.335 402.058 219.125H402.051ZM407.36 224.928C407.958 224.928 408.481 224.794 408.93 224.527C409.379 224.257 409.726 223.817 409.972 223.205C410.218 222.591 410.342 221.778 410.342 220.762C410.342 219.536 410.132 218.568 409.714 217.861C409.296 217.151 408.608 216.797 407.652 216.797C407.04 216.797 406.486 216.943 405.994 217.235C405.501 217.526 405.086 217.856 404.749 218.231C404.412 218.604 404.178 218.92 404.044 219.173C404.044 219.904 404.092 220.614 404.19 221.303C404.287 221.989 404.457 222.605 404.706 223.152C404.952 223.697 405.289 224.13 405.714 224.45C406.139 224.773 406.689 224.933 407.36 224.933V224.928Z" fill="#1E2020"/>
<path d="M420.736 214.104C422.125 214.104 423.243 214.62 424.086 215.65C424.93 216.68 425.353 218.234 425.353 220.311C425.353 221.671 425.159 222.818 424.77 223.752C424.38 224.684 423.84 225.387 423.145 225.858C422.452 226.329 421.64 226.563 420.715 226.563C420.132 226.563 419.621 226.479 419.179 226.317C418.739 226.152 418.361 225.942 418.046 225.679C417.733 225.416 417.463 225.129 417.238 224.816H417.105C417.136 225.069 417.164 225.392 417.195 225.779C417.226 226.169 417.241 226.503 417.241 226.788V231.718H415.291V214.326H416.882L417.15 215.963H417.241C417.465 215.619 417.733 215.304 418.048 215.022C418.361 214.737 418.739 214.513 419.181 214.35C419.623 214.185 420.141 214.102 420.739 214.102L420.736 214.104ZM420.357 215.763C419.609 215.763 419.009 215.916 418.553 216.224C418.096 216.53 417.764 216.989 417.556 217.601C417.346 218.212 417.243 218.989 417.243 219.933V220.313C417.243 221.3 417.336 222.137 417.523 222.823C417.709 223.511 418.034 224.034 418.498 224.393C418.961 224.751 419.594 224.931 420.402 224.931C421.073 224.931 421.628 224.73 422.06 224.326C422.495 223.922 422.815 223.372 423.023 222.679C423.233 221.984 423.336 221.188 423.336 220.292C423.336 218.917 423.092 217.818 422.607 216.998C422.122 216.176 421.372 215.765 420.357 215.765V215.763Z" fill="#1E2020"/>
<path d="M426.294 214.329H428.399L430.795 221.164C430.946 221.568 431.08 221.955 431.199 222.33C431.319 222.703 431.424 223.066 431.512 223.418C431.603 223.769 431.67 224.109 431.715 224.436H431.782C431.873 224.063 432.002 223.573 432.174 222.968C432.346 222.364 432.528 221.754 432.724 221.143L434.986 214.331H437.115L432.253 228.002C431.985 228.75 431.668 229.402 431.302 229.964C430.936 230.523 430.492 230.958 429.969 231.264C429.445 231.57 428.819 231.725 428.086 231.725C427.759 231.725 427.462 231.706 427.202 231.668C426.941 231.632 426.719 231.589 426.54 231.546V229.976C426.69 230.005 426.877 230.036 427.101 230.064C427.326 230.095 427.558 230.11 427.794 230.11C428.229 230.11 428.602 230.024 428.915 229.852C429.228 229.677 429.498 229.433 429.723 229.113C429.947 228.791 430.134 228.413 430.282 227.98L430.843 226.389L426.294 214.331V214.329Z" fill="#1E2020"/>
<path d="M443.436 226.565C442.42 226.565 441.524 226.35 440.745 225.915C439.969 225.48 439.362 224.809 438.92 223.896C438.478 222.985 438.258 221.819 438.258 220.399C438.258 218.92 438.49 217.718 438.953 216.793C439.417 215.865 440.047 215.187 440.848 214.752C441.646 214.319 442.554 214.102 443.569 214.102C444.152 214.102 444.716 214.166 445.261 214.293C445.806 214.419 446.25 214.572 446.594 214.752L445.99 216.389C445.646 216.253 445.247 216.128 444.79 216.006C444.334 215.887 443.913 215.83 443.524 215.83C442.793 215.83 442.188 216.002 441.71 216.343C441.233 216.688 440.874 217.197 440.635 217.868C440.396 218.54 440.277 219.376 440.277 220.378C440.277 221.336 440.396 222.149 440.635 222.82C440.874 223.494 441.228 224.001 441.699 224.345C442.169 224.689 442.747 224.861 443.436 224.861C444.047 224.861 444.594 224.794 445.07 224.658C445.548 224.524 445.99 224.359 446.391 224.166V225.915C446.002 226.123 445.577 226.283 445.115 226.398C444.652 226.508 444.093 226.565 443.436 226.565Z" fill="#1E2020"/>
<path fill-rule="evenodd" clip-rule="evenodd" d="M702.861 189.676C701.648 190.256 699.691 191.719 698.247 193.027C696.807 194.334 695.877 195.483 694.589 196.874C693.301 198.263 691.655 199.895 685.925 205.569C680.196 211.243 670.387 220.958 664.662 226.737C658.937 232.517 657.298 234.362 655.879 235.886C654.459 237.414 653.262 238.618 653.021 239.572C652.78 240.525 653.499 241.228 654.371 241.544C655.243 241.857 656.271 241.785 657.723 241.711C659.176 241.639 661.054 241.563 664.966 241.56C668.877 241.556 674.824 241.627 681.292 241.508C687.76 241.391 694.749 241.085 700.204 241.068C705.659 241.051 709.583 241.326 712.725 241.462C715.867 241.596 718.232 241.594 720.079 241.381C721.924 241.171 723.252 240.757 726.093 240.913C728.934 241.07 733.29 241.799 738.038 242.203C742.786 242.605 747.928 242.681 750.996 242.55C754.064 242.421 755.06 242.091 755.576 241.596C756.09 241.104 756.126 240.449 755.923 239.961C755.722 239.474 755.285 239.154 754.465 238.315C753.646 237.476 752.446 236.121 750.711 234.419C748.974 232.72 746.702 230.674 744.174 228.174C741.644 225.674 738.855 222.715 735.856 220.122C732.858 217.526 729.651 215.297 727.675 213.27C725.699 211.241 724.949 209.415 722.521 206.716C720.094 204.018 715.984 200.45 713.119 197.716C710.252 194.986 708.629 193.093 707.487 191.896C706.345 190.701 705.681 190.202 705.112 189.8C704.543 189.398 704.07 189.093 702.857 189.669L702.861 189.676Z" fill="#1E2020"/>
<path d="M681.075 278.777H678.7L672 270.663V278.777H670.005V262.774H672V270.53L678.542 262.774H680.783L674.329 270.551L681.075 278.777Z" fill="#1E2020"/>
<path d="M687.168 266.562C688.542 266.562 689.569 266.882 690.248 267.525C690.926 268.168 691.268 269.191 691.268 270.596V278.777H689.856L689.476 277.073H689.385C689.058 277.508 688.726 277.869 688.389 278.161C688.052 278.452 687.665 278.665 687.223 278.799C686.781 278.935 686.241 279.002 685.598 279.002C684.927 279.002 684.322 278.875 683.784 278.62C683.247 278.366 682.821 277.974 682.506 277.444C682.193 276.913 682.035 276.246 682.035 275.438C682.035 274.243 682.475 273.321 683.357 272.668C684.238 272.018 685.598 271.665 687.435 271.605L689.34 271.538V270.821C689.34 269.82 689.141 269.124 688.747 268.737C688.351 268.347 687.787 268.154 687.055 268.154C686.472 268.154 685.916 268.247 685.388 268.433C684.857 268.62 684.353 268.833 683.875 269.072L683.271 267.592C683.78 267.31 684.367 267.064 685.041 266.863C685.713 266.66 686.422 266.562 687.17 266.562H687.168ZM687.705 272.97C686.331 273.029 685.378 273.271 684.85 273.687C684.32 274.105 684.054 274.698 684.054 275.458C684.054 276.129 684.241 276.624 684.616 276.937C684.989 277.25 685.474 277.408 686.071 277.408C686.996 277.408 687.775 277.128 688.401 276.567C689.027 276.005 689.342 275.145 689.342 273.976V272.9L687.705 272.967V272.97Z" fill="#1E2020"/>
<path d="M697.812 266.541C698.663 266.541 699.411 266.663 700.053 266.911C700.696 267.157 701.193 267.516 701.544 267.987C701.896 268.457 702.072 269.029 702.072 269.7C702.072 270.434 701.881 271.012 701.501 271.438C701.121 271.863 700.601 272.174 699.943 272.367V272.456C700.393 272.592 700.806 272.779 701.186 273.018C701.566 273.254 701.874 273.57 702.106 273.957C702.338 274.346 702.452 274.846 702.452 275.458C702.452 276.115 702.28 276.712 701.936 277.25C701.592 277.788 701.057 278.216 700.333 278.526C699.609 278.84 698.687 278.997 697.566 278.997C697.028 278.997 696.517 278.966 696.032 278.906C695.547 278.847 695.105 278.758 694.711 278.639C694.314 278.519 693.968 278.378 693.669 278.213V276.442C694.147 276.681 694.713 276.899 695.37 277.092C696.027 277.286 696.744 277.384 697.521 277.384C698.357 277.384 699.067 277.231 699.65 276.923C700.233 276.617 700.524 276.089 700.524 275.343C700.524 274.657 700.259 274.148 699.728 273.821C699.198 273.491 698.388 273.326 697.298 273.326H695.819V271.713H697.031C698.001 271.713 698.777 271.574 699.36 271.297C699.943 271.022 700.235 270.546 700.235 269.875C700.235 269.308 700.015 268.883 699.573 268.596C699.133 268.312 698.503 268.171 697.681 268.171C697.069 268.171 696.519 268.233 696.034 268.359C695.549 268.488 695.031 268.677 694.477 268.931L693.784 267.363C694.395 267.078 695.038 266.868 695.712 266.734C696.383 266.6 697.086 266.533 697.817 266.533L697.812 266.541Z" fill="#1E2020"/>
<path d="M704.579 271.56C704.579 269.813 704.747 268.321 705.083 267.088C705.42 265.855 705.944 264.868 706.653 264.129C707.363 263.391 708.278 262.891 709.399 262.638C710.295 262.43 711.176 262.241 712.044 262.078C712.911 261.914 713.724 261.765 714.486 261.629L714.823 263.357C714.45 263.417 714.039 263.489 713.59 263.567C713.141 263.651 712.689 263.732 712.235 263.814C711.779 263.895 711.339 263.979 710.914 264.06C710.488 264.143 710.111 264.222 709.781 264.296C709.318 264.402 708.904 264.576 708.536 264.822C708.171 265.068 707.858 265.403 707.595 265.821C707.334 266.239 707.124 266.753 706.969 267.368C706.811 267.979 706.718 268.704 706.689 269.54H706.823C707.017 269.256 707.287 268.964 707.631 268.665C707.975 268.367 708.386 268.113 708.864 267.903C709.341 267.695 709.886 267.59 710.5 267.59C711.47 267.59 712.285 267.819 712.942 268.273C713.599 268.73 714.096 269.361 714.433 270.169C714.77 270.976 714.937 271.918 714.937 272.994C714.937 274.322 714.718 275.436 714.278 276.332C713.836 277.229 713.229 277.898 712.452 278.338C711.676 278.78 710.773 279 709.74 279C708.964 279 708.259 278.84 707.623 278.517C706.988 278.197 706.443 277.721 705.987 277.095C705.53 276.466 705.184 275.69 704.945 274.762C704.706 273.835 704.587 272.769 704.587 271.557L704.579 271.56ZM709.889 277.365C710.486 277.365 711.009 277.229 711.458 276.961C711.908 276.691 712.254 276.251 712.5 275.639C712.746 275.028 712.871 274.212 712.871 273.197C712.871 271.973 712.66 271.005 712.242 270.295C711.824 269.585 711.136 269.232 710.18 269.232C709.568 269.232 709.014 269.378 708.522 269.669C708.03 269.961 707.614 270.293 707.277 270.668C706.94 271.041 706.706 271.354 706.572 271.607C706.572 272.341 706.62 273.049 706.718 273.737C706.816 274.423 706.985 275.042 707.234 275.587C707.48 276.132 707.817 276.564 708.242 276.887C708.668 277.207 709.217 277.37 709.889 277.37V277.365Z" fill="#1E2020"/>
<path d="M722.211 266.541C723.181 266.541 724.017 266.763 724.72 267.212C725.422 267.661 725.962 268.292 726.345 269.107C726.725 269.922 726.916 270.874 726.916 271.966V273.154H719.208C719.239 274.514 719.559 275.548 720.17 276.258C720.782 276.968 721.642 277.322 722.746 277.322C723.463 277.322 724.101 277.25 724.663 277.109C725.222 276.968 725.802 276.763 726.4 276.493V278.22C725.817 278.488 725.245 278.687 724.686 278.813C724.125 278.94 723.449 279.004 722.658 279.004C721.583 279.004 720.634 278.773 719.812 278.309C718.99 277.848 718.347 277.155 717.884 276.237C717.42 275.317 717.188 274.193 717.188 272.864C717.188 271.55 717.399 270.422 717.817 269.48C718.235 268.541 718.82 267.814 719.575 267.308C720.331 266.801 721.207 266.545 722.209 266.545L722.211 266.541ZM722.211 268.154C721.344 268.154 720.658 268.455 720.149 269.062C719.64 269.667 719.341 270.508 719.253 271.583H724.899C724.899 270.897 724.801 270.298 724.608 269.791C724.414 269.282 724.118 268.883 723.723 268.591C723.327 268.3 722.823 268.154 722.211 268.154Z" fill="#1E2020"/>
<path d="M736.485 266.763H738.611L733.818 272.547L739.015 278.777H736.752L731.689 272.681V278.777H729.739V266.763H731.689V272.59L736.485 266.763Z" fill="#1E2020"/>
</g>
<defs>
<clipPath id="clip0_11118_346">
<rect width="1263" height="279" fill="white"/>
</clipPath>
</defs>
</svg>
