<svg width="375" height="135" viewBox="0 0 375 135" fill="none" xmlns="http://www.w3.org/2000/svg">
<path d="M188.447 44.7501C188.447 42.6786 186.751 41.0001 184.659 41.0001C182.567 41.0001 180.872 42.6786 180.872 44.7501C180.872 46.8216 182.567 48.5001 184.659 48.5001C186.751 48.5001 188.447 46.8216 188.447 44.7501ZM181.446 56.8071L183.579 64.7511L179.355 67.1271V77.0001H182.385V68.8731L189.175 65.0541C190.915 64.0761 191.811 62.0451 191.355 60.1161L189.784 53.4651L194.51 55.8036L196.07 61.6341L199 60.8646L197.088 53.7261L189.56 50.0001H184.658C183.347 50.0001 182.102 50.5611 181.237 51.5361L181.094 51.7251L177.681 57.0951L172 59.9076L173.356 62.5911L179.795 59.4036L181.446 56.8071ZM191.442 66.6981L192.143 69.6921L195.585 77.0001H192.254L189.34 70.8711L188.753 68.3391L190.312 67.4616C190.704 67.2411 191.08 66.9861 191.442 66.6981Z" fill="#FFB300"/>
<path d="M-428 40.7653C-415.291 29.1714 -382.516 18.1272 -367.974 30.3234C-354.605 41.5349 -324.2 26.5066 -316.36 37.0345C-304.093 53.516 -281.652 39.3839 -277.953 52.0127C-274.916 62.3829 -264.582 46.8742 -250.561 47.4741C-219.769 48.791 -239.766 50.2226 -221.485 56.2311C-202.673 62.414 -202.374 20.3165 -191.663 22.1185C-181.833 23.7724 -196.819 47.4717 -182.781 47.4717C-163.563 47.4717 -159.31 72.5165 -128.229 66.1806C-121.716 64.8518 -125.042 42.2663 -101.262 59.2114C-95.6377 63.2218 -84.1615 52.3879 -97.7261 43.1888C-98.0272 42.9857 -112.514 15.8161 -88.7802 28.0195C-71.8513 43.2247 -78.1044 11.3325 -37.272 9.37743C-24.2021 8.75125 -6.15974 -13.0408 -7.51453 21.3729C-8.10471 36.3582 24.8307 9.44196 26.035 9.44196C40.0846 9.44196 19.8344 21.6095 52.9371 26.5305C126.064 37.4026 34.3906 47.7011 71.0654 67.8656C83.3971 74.646 89.729 73.0614 107.979 85.0186C118.918 92.1839 160.042 69.976 165.705 78.6039C170.784 86.3427 193.529 68.3149 211.863 80.0952C217.401 83.6539 236.213 72.06 252.676 72.8296C261.333 73.2335 256.413 67.1653 276.534 69.1634C282.629 69.7704 292.529 66.2882 307.102 66.8618C310.206 66.9837 312.251 44.912 330.769 58.1048C341.891 66.0277 332.838 35.873 368.982 55.1866C374.989 58.3964 395.268 66.3073 401.041 64.0703C402.711 63.4226 432.865 60.7314 433.718 61.023C434.626 65.423 463.143 71.8784 475.105 90.5969C479.062 96.7846 507.505 101.894 519.774 93.1518C528.027 87.2724 542.173 97.4251 524.546 79.7917C517.739 72.985 554.464 70.5591 553.878 63.131C559.362 59.8782 566.372 68.0209 571.803 71.5796C582.482 78.5752 579.849 67.3565 587.736 87.368C592.742 100.064 602.082 96.113 613.243 95.6016C636.255 94.5524 636.695 118.075 673.162 103.869C674.535 103.333 684.119 113.577 692.578 115.3C703.105 117.446 674.774 132.482 699.256 129.468C709.406 128.218 703.789 136.282 717.927 129.339C727.647 124.566 730.318 124.664 741.039 123.873C762.511 122.293 749.068 105.049 765.058 111.877C766.618 112.542 771.975 102.279 786.273 102.279C791.138 102.279 800.287 103.257 802.143 108.618" stroke="#FFB300" stroke-width="4.00018" stroke-miterlimit="22.9256"/>
</svg>
