<svg width="195" height="41" viewBox="0 0 195 41" fill="none" xmlns="http://www.w3.org/2000/svg">
<path d="M72.5643 20.5836H68.7714L64.1702 13.0034V20.5836H60.8142V5.63488H64.1702V12.8795L68.6471 5.63488H72.296L67.6113 12.815L72.5643 20.5836Z" fill="white"/>
<path d="M83.1838 20.5836L82.3345 17.0249H77.5468L76.6763 20.5836H73.029L77.7546 5.57372H82.0645L86.8097 20.5836H83.1821H83.1838ZM80.6344 10.8911C80.551 10.5985 80.4692 10.2911 80.3857 9.9704C80.3039 9.64974 80.2237 9.3142 80.1468 8.96544C80.0716 8.61669 79.9979 8.26131 79.9292 7.89768C79.8327 8.45635 79.7214 8.99024 79.597 9.49933C79.4727 10.0084 79.3549 10.4729 79.2452 10.8911L78.2913 14.3654H81.608L80.6344 10.8911Z" fill="white"/>
<path d="M93.5348 5.63488C94.8193 5.63488 95.8763 5.75719 96.7059 6.00182C97.5355 6.24644 98.1491 6.64479 98.55 7.1952C98.9509 7.74726 99.1505 8.48941 99.1505 9.42494C99.1505 9.98362 99.054 10.4927 98.8609 10.9522C98.6678 11.4134 98.4077 11.7902 98.0837 12.0828C97.758 12.3753 97.3964 12.5638 96.9956 12.6481V12.7522C97.4095 12.8497 97.8071 13.0249 98.1868 13.2762C98.5664 13.5274 98.874 13.891 99.108 14.3638C99.3436 14.8381 99.4598 15.4662 99.4598 16.2481C99.4598 17.1555 99.2487 17.934 98.8282 18.5836C98.406 19.2332 97.8088 19.7274 97.0348 20.0695C96.2609 20.4117 95.3347 20.5819 94.2581 20.5819H88.9532V5.63488H93.5332H93.5348ZM93.7214 11.5588C94.4675 11.5588 94.9862 11.4134 95.2758 11.1191C95.5654 10.8266 95.7111 10.4001 95.7111 9.84147C95.7111 9.26957 95.5409 8.858 95.2038 8.60676C94.8651 8.35553 94.3366 8.22991 93.6183 8.22991H92.3125V11.5588H93.7214ZM92.3125 14.0712V17.9654H93.9292C94.7031 17.9654 95.2415 17.7803 95.5458 17.4117C95.8501 17.0414 96.0023 16.5489 96.0023 15.9357C96.0023 15.5588 95.9369 15.2315 95.806 14.9522C95.6751 14.6729 95.4542 14.4563 95.1433 14.3026C94.8324 14.1489 94.4004 14.0729 93.8473 14.0729H92.3142L92.3125 14.0712Z" fill="white"/>
<path d="M114.33 20.5836H110.537L105.936 13.0034V20.5836H102.579V5.63488H105.936V12.8795L110.413 5.63488H114.06L109.377 12.815L114.33 20.5836Z" fill="white"/>
<path d="M124.95 20.5836L124.1 17.0249H119.313L118.442 20.5836H114.795L119.521 5.57372H123.831L128.576 20.5836H124.948H124.95ZM122.4 10.8911C122.317 10.5985 122.235 10.2911 122.152 9.9704C122.07 9.64974 121.99 9.3142 121.913 8.96544C121.838 8.61669 121.764 8.26131 121.695 7.89768C121.599 8.45635 121.487 8.99024 121.363 9.49933C121.239 10.0084 121.121 10.4729 121.011 10.8911L120.057 14.3654H123.374L122.4 10.8911Z" fill="white"/>
<path d="M140.522 9.13073C140.522 10.1357 140.215 10.9456 139.599 11.5588C138.984 12.1737 138.159 12.5572 137.122 12.7109V12.7737C138.393 12.9142 139.357 13.2927 140.013 13.9142C140.669 14.5357 140.998 15.3406 140.998 16.3323C140.998 17.1985 140.777 17.9687 140.336 18.6447C139.894 19.3224 139.238 19.848 138.367 20.2249C137.497 20.6018 136.427 20.7902 135.155 20.7902C134.023 20.7902 133.038 20.7191 132.202 20.5803C131.366 20.4414 130.65 20.2381 130.057 19.9737V17.3158C130.457 17.5257 130.909 17.7026 131.415 17.8497C131.919 17.9952 132.434 18.1075 132.959 18.1836C133.485 18.2596 133.961 18.2993 134.389 18.2993C135.536 18.2993 136.361 18.1075 136.867 17.7241C137.371 17.3406 137.623 16.7985 137.623 16.1009C137.623 15.3902 137.287 14.8695 136.618 14.5406C135.949 14.2134 135.005 14.0497 133.789 14.0497H132.318V11.5787H133.645C134.599 11.5787 135.33 11.5026 135.842 11.3489C136.353 11.1952 136.71 10.972 136.909 10.6795C137.109 10.3869 137.209 10.0365 137.209 9.63321C137.209 9.11751 137.025 8.70924 136.659 8.40842C136.292 8.10759 135.723 7.95883 134.949 7.95883C134.299 7.95883 133.674 8.07123 133.074 8.29437C132.473 8.51751 131.91 8.81007 131.385 9.1737L129.955 7.05966C130.453 6.72413 130.971 6.43487 131.51 6.19025C132.048 5.94562 132.642 5.75719 133.291 5.62496C133.941 5.49273 134.681 5.42661 135.509 5.42661C136.559 5.42661 137.456 5.58694 138.204 5.9076C138.95 6.22826 139.522 6.66462 139.923 7.21669C140.324 7.76875 140.524 8.40676 140.524 9.13238L140.522 9.13073Z" fill="white"/>
<path d="M150.044 8.06462C149.546 8.06462 149.101 8.18363 148.707 8.41999C148.314 8.65635 147.979 8.99519 147.702 9.43486C147.426 9.87453 147.219 10.4084 147.08 11.0365C146.943 11.6646 146.873 12.3687 146.873 13.1505C146.873 14.2117 146.99 15.1142 147.224 15.8613C147.46 16.6084 147.818 17.1753 148.303 17.5671C148.787 17.9571 149.401 18.1522 150.147 18.1522C150.741 18.1522 151.325 18.0828 151.898 17.9439C152.47 17.8034 153.069 17.6084 153.691 17.3571V20.0166C153.084 20.2811 152.469 20.4778 151.847 20.6018C151.225 20.7274 150.548 20.7902 149.816 20.7902C148.339 20.7902 147.129 20.4728 146.189 19.8381C145.249 19.2034 144.556 18.3092 144.106 17.1588C143.656 16.0067 143.431 14.6646 143.431 13.1291C143.431 11.9985 143.577 10.9621 143.867 10.02C144.156 9.07784 144.585 8.26462 145.151 7.58032C145.717 6.89603 146.413 6.36711 147.234 5.99025C148.056 5.61339 149 5.42496 150.063 5.42496C150.754 5.42496 151.482 5.51918 152.249 5.7076C153.017 5.89603 153.683 6.15058 154.249 6.47124L153.192 9.04643C152.681 8.78197 152.166 8.55057 151.647 8.35553C151.129 8.16049 150.593 8.06297 150.04 8.06297L150.044 8.06462Z" fill="white"/>
<path d="M168.787 20.5836H164.994L160.395 13.0034V20.5836H157.037V5.63488H160.395V12.8795L164.872 5.63488H168.519L163.834 12.815L168.787 20.5836Z" fill="white"/>
<path d="M179.407 20.5836L178.557 17.0249H173.77L172.899 20.5836H169.252L173.977 5.57372H178.287L183.033 20.5836H179.405H179.407ZM176.857 10.8911C176.774 10.5985 176.692 10.2911 176.609 9.9704C176.527 9.64974 176.447 9.3142 176.37 8.96544C176.294 8.61669 176.221 8.26131 176.152 7.89768C176.056 8.45635 175.944 8.99024 175.82 9.49933C175.696 10.0084 175.578 10.4729 175.468 10.8911L174.514 14.3654H177.831L176.857 10.8911Z" fill="white"/>
<path d="M190.172 14.8464L187.166 20.5819H183.394L187.29 14.0084C186.917 13.8415 186.551 13.5935 186.192 13.2646C185.834 12.9373 185.539 12.4977 185.312 11.9456C185.083 11.3935 184.97 10.7142 184.97 9.90428C184.97 8.52247 185.436 7.46462 186.369 6.73239C187.302 6.00016 188.66 5.63322 190.442 5.63322H195.002V20.5803H191.666V14.8448H190.173L190.172 14.8464ZM190.524 8.23156C190.013 8.23156 189.597 8.29437 189.28 8.41999C188.963 8.54561 188.73 8.74891 188.586 9.0266C188.441 9.30594 188.369 9.67618 188.369 10.1357C188.369 10.7919 188.562 11.3125 188.949 11.696C189.336 12.0795 189.889 12.2712 190.607 12.2712H191.664V8.23156H190.524Z" fill="white"/>
<path d="M66.5543 40.5422H63.1966V28.2331H59.6115V25.5951H70.1393V28.2331H66.5543V40.5422Z" fill="white"/>
<path d="M77.3406 25.5951C79.1225 25.5951 80.4397 26.01 81.2889 26.8414C82.1382 27.6711 82.5636 28.8133 82.5636 30.2645C82.5636 31.129 82.3983 31.9439 82.0662 32.7042C81.734 33.4645 81.1826 34.0761 80.4086 34.5356C79.6347 34.9951 78.5776 35.2265 77.2375 35.2265H76.0774V40.5438H72.7198V25.5951H77.3406ZM77.2375 28.1918H76.0774V32.6298H76.9266C77.3684 32.6298 77.7628 32.5538 78.108 32.4001C78.4533 32.2463 78.7233 32.0017 78.9163 31.6678C79.1094 31.3323 79.206 30.8992 79.206 30.3703C79.206 29.6298 79.044 29.0827 78.72 28.7273C78.3944 28.372 77.9018 28.1935 77.2375 28.1935V28.1918Z" fill="white"/>
<path d="M98.3226 33.048C98.3226 34.2067 98.1917 35.2562 97.9282 36.1984C97.6664 37.1405 97.2655 37.9537 96.7256 38.638C96.1872 39.3223 95.4918 39.8446 94.6426 40.2083C93.7934 40.5719 92.787 40.7537 91.6269 40.7537C90.4799 40.7537 89.485 40.5686 88.6424 40.1984C87.7997 39.8281 87.1059 39.3058 86.5594 38.6281C86.0129 37.9504 85.6054 37.1389 85.3371 36.1901C85.0671 35.2414 84.9329 34.1868 84.9329 33.0281C84.9329 31.4794 85.1718 30.1323 85.648 28.9868C86.1241 27.843 86.8605 26.9521 87.8553 26.3174C88.8502 25.6827 90.1134 25.3654 91.6482 25.3654C93.1961 25.3654 94.4593 25.6827 95.4411 26.3174C96.4229 26.9521 97.1477 27.8464 97.6173 28.9968C98.087 30.1488 98.3226 31.4992 98.3226 33.048ZM88.4575 33.048C88.4575 34.0943 88.5655 34.9951 88.7782 35.7488C88.9925 36.5025 89.3345 37.0827 89.8041 37.486C90.2737 37.8909 90.8824 38.0926 91.6286 38.0926C92.3878 38.0926 92.9998 37.8909 93.4628 37.486C93.9259 37.081 94.2646 36.5025 94.479 35.7488C94.6933 34.9951 94.7997 34.0959 94.7997 33.048C94.7997 31.4711 94.5575 30.2364 94.0748 29.3422C93.5905 28.4497 92.7821 28.0034 91.6498 28.0034C90.889 28.0034 90.2754 28.205 89.8058 28.61C89.3361 29.0149 88.9942 29.5935 88.7798 30.3472C88.5655 31.1009 88.4591 32.0001 88.4591 33.048H88.4575Z" fill="white"/>
<path d="M101.543 40.5422V25.5951H112.735V40.5422H109.377V28.2331H104.9V40.5422H101.543Z" fill="white"/>
<path d="M125.033 40.5422L124.184 36.9835H119.396L118.526 40.5422H114.878L119.604 25.5323H123.914L128.659 40.5422H125.032H125.033ZM122.484 30.8496C122.4 30.5571 122.319 30.2496 122.235 29.929C122.153 29.6083 122.073 29.2728 121.996 28.924C121.921 28.5753 121.847 28.2182 121.779 27.8563C121.682 28.4149 121.571 28.9488 121.446 29.4579C121.322 29.967 121.204 30.4315 121.095 30.8496L120.141 34.324H123.457L122.484 30.8496Z" fill="white"/>
<path fill-rule="evenodd" clip-rule="evenodd" d="M25.991 0.119197C25.6506 -0.00642207 25.361 -0.0692317 25.0403 0.117544C24.7212 0.30432 24.371 0.739029 24.07 1.13903C23.7673 1.53903 23.512 1.90431 23.2551 2.17373C22.9966 2.44481 22.7364 2.62001 21.5927 3.73571C20.4489 4.85306 18.4199 6.90925 17.304 8.15387C16.188 9.40015 15.9851 9.83486 15.6677 10.215C15.3503 10.5952 14.9166 10.9208 14.1132 11.6547C13.3115 12.3886 12.1399 13.5324 11.5034 14.1819C10.8669 14.8299 10.767 14.9836 10.6443 15.1638C10.5232 15.3439 10.3792 15.5522 10.1829 15.7224C9.98817 15.8927 9.7411 16.0282 9.07513 16.653C8.4108 17.2795 7.32595 18.3951 6.72217 19.0646C6.12002 19.7323 5.99893 19.9522 5.97766 20.1803C5.95639 20.4084 6.03166 20.6414 6.66162 21.3456C7.29159 22.048 8.47462 23.2199 9.29276 23.9621C10.1109 24.7042 10.5641 25.015 11.0419 25.5009C11.5197 25.9852 12.0237 26.6447 12.6291 27.2711C13.2345 27.8976 13.9398 28.4943 14.8348 29.3406C15.7299 30.1885 16.8147 31.286 17.5969 32.0381C18.3806 32.7901 18.8633 33.1967 19.4459 33.8149C20.0284 34.4331 20.7107 35.2645 21.4437 35.9934C22.1768 36.7223 22.9606 37.3488 23.4793 37.8199C23.998 38.2909 24.2532 38.6066 24.4987 38.9108C24.7441 39.2149 24.9814 39.5091 25.1303 39.7025C25.2775 39.8959 25.3381 39.9918 25.4739 40.0529C25.6097 40.1157 25.8208 40.1471 26.0433 40.1405C26.2659 40.1339 26.4998 40.0909 26.7747 39.9207C27.0496 39.7504 27.3638 39.4562 27.745 39.0215C28.1279 38.5885 28.5779 38.0166 29.0312 37.5537C29.4844 37.0909 29.9426 36.7389 30.2486 36.4017C30.5545 36.0645 30.71 35.7438 31.4316 34.9984C32.1532 34.2546 33.4409 33.086 34.1625 32.3538C34.8841 31.6215 35.0396 31.3224 35.357 31.0067C35.6744 30.6893 36.1555 30.3521 36.6644 29.8149C37.1716 29.2777 37.7083 28.5422 38.7196 27.4216C39.7308 26.3009 41.2198 24.7968 42.0625 23.9703C42.9052 23.1439 43.1048 22.9951 43.3535 22.729C43.6022 22.4629 43.9016 22.0794 44.1144 21.848C44.3287 21.6166 44.4563 21.5389 44.5512 21.4398C44.6478 21.3422 44.7116 21.2265 44.7901 21.1175C44.8687 21.0084 44.9636 20.9075 45.065 20.8001C45.1665 20.691 45.2745 20.577 45.3432 20.4712C45.4119 20.367 45.443 20.2728 45.4577 20.1637C45.4725 20.0546 45.4725 19.929 45.2794 19.6629C45.0847 19.3985 44.6969 18.9935 44.3843 18.6381C44.0718 18.2844 43.8329 17.9786 43.5907 17.7423C43.3502 17.5059 43.1048 17.3373 42.4339 16.7059C41.763 16.0762 40.6651 14.9819 39.8453 14.0861C39.0239 13.1919 38.4823 12.4944 38.052 11.9853C37.6233 11.4745 37.3091 11.1539 36.9017 10.7935C36.4942 10.4332 35.9952 10.0332 34.7581 8.76709C33.5211 7.49933 31.5461 5.36546 30.3795 4.16215C29.2112 2.95885 28.8512 2.68943 28.4405 2.25473C28.0298 1.82002 27.5716 1.22167 27.1462 0.826632C26.7207 0.433245 26.3297 0.244817 25.9877 0.119197H25.991ZM0.0527024 5.09604C-0.0111124 5.26959 -0.00620352 5.60347 0.0117955 5.84644C0.0314308 6.08942 0.0674289 6.24479 0.0837917 6.46628C0.101791 6.68942 0.0985182 6.97867 0.0952456 7.99024C0.0903368 9.0018 0.0821554 10.7324 0.0870642 11.7539C0.0919731 12.7737 0.109972 13.0828 0.11979 13.3439C0.129607 13.6051 0.129607 13.8183 0.193422 13.9241C0.255601 14.0299 0.379958 14.0282 0.484679 13.9803C0.587765 13.9307 0.672851 13.8332 0.793936 13.6977C0.91502 13.5621 1.07374 13.3886 1.41572 13.0415C1.75934 12.6943 2.28786 12.172 2.84583 11.5886C3.4038 11.0034 3.98958 10.3572 4.46738 9.87122C4.94517 9.38693 5.31333 9.06296 5.60132 8.79519C5.8893 8.52742 6.09711 8.31916 6.23946 8.13569C6.38346 7.95387 6.46363 7.7985 6.72708 7.56049C6.99052 7.32247 7.43722 7.00016 7.88883 6.61504C8.34208 6.22991 8.80024 5.78033 9.05713 5.49603C9.31566 5.21174 9.37457 5.09438 9.37457 5.00513C9.37621 4.91587 9.32221 4.85471 9.26167 4.82992C9.20113 4.80513 9.13404 4.81504 8.99005 4.81339C8.84442 4.81174 8.62025 4.79852 8.31754 4.80017C8.01646 4.80347 7.63684 4.82496 7.19505 4.82661C6.75326 4.82827 6.24928 4.81504 5.7584 4.84976C5.26752 4.88612 4.78972 4.97207 4.43792 4.96711C4.08612 4.96215 3.86032 4.86794 3.41034 4.84314C2.96037 4.81835 2.28622 4.86794 1.79534 4.87951C1.30445 4.89108 0.995198 4.86794 0.790663 4.86298C0.584492 4.85802 0.483043 4.8729 0.366868 4.88777C0.250692 4.90265 0.118154 4.91752 0.055975 5.09108L0.0527024 5.09604ZM0.291599 40.5653C0.204876 40.3157 0.137789 39.8397 0.118154 39.4579C0.100154 39.0744 0.129607 38.7868 0.144334 38.4132C0.15906 38.0413 0.155788 37.5852 0.147606 36C0.139425 34.4149 0.126335 31.7009 0.134516 30.1009C0.141061 28.5009 0.170514 28.0166 0.185241 27.6083C0.199967 27.1984 0.199967 26.8645 0.29978 26.6992C0.397957 26.534 0.592674 26.5356 0.756301 26.6133C0.919929 26.691 1.05083 26.843 1.24064 27.0546C1.43045 27.2678 1.67916 27.5389 2.21586 28.0827C2.7542 28.6265 3.58215 29.4447 4.45592 30.3604C5.32969 31.2761 6.24928 32.291 6.9987 33.0513C7.74648 33.8116 8.32408 34.319 8.77569 34.7372C9.22731 35.1554 9.55129 35.486 9.77709 35.7703C10.0029 36.0562 10.1273 36.2992 10.5412 36.6728C10.9536 37.0463 11.6539 37.5504 12.3624 38.1537C13.0709 38.757 13.7892 39.4612 14.1934 39.9075C14.5976 40.3521 14.6892 40.5355 14.6925 40.676C14.6957 40.8165 14.6107 40.9124 14.5158 40.9521C14.4208 40.9917 14.3161 40.9752 14.0887 40.9785C13.8596 40.9802 13.5094 41.0033 13.0366 40.9984C12.5637 40.9934 11.9697 40.962 11.2776 40.957C10.5854 40.9537 9.79346 40.9769 9.02441 40.9207C8.25536 40.8645 7.50594 40.7289 6.95452 40.7355C6.40309 40.7422 6.04966 40.8909 5.34279 40.9306C4.63755 40.9686 3.58051 40.8926 2.80983 40.8744C2.03914 40.8562 1.5548 40.8926 1.23409 40.9008C0.911748 40.9074 0.753029 40.8843 0.618854 40.8612C0.484679 40.838 0.378322 40.8149 0.289963 40.567L0.291599 40.5653Z" fill="#F5AC04"/>
</svg>
