<svg width="184" height="42" viewBox="0 0 184 42" fill="none" xmlns="http://www.w3.org/2000/svg">
<g clip-path="url(#clip0_11118_259)">
<path fill-rule="evenodd" clip-rule="evenodd" d="M6.56741 9.96251C7.05799 9.62391 7.44888 9.28398 7.92765 8.89785C14.3826 3.6861 25.0468 4.59301 30.4642 11.5361C31.0276 12.2575 33.6503 15.5683 31.0171 15.4878C30.5029 14.7994 30.3533 14.2779 29.3486 13.0357C27.5502 10.8113 24.6139 9.04966 21.5209 8.42526C19.091 7.93484 16.4899 8.20546 14.2763 8.96782C12.5678 9.55658 9.84406 11.2258 9.18952 12.3327L11.6778 10.5242C14.761 8.60413 18.9421 8.21404 22.3683 9.3282C26.4084 10.6417 29.8149 13.9532 31.0072 18.1953C32.0238 21.813 28.2218 21.023 25.5289 21.023C22.1538 21.023 5.71873 20.8738 3.56949 21.0817C2.98184 21.1385 0.334807 21.3979 0.000976562 21.9365C0.132148 22.244 0.0468865 22.217 0.854245 22.3734C1.25825 22.452 1.62422 22.5391 2.00199 22.615C2.7923 22.7734 3.61868 22.8843 4.4444 22.9008C9.53581 23.0005 15.4772 22.9048 20.6336 22.9048C22.3499 22.9048 30.2386 22.6011 31.1351 23.2434C32.7852 24.4268 31.2584 29.6208 29.9323 31.6365C28.3858 31.1607 23.4006 28.2505 22.1689 28.4069C21.4324 28.5007 18.9349 29.5125 18.0541 29.8267C15.714 30.661 16.1147 30.5052 13.913 29.5858C11.8831 28.7383 11.5296 29.3904 9.99163 30.3019C8.78289 31.0181 7.67318 31.6438 6.52412 32.3725L1.33958 35.4899C0.626007 35.9123 0.104602 36.0358 0.00359999 36.9902L9.5732 32.7877C12.3068 31.5283 11.5775 31.4016 14.3557 32.5507C16.4794 33.4292 15.836 33.356 19.497 32.0365C22.893 30.8128 22.0594 30.7851 24.6244 31.6907L40.0016 37.0008C39.7819 35.8826 37.6117 35.2483 36.0094 34.5038C35.1647 34.1111 32.1897 32.8359 31.7005 32.4227L33.2273 29.9356C33.7251 28.9838 34.0707 28.1436 34.4098 27.0829C36.6161 20.1741 34.3409 13.6601 29.6116 9.23514C25.0796 4.99498 17.4664 3.62076 11.2758 6.5791C10.2802 7.055 9.5686 7.49987 8.73108 8.06289C8.08768 8.49522 6.85008 9.47804 6.56806 9.96317L6.56741 9.96251Z" fill="#1E2020"/>
</g>
<path d="M67.072 32.544C65.3867 32.544 63.8827 32.3093 62.56 31.84C61.2587 31.3493 60.1493 30.6347 59.232 29.696C58.336 28.7573 57.632 27.5947 57.12 26.208L60.608 25.088C61.12 26.496 61.9307 27.5627 63.04 28.288C64.1493 29.0133 65.4933 29.376 67.072 29.376C68.5227 29.376 69.7493 29.0347 70.752 28.352C71.776 27.6693 72.5547 26.688 73.088 25.408C73.6213 24.128 73.888 22.6133 73.888 20.864V19.968C73.888 18.3467 73.6 16.9493 73.024 15.776C72.4693 14.5813 71.6693 13.664 70.624 13.024C69.6 12.384 68.384 12.064 66.976 12.064C65.2693 12.064 63.872 12.4373 62.784 13.184C61.7173 13.9093 60.9387 14.9867 60.448 16.416L57.024 15.328C57.4933 13.92 58.1653 12.7467 59.04 11.808C59.936 10.848 61.0453 10.1227 62.368 9.632C63.712 9.14133 65.2587 8.896 67.008 8.896C69.1413 8.896 70.9973 9.376 72.576 10.336C74.176 11.296 75.4133 12.6507 76.288 14.4C77.184 16.1493 77.632 18.2293 77.632 20.64C77.632 23.008 77.2053 25.088 76.352 26.88C75.4987 28.672 74.2827 30.0693 72.704 31.072C71.1253 32.0533 69.248 32.544 67.072 32.544ZM64.224 21.248V18.176H75.296V21.248H64.224ZM80.4543 32.224C80.0916 32.224 79.7609 32.192 79.4622 32.128C79.1636 32.0853 78.8969 32.0213 78.6623 31.936V29.024C78.8329 29.088 79.0036 29.1413 79.1743 29.184C79.3662 29.2053 79.5476 29.216 79.7183 29.216C80.3796 29.216 80.9023 28.96 81.2863 28.448C81.6916 27.9147 81.9369 26.9653 82.0223 25.6C82.0649 25.1307 82.0969 24.6613 82.1183 24.192C82.1396 23.7227 82.1609 23.2427 82.1823 22.752C82.2249 22.2613 82.2569 21.7387 82.2783 21.184L82.5343 15.52H94.8863V32H91.4303V16.448L92.5503 18.528H83.5903L85.6383 16.448L85.4143 21.44C85.3716 22.2293 85.3289 22.976 85.2863 23.68C85.2436 24.3627 85.2009 25.0773 85.1583 25.824C85.0729 27.36 84.8596 28.608 84.5183 29.568C84.1769 30.5067 83.6756 31.1893 83.0143 31.616C82.3529 32.0213 81.4996 32.224 80.4543 32.224ZM98.353 32V15.52H101.777V20.832H106.001C107.942 20.832 109.468 21.312 110.577 22.272C111.686 23.232 112.241 24.608 112.241 26.4C112.241 28.2133 111.686 29.6 110.577 30.56C109.468 31.52 107.942 32 106.001 32H98.353ZM101.777 29.344H105.489C106.598 29.344 107.42 29.0773 107.953 28.544C108.508 28.0107 108.785 27.296 108.785 26.4C108.785 25.5253 108.508 24.8213 107.953 24.288C107.42 23.7547 106.598 23.488 105.489 23.488H101.777V29.344ZM122.599 32.416C120.913 32.416 119.452 32.032 118.215 31.264C116.999 30.496 116.06 29.3653 115.399 27.872C114.737 26.3573 114.407 24.4693 114.407 22.208C114.407 20.096 114.567 18.272 114.887 16.736C115.207 15.2 115.719 13.92 116.423 12.896C117.127 11.872 118.065 11.072 119.239 10.496C120.433 9.92 121.895 9.536 123.623 9.344L129.383 8.736L129.671 11.712L124.039 12.32C122.823 12.4693 121.809 12.704 120.999 13.024C120.188 13.344 119.537 13.792 119.047 14.368C118.577 14.944 118.215 15.6587 117.959 16.512C117.724 17.344 117.564 18.3573 117.479 19.552C117.799 18.8693 118.257 18.2827 118.855 17.792C119.473 17.28 120.177 16.8853 120.967 16.608C121.777 16.3307 122.62 16.192 123.495 16.192C124.945 16.192 126.215 16.5227 127.303 17.184C128.412 17.8453 129.265 18.7733 129.863 19.968C130.46 21.1413 130.759 22.528 130.759 24.128C130.759 25.7493 130.407 27.1787 129.703 28.416C129.02 29.6533 128.06 30.6347 126.823 31.36C125.607 32.064 124.199 32.416 122.599 32.416ZM122.599 29.408C124.049 29.408 125.18 28.9387 125.991 28C126.823 27.0613 127.239 25.8133 127.239 24.256C127.239 22.6987 126.833 21.4507 126.023 20.512C125.233 19.5733 124.113 19.104 122.663 19.104C121.703 19.104 120.871 19.3173 120.167 19.744C119.463 20.1493 118.919 20.7467 118.535 21.536C118.151 22.304 117.959 23.2107 117.959 24.256C117.959 25.8133 118.375 27.0613 119.207 28C120.039 28.9387 121.169 29.408 122.599 29.408ZM133.509 38.4V15.52H136.709V18.08C137.093 17.3547 137.573 16.7787 138.149 16.352C138.747 15.9253 139.387 15.616 140.069 15.424C140.773 15.232 141.477 15.136 142.181 15.136C143.568 15.136 144.816 15.4773 145.925 16.16C147.035 16.8427 147.909 17.8347 148.549 19.136C149.189 20.416 149.509 21.952 149.509 23.744C149.509 25.5573 149.189 27.1147 148.549 28.416C147.909 29.696 147.035 30.6773 145.925 31.36C144.837 32.0427 143.589 32.384 142.181 32.384C141.541 32.384 140.891 32.288 140.229 32.096C139.589 31.9253 138.981 31.6373 138.405 31.232C137.829 30.8267 137.339 30.2933 136.933 29.632V38.4H133.509ZM141.349 29.44C142.224 29.44 143.003 29.2373 143.685 28.832C144.389 28.4053 144.944 27.776 145.349 26.944C145.755 26.0907 145.957 25.0347 145.957 23.776C145.957 22.496 145.755 21.44 145.349 20.608C144.944 19.7547 144.389 19.1253 143.685 18.72C143.003 18.2933 142.224 18.08 141.349 18.08C140.496 18.08 139.717 18.2933 139.013 18.72C138.309 19.1253 137.744 19.7547 137.317 20.608C136.912 21.44 136.709 22.496 136.709 23.776C136.709 25.0347 136.912 26.0907 137.317 26.944C137.744 27.776 138.309 28.4053 139.013 28.832C139.717 29.2373 140.496 29.44 141.349 29.44ZM155.374 38.4L157.87 31.008L158.158 30.4L162.99 15.52H166.542L158.862 38.4H155.374ZM156.11 31.904L150.382 15.52H153.87L158.638 29.632H159.598L159.406 31.904H156.11ZM175.463 32.384C173.927 32.384 172.551 32.0427 171.335 31.36C170.14 30.6773 169.18 29.696 168.455 28.416C167.751 27.1147 167.399 25.5573 167.399 23.744C167.399 21.9307 167.751 20.384 168.455 19.104C169.18 17.824 170.14 16.8427 171.335 16.16C172.551 15.4773 173.927 15.136 175.463 15.136C177.319 15.136 178.844 15.5413 180.039 16.352C181.234 17.1627 182.098 18.368 182.631 19.968L179.495 21.024C179.09 19.9573 178.556 19.2 177.895 18.752C177.234 18.304 176.412 18.08 175.431 18.08C174.642 18.08 173.906 18.2827 173.223 18.688C172.54 19.072 171.986 19.68 171.559 20.512C171.154 21.344 170.951 22.4213 170.951 23.744C170.951 25.0667 171.154 26.1547 171.559 27.008C171.986 27.84 172.54 28.4587 173.223 28.864C173.906 29.248 174.642 29.44 175.431 29.44C176.391 29.44 177.202 29.216 177.863 28.768C178.546 28.2987 179.09 27.5307 179.495 26.464L182.631 27.52C182.098 29.0987 181.234 30.304 180.039 31.136C178.844 31.968 177.319 32.384 175.463 32.384Z" fill="#1E2020"/>
<defs>
<clipPath id="clip0_11118_259">
<rect width="40" height="32" fill="white" transform="translate(0 5)"/>
</clipPath>
</defs>
</svg>
