<svg width="1920" height="9058" viewBox="0 0 1920 9058" fill="none" xmlns="http://www.w3.org/2000/svg">
<g clip-path="url(#clip0_11129_2167)">
<g opacity="0.75">
<path fill-rule="evenodd" clip-rule="evenodd" d="M-3849.2 3830.48C-3637.03 3761.98 -3444.5 3705.27 -3238.5 3620.48C-2989.84 3517.73 -2988.15 3423.96 -2768.12 3304.93C-2074.9 2930.98 -1914.92 3382.97 -1543.33 3442.49C-1346.31 3436.88 -820.925 3030.92 -621.098 2910.2L1242.46 1814.19C1580.37 1578.93 1718.45 1391.95 2209.04 1614.3C2993.75 1970.28 4287.01 2808.58 4803.42 3465.51C4919.61 3613.18 5019.53 3736.71 5122.81 3885.5C5342.28 4202.18 5288.96 4217.9 5443.88 4216.78C5546.04 4183.09 5620.13 4065.74 5683 3935.48C5605.54 3594.09 4761.32 2929.86 4524.45 2682.24C4120.31 2259.44 3813.83 1855.18 3359.17 1443.05C3140.82 1244.84 2955.58 1057.87 2759.12 840.574L1562.41 -366.617C1403.55 -533.939 1220.01 -832.087 936.543 -902.273C604.807 -984.249 447.64 -576.612 278.124 -398.621C-293.853 201.605 -864.146 619.911 -1469.24 1414.97C-1694.33 1710.87 -2324.12 2204.42 -2683.36 2604.76C-3035.3 2997.24 -3638.15 3453.72 -3849.2 3830.48Z" fill="#FAFAFA"/>
<path fill-rule="evenodd" clip-rule="evenodd" d="M-1543.33 3442.49C-1051.62 3962.43 720.439 4354.34 1567.46 4539.63C3560.12 4975.34 3370.39 4523.35 4205.06 4462.71C4452.04 4444.74 4809.04 4582.87 4933.09 4773.77C5139.09 4630.59 5308.61 4450.92 5443.32 4216.22C5288.96 4217.34 5342.28 4201.62 5122.25 3884.94C5018.97 3736.15 4919.62 3612.62 4802.86 3464.95C4286.46 2808.02 2993.19 1970.28 2208.48 1613.74C1717.89 1390.83 1579.81 1578.36 1241.9 1813.63L-621.658 2909.64C-820.924 3030.36 -1346.87 3436.32 -1543.89 3441.93L-1543.33 3442.49Z" fill="#F9F8F8"/>
<path fill-rule="evenodd" clip-rule="evenodd" d="M4106.27 5621.83C3969.31 5444.4 3593.8 5392.75 3372.64 5357.37C3054.94 5306.84 2799.54 5332.67 2484.64 5354.57C1806.58 5402.29 1251.44 5302.35 589.653 5302.35C-33.9648 5301.79 -673.861 5433.17 -1285.69 5343.34L-2462.76 5079.44C-2882.62 4980.06 -2797.87 5031.15 -2837.72 5101.34C-1601 6553.13 -1708.61 7328.65 -82 8391.5C296.324 8858.09 1611.01 8898.41 2027.5 8433.5C3589.96 8096.65 3238.4 7145.41 3734.69 6063.16C3844.14 5933.46 4029.94 5737.5 4106.27 5621.83Z" fill="#F0F0F0"/>
<path fill-rule="evenodd" clip-rule="evenodd" d="M-3849.2 3830.48C-4102.36 3982.64 -3561.25 4416.67 -3484.35 4496.96C-3281.72 4707.52 -3067.86 4908.53 -2838.28 5102.24C-2798.43 5032.05 -2883.19 4980.4 -2463.32 5080.34L-1286.25 5344.24C-674.422 5434.08 -34.5253 5302.69 589.093 5303.25C1250.32 5303.81 1805.46 5403.2 2484.08 5355.47C2798.98 5333.57 3054.38 5307.74 3372.08 5358.28C3593.24 5393.65 3968.75 5445.31 4105.71 5622.74L4932.53 4774.33C4808.48 4583.43 4451.48 4445.3 4204.5 4463.27C3369.83 4523.91 3559.56 4975.34 1566.9 4540.19C719.878 4354.9 -1052.18 3962.99 -1543.89 3443.05C-1915.48 3384.1 -2074.9 2931.54 -2768.68 3305.49C-2988.71 3424.52 -2990.4 3518.29 -3239.06 3621.04C-3445.06 3705.83 -3638.15 3762.54 -3849.76 3831.04L-3849.2 3830.48Z" fill="#F4F4F4"/>
</g>
</g>
<path opacity="0.2" d="M1681.48 1385.97C1907.04 1615.14 2134.57 2217.8 1914.36 2495.76C1711.94 2751.29 2012.85 3307.41 1819.88 3459.71C1517.79 3698.02 1796.99 4106.6 1562.02 4183.19C1369.08 4246.07 1666.73 4428.66 1664.05 4689.76C1658.15 5263.19 1619.02 4892.21 1517.34 5235.88C1412.71 5589.53 2203.69 5569.05 2176.39 5769.36C2151.34 5953.18 1696.98 5689.15 1705.57 5950.19C1717.33 6307.57 1249.47 6402.14 1387.51 6976.21C1416.46 7096.52 1838.69 7020.7 1534.93 7473.38C1463.04 7580.45 1673.58 7787.17 1838.08 7529.23C1841.71 7523.51 2343.22 7237.31 2128.51 7686.21C1853.24 8010.42 2448.51 7874.42 2510.22 8632.53C2529.98 8875.19 2950.38 9197.24 2303.1 9193.32C2021.24 9191.61 2547.02 9787.43 2547.75 9809.83C2556.35 10071.1 2315.39 9702.05 2243.21 10320.7C2083.73 11687.3 1834.17 9988.86 1477.83 10683.3C1358.01 10916.8 1391.65 11033.6 1178.2 11380.4C1050.3 11588.2 1492.64 12339.2 1334.03 12449.9C1191.77 12549.1 1544.34 12960.9 1334.27 13309.2C1270.81 13414.4 1500.11 13757 1495.73 14063.6C1493.44 14224.9 1604.42 14129.6 1579.2 14505C1571.53 14618.8 1643 14800.7 1641.14 15072C1640.75 15129.8 2056.62 15154.2 1820.12 15506.7C1678.1 15718.5 2239.01 15531.5 1898.33 16215.6C1841.71 16329.2 1705.52 16711.2 1751.07 16817.2C1764.26 16847.9 1833.27 17406.9 1828.31 17423C1746.21 17442.6 1642.4 17976.9 1298.1 18210.9C1184.28 18288.3 1105.7 18820.4 1277.44 19043.2C1392.94 19193 1210.88 19462.3 1531.33 19123.6C1655.03 18992.8 1723.07 19674.3 1862.25 19658.8C1926.71 19758.7 1778.04 19894.1 1714.52 19997.3C1589.64 20200.2 1798.77 20144.3 1427.68 20303.4C1192.26 20404.3 1272.19 20575.6 1288.63 20782.8C1322.42 21210.1 880.824 21232.8 1170 21902.2C1180.9 21927.4 994.342 22111.9 967.149 22270.3C933.275 22467.4 633.496 21949.8 705.093 22403.2C734.785 22591.2 579.869 22491.7 718.944 22750.4C814.55 22928.2 814.344 22977.9 835.766 23176.8C878.582 23575.1 1194.28 23314.4 1075.8 23616C1064.27 23645.4 1260.33 23738.7 1269.08 24004.6C1272.06 24095.1 1259.3 24265.8 1159.73 24303.6" stroke="#FFB300" stroke-width="4.00018" stroke-miterlimit="22.9256"/>
<path opacity="0.2" d="M101.052 2386.97C-124.516 2616.14 -352.039 3218.8 -131.835 3496.76C70.5904 3752.29 -230.323 4308.41 -37.3544 4460.71C264.74 4699.02 -14.4634 5107.6 220.503 5184.19C413.448 5247.07 115.794 5429.66 118.482 5690.76C124.374 6264.19 163.505 5893.21 265.185 6236.88C369.818 6590.53 -421.161 6570.05 -393.865 6770.36C-368.813 6954.18 85.5463 6690.15 76.9552 6951.19C65.1938 7308.57 533.055 7403.14 395.014 7977.21C366.066 8097.52 -56.165 8021.7 247.594 8474.38C319.487 8581.45 108.951 8788.17 -55.5523 8530.23C-59.1842 8524.51 -560.695 8238.31 -345.982 8687.21C-70.7144 9011.42 -665.979 8875.42 -727.693 9633.53C-747.455 9876.19 -1167.86 10198.2 -520.572 10194.3C-238.714 10192.6 -764.488 10788.4 -765.225 10810.8C-773.823 11072.1 -532.865 10703 -460.683 11321.7C-301.206 12688.3 -51.6448 10989.9 304.697 11684.3C424.52 11917.8 390.879 12034.6 604.324 12381.4C732.227 12589.2 289.886 13340.2 448.495 13450.9C590.759 13550.1 238.189 13961.9 448.261 14310.2C511.721 14415.4 282.418 14758 286.799 15064.6C289.089 15225.9 178.109 15130.6 203.328 15506C211.001 15619.8 139.529 15801.7 141.386 16073C141.776 16130.8 -274.09 16155.2 -37.5971 16507.7C104.426 16719.5 -456.485 16532.5 -115.802 17216.6C-59.183 17330.2 77.0118 17712.2 31.4563 17818.2C18.2673 17848.9 -50.7398 18407.9 -45.7846 18424C36.3131 18443.6 140.124 18977.9 484.429 19211.9C598.243 19289.3 676.823 19821.4 505.084 20044.2C389.59 20194 571.651 20463.3 251.196 20124.6C127.499 19993.8 59.4535 20675.3 -79.7248 20659.8C-144.184 20759.7 4.48562 20895.1 68.0118 20998.3C192.887 21201.2 -16.2428 21145.3 354.844 21304.4C590.267 21405.3 510.338 21576.6 493.9 21783.8C460.107 22211.1 901.704 22233.8 612.524 22903.2C601.627 22928.4 788.185 23112.9 815.379 23271.3C849.252 23468.4 1149.03 22950.8 1077.43 23404.2C1047.74 23592.2 1202.66 23492.7 1063.58 23751.4C967.978 23929.2 968.183 23978.9 946.761 24177.8C903.945 24576.1 588.248 24315.4 706.73 24617C718.256 24646.4 522.194 24739.7 513.444 25005.6C510.467 25096.1 523.23 25266.8 622.795 25304.6" stroke="#FFB300" stroke-width="4.00018" stroke-miterlimit="22.9256"/>
<defs>
<clipPath id="clip0_11129_2167">
<rect width="9599" height="9670" fill="white" transform="translate(-3916 -913)"/>
</clipPath>
</defs>
</svg>
