<svg width="1916" height="6013" viewBox="0 0 1916 6013" fill="none" xmlns="http://www.w3.org/2000/svg">
<mask id="mask0_11189_2499" style="mask-type:alpha" maskUnits="userSpaceOnUse" x="0" y="0" width="1916" height="11965">
<rect width="1916" height="11965" fill="#D9D9D9"/>
</mask>
<g mask="url(#mask0_11189_2499)">
<g clip-path="url(#clip0_11189_2499)">
<g opacity="0.75">
<path fill-rule="evenodd" clip-rule="evenodd" d="M-3849.21 785.478C-3637.03 716.977 -3444.5 660.267 -3238.5 575.483C-2989.84 472.731 -2988.15 378.963 -2768.12 259.929C-2074.9 -114.02 -1914.92 337.975 -1543.33 397.492C-1346.31 391.877 -820.926 -14.0759 -621.099 -134.795L1242.46 -1230.81C1580.37 -1466.07 1718.45 -1653.05 2209.04 -1430.7C2993.75 -1074.72 4287.01 -236.423 4803.42 420.513C4919.61 568.184 5019.53 691.71 5122.81 840.503C5342.28 1157.18 5288.96 1172.9 5443.88 1171.78C5546.04 1138.09 5620.13 1020.74 5683 890.475C5605.54 549.093 4761.32 -115.143 4524.45 -362.758C4120.3 -785.555 3813.83 -1189.82 3359.17 -1601.95C3140.81 -1800.16 2955.58 -1987.13 2759.12 -2204.43L1562.41 -3411.62C1403.55 -3578.94 1220 -3877.09 936.542 -3947.27C604.806 -4029.25 447.639 -3621.61 278.123 -3443.62C-293.854 -2843.39 -864.147 -2425.09 -1469.24 -1630.03C-1694.33 -1334.13 -2324.12 -840.581 -2683.36 -440.242C-3035.3 -47.7649 -3638.15 408.722 -3849.21 785.478Z" fill="#FAFAFA"/>
<path fill-rule="evenodd" clip-rule="evenodd" d="M-1543.33 397.492C-1051.62 917.427 720.439 1309.34 1567.46 1494.63C3560.12 1930.34 3370.39 1478.35 4205.06 1417.71C4452.04 1399.74 4809.04 1537.87 4933.09 1728.77C5139.09 1585.59 5308.6 1405.92 5443.32 1171.22C5288.96 1172.34 5342.28 1156.62 5122.25 839.942C5018.97 691.148 4919.62 567.622 4802.86 419.952C4286.46 -236.985 2993.19 -1074.72 2208.48 -1431.26C1717.89 -1654.17 1579.81 -1466.64 1241.9 -1231.37L-621.659 -135.356C-820.924 -14.6371 -1346.87 391.316 -1543.89 396.931L-1543.33 397.492Z" fill="#F9F8F8"/>
<path fill-rule="evenodd" clip-rule="evenodd" d="M4106.27 2576.83C3969.31 2399.4 3593.8 2347.75 3372.64 2312.37C3054.94 2261.84 2799.54 2287.67 2484.64 2309.57C1806.58 2357.29 1251.44 2257.35 589.652 2257.35C-33.9662 2256.79 -673.862 2388.17 -1285.69 2298.34L-2462.76 2034.44C-2882.63 1935.06 -2797.87 1986.15 -2837.72 2056.34C-1601 3508.13 -1708.61 4283.65 -82.0015 5346.5C296.323 5813.09 1611 5853.41 2027.5 5388.5C3589.96 5051.65 3238.4 4100.41 3734.68 3018.16C3844.14 2888.46 4029.93 2692.5 4106.27 2576.83Z" fill="#F0F0F0"/>
<path fill-rule="evenodd" clip-rule="evenodd" d="M-3849.2 785.478C-4102.36 937.64 -3561.25 1371.67 -3484.35 1451.96C-3281.72 1662.52 -3067.86 1863.53 -2838.28 2057.24C-2798.43 1987.05 -2883.19 1935.4 -2463.32 2035.34L-1286.25 2299.24C-674.423 2389.08 -34.5263 2257.69 589.092 2258.25C1250.32 2258.81 1805.45 2358.2 2484.08 2310.47C2798.98 2288.57 3054.37 2262.74 3372.08 2313.28C3593.23 2348.65 3968.75 2400.31 4105.71 2577.74L4932.53 1729.33C4808.48 1538.43 4451.48 1400.3 4204.5 1418.27C3369.83 1478.91 3559.56 1930.34 1566.9 1495.19C719.877 1309.9 -1052.19 917.988 -1543.9 398.054C-1915.48 339.098 -2074.9 -113.459 -2768.68 260.49C-2988.71 379.524 -2990.4 473.292 -3239.06 576.044C-3445.06 660.828 -3638.15 717.538 -3849.77 786.039L-3849.2 785.478Z" fill="#F4F4F4"/>
</g>
</g>
<path opacity="0.2" d="M1681.48 -1659.03C1907.04 -1429.86 2134.57 -827.201 1914.36 -549.241C1711.94 -293.706 2012.85 262.414 1819.88 414.708C1517.79 653.017 1796.99 1061.6 1562.02 1138.19C1369.08 1201.07 1666.73 1383.66 1664.05 1644.76C1658.15 2218.19 1619.02 1847.21 1517.34 2190.88C1412.71 2544.53 2203.69 2524.05 2176.39 2724.36C2151.34 2908.18 1696.98 2644.15 1705.57 2905.19C1717.33 3262.57 1249.47 3357.14 1387.51 3931.21C1416.46 4051.52 1838.69 3975.7 1534.93 4428.38C1463.04 4535.45 1673.58 4742.17 1838.08 4484.23C1841.71 4478.51 2343.22 4192.31 2128.51 4641.21C1853.24 4965.42 2448.51 4829.42 2510.22 5587.53C2529.98 5830.19 2950.39 6152.24 2303.1 6148.32C2021.24 6146.61 2547.02 6742.43 2547.75 6764.83C2556.35 7026.1 2315.39 6657.05 2243.21 7275.66C2083.73 8642.26 1834.17 6943.86 1477.83 7638.33C1358.01 7871.84 1391.65 7988.61 1178.2 8335.38C1050.3 8543.23 1492.64 9294.24 1334.03 9404.88C1191.77 9504.13 1544.34 9915.94 1334.27 10264.2C1270.81 10369.4 1500.11 10712 1495.73 11018.6C1493.44 11179.9 1604.42 11084.6 1579.2 11460C1571.53 11573.8 1643 11755.7 1641.14 12027C1640.75 12084.8 2056.62 12109.2 1820.12 12461.7C1678.1 12673.5 2239.01 12486.5 1898.33 13170.6C1841.71 13284.2 1705.52 13666.2 1751.07 13772.2C1764.26 13802.9 1833.27 14361.9 1828.31 14378C1746.21 14397.6 1642.4 14931.9 1298.1 15165.9C1184.29 15243.3 1105.71 15775.4 1277.44 15998.2C1392.94 16148 1210.88 16417.3 1531.33 16078.6C1655.03 15947.8 1723.07 16629.3 1862.25 16613.8C1926.71 16713.7 1778.04 16849.1 1714.52 16952.3C1589.64 17155.2 1798.77 17099.3 1427.68 17258.4C1192.26 17359.3 1272.19 17530.6 1288.63 17737.8C1322.42 18165.1 880.824 18187.8 1170 18857.2C1180.9 18882.4 994.343 19066.9 967.149 19225.3C933.276 19422.4 633.497 18904.8 705.093 19358.2C734.786 19546.2 579.869 19446.7 718.944 19705.4C814.55 19883.2 814.344 19932.9 835.766 20131.8C878.583 20530.1 1194.28 20269.4 1075.8 20571C1064.27 20600.4 1260.33 20693.7 1269.08 20959.6C1272.06 21050.1 1259.3 21220.8 1159.73 21258.6" stroke="#FFB300" stroke-width="4.00018" stroke-miterlimit="22.9256"/>
<path opacity="0.2" d="M101.051 -658.035C-124.517 -428.862 -352.039 173.799 -131.835 451.759C70.59 707.294 -230.324 1263.41 -37.3549 1415.71C264.74 1654.02 -14.4639 2062.6 220.503 2139.19C413.447 2202.07 115.793 2384.66 118.481 2645.76C124.374 3219.19 163.505 2848.21 265.185 3191.88C369.818 3545.53 -421.162 3525.05 -393.866 3725.36C-368.814 3909.18 85.5458 3645.15 76.9547 3906.19C65.1933 4263.57 533.055 4358.14 395.014 4932.21C366.065 5052.52 -56.1655 4976.7 247.594 5429.38C319.487 5536.45 108.95 5743.17 -55.5528 5485.23C-59.1847 5479.51 -560.696 5193.31 -345.982 5642.21C-70.7148 5966.42 -665.979 5830.42 -727.693 6588.53C-747.455 6831.19 -1167.86 7153.24 -520.573 7149.32C-238.714 7147.61 -764.488 7743.43 -765.225 7765.83C-773.824 8027.1 -532.866 7658.05 -460.684 8276.66C-301.206 9643.26 -51.6453 7944.86 304.697 8639.33C424.519 8872.84 390.878 8989.61 604.323 9336.38C732.227 9544.23 289.886 10295.2 448.494 10405.9C590.758 10505.1 238.189 10916.9 448.26 11265.2C511.721 11370.4 282.418 11713 286.799 12019.6C289.088 12180.9 178.109 12085.6 203.327 12461C211.001 12574.8 139.529 12756.7 141.385 13028C141.775 13085.8 -274.09 13110.2 -37.5975 13462.7C104.425 13674.5 -456.486 13487.5 -115.802 14171.6C-59.1835 14285.2 77.0113 14667.2 31.4558 14773.2C18.2669 14803.9 -50.7403 15362.9 -45.7851 15379C36.3126 15398.6 140.124 15932.9 484.428 16166.9C598.242 16244.3 676.822 16776.4 505.084 16999.2C389.589 17149 571.65 17418.3 251.195 17079.6C127.498 16948.8 59.453 17630.3 -79.7253 17614.8C-144.185 17714.7 4.48513 17850.1 68.0113 17953.3C192.887 18156.2 -16.2433 18100.3 354.843 18259.4C590.267 18360.3 510.337 18531.6 493.899 18738.8C460.106 19166.1 901.703 19188.8 612.524 19858.2C601.626 19883.4 788.185 20067.9 815.378 20226.3C849.252 20423.4 1149.03 19905.8 1077.43 20359.2C1047.74 20547.2 1202.66 20447.7 1063.58 20706.4C967.977 20884.2 968.183 20933.9 946.761 21132.8C903.944 21531.1 588.247 21270.4 706.729 21572C718.255 21601.4 522.194 21694.7 513.443 21960.6C510.466 22051.1 523.229 22221.8 622.795 22259.6" stroke="#FFB300" stroke-width="4.00018" stroke-miterlimit="22.9256"/>
</g>
<defs>
<clipPath id="clip0_11189_2499">
<rect width="9599" height="9670" fill="white" transform="translate(-3916 -3958)"/>
</clipPath>
</defs>
</svg>
