<svg viewBox="0 0 85 27" xmlns="http://www.w3.org/2000/svg">
<path fill-rule="evenodd" clip-rule="evenodd" d="M75.5541 9.74901C75.0367 8.52717 70.5676 5.27992 68.9825 2.09871C68.6413 1.41624 68.5642 1.01997 68.5422 0.623692C68.4321 -1.57783 74.5964 2.72615 75.0808 3.11142C76.4237 4.19016 84.3272 10.8498 84.5363 13.4696C84.7344 15.9683 76.9961 21.6813 75.9504 22.4958C75.3449 22.9692 67.0012 28.44 68.8945 24.2681C70.3475 21.0869 75.2899 17.3223 75.488 16.7829C75.8073 15.9243 73.936 15.572 67.6176 15.451C61.2992 15.3299 49.2349 15.451 42.9165 15.7702C36.5981 16.0894 36.0477 16.6068 34.947 17.8066C33.8572 19.0064 32.2171 20.8777 30.8081 22.2096C29.3991 23.5416 28.1993 24.3451 27.1205 24.8405C26.0418 25.3358 25.0841 25.5339 22.1451 25.622C19.195 25.6991 14.2526 25.666 10.8072 25.7431C7.36185 25.8201 5.4135 26.0183 3.83942 26.0183C2.26533 26.0183 1.06549 25.8201 0.636191 25.4569C0.195884 25.0936 0.515113 24.5763 1.74796 23.4425C2.98082 22.3087 5.13831 20.5585 6.76744 19.0615C8.39657 17.5644 9.51935 16.3316 10.2348 15.2198C10.9503 14.108 11.2696 13.1063 10.3779 11.7194C9.48632 10.3214 7.37286 8.52716 5.45753 6.87602C3.54221 5.22487 1.83603 3.70582 0.922394 2.79219C0.00875846 1.87855 -0.112328 1.55933 0.0747985 1.26213C0.261932 0.964922 0.757278 0.689731 5.2594 0.623686C9.76152 0.568648 18.2704 0.722756 22.6404 0.84384C27.0105 0.964924 27.2526 1.04198 28.4304 2.15375C29.6083 3.26552 31.7217 5.42301 33.3068 6.97509C34.9029 8.52716 35.9707 9.47382 36.8953 10.0902C37.8089 10.7067 38.5685 10.9929 43.1697 11.136C47.7708 11.2791 56.2137 11.2791 61.8716 11.2571C67.5295 11.235 71.7124 11.202 73.5067 11.103C75.3009 11.0039 76.0164 10.8498 75.5541 9.77103L75.5541 9.74901ZM28.3204 15.5941C26.7133 15.3959 23.5431 15.3189 21.4186 15.3299C19.2941 15.3409 18.2264 15.4399 17.643 15.495C17.0596 15.55 16.9825 15.572 16.3331 16.0454C15.6836 16.5187 14.4728 17.4323 13.4271 18.357C12.3813 19.2816 11.5007 20.2173 11.1044 20.7126C10.7082 21.2079 10.7852 21.274 12.8657 21.285C14.9461 21.307 19.0299 21.285 21.3525 21.274C23.6862 21.263 24.2586 21.263 25.1722 20.7786C26.0858 20.2943 27.3407 19.3146 28.2103 18.5111C29.0799 17.7075 29.5532 17.0691 29.7624 16.5847C29.9715 16.1114 29.9165 15.7922 28.2984 15.5941L28.3204 15.5941ZM28.3204 10.9048C26.7133 11.1029 23.5431 11.18 21.4186 11.169C19.2941 11.158 18.2264 11.0589 17.643 11.0039C17.0596 10.9488 16.9825 10.9268 16.3331 10.4535C15.6836 9.98017 14.4728 9.06653 13.4271 8.14189C12.3813 7.21725 11.5007 6.28161 11.1044 5.78626C10.7082 5.29092 10.7852 5.22487 12.8657 5.20286C14.9461 5.18084 19.0299 5.20286 21.3525 5.21387C23.6862 5.22487 24.2586 5.22487 25.1722 5.70921C26.0858 6.19354 27.3407 7.17322 28.2103 7.97678C29.0799 8.78034 29.5532 9.41878 29.7624 9.90312C29.9715 10.3764 29.9165 10.6957 28.2984 10.8938L28.3204 10.9048Z" />
</svg>
