<svg viewBox="0 0 14 14" xmlns="http://www.w3.org/2000/svg">
<path d="M4.88887 11.9984L2.00187 9.11144C1.47442 8.584 1.2107 8.32027 1.17309 7.99822C1.16469 7.92633 1.16469 7.85371 1.17309 7.78182C1.2107 7.45976 1.47442 7.19604 2.00187 6.6686C2.52931 6.14115 2.79303 5.87743 3.11509 5.83981C3.18698 5.83142 3.2596 5.83142 3.33149 5.83981C3.65355 5.87743 3.91727 6.14115 4.44471 6.6686L4.87243 7.09632L7.09626 4.87249L6.66854 4.44477C6.14109 3.91733 5.87737 3.65361 5.83975 3.33155C5.83136 3.25966 5.83136 3.18704 5.83975 3.11515C5.87737 2.7931 6.14109 2.52937 6.66853 2.00193C7.19598 1.47448 7.4597 1.21076 7.78175 1.17315C7.85365 1.16475 7.92627 1.16475 7.99816 1.17315C8.32021 1.21076 8.58394 1.47448 9.11138 2.00193L11.9984 4.88893C12.5258 5.41637 12.7895 5.68009 12.8272 6.00215C12.8356 6.07404 12.8356 6.14666 12.8272 6.21855C12.7895 6.5406 12.5258 6.80433 11.9984 7.33177C11.4709 7.85922 11.2072 8.12294 10.8852 8.16055C10.8133 8.16895 10.7406 8.16895 10.6688 8.16055C10.3467 8.12294 10.083 7.85922 9.55553 7.33177L8.90693 6.68317L6.68311 8.90699L7.33171 9.55559C7.85915 10.083 8.12288 10.3468 8.16049 10.6688C8.16889 10.7407 8.16889 10.8133 8.16049 10.8852C8.12288 11.2073 7.85916 11.471 7.33171 11.9984C6.80427 12.5259 6.54054 12.7896 6.21849 12.8272C6.1466 12.8356 6.07398 12.8356 6.00209 12.8272C5.68003 12.7896 5.41631 12.5259 4.88887 11.9984Z" />
<path fill-rule="evenodd" clip-rule="evenodd" d="M10.2017 1.14816C10.3726 0.977306 10.6496 0.977306 10.8204 1.14816L12.6311 2.95883C12.802 3.12969 12.802 3.4067 12.6311 3.57755C12.4603 3.74841 12.1833 3.74841 12.0124 3.57755L10.2017 1.76688C10.0309 1.59602 10.0309 1.31901 10.2017 1.14816ZM1.14767 10.2014C1.31853 10.0306 1.59554 10.0306 1.76639 10.2014L3.57706 12.0121C3.74792 12.183 3.74792 12.46 3.57706 12.6308C3.40621 12.8017 3.1292 12.8017 2.95834 12.6308L1.14767 10.8202C0.976818 10.6493 0.976818 10.3723 1.14767 10.2014Z" />
</svg>
