<svg viewBox="0 0 12 12" xmlns="http://www.w3.org/2000/svg">
<path fill-rule="evenodd" clip-rule="evenodd" d="M2.55851 1.62382C2.85491 0.984375 3.87203 0.984375 5.90625 0.984375C7.94047 0.984375 8.95759 0.984375 9.25399 1.62382C9.27946 1.67878 9.30096 1.73587 9.31827 1.79456C9.51961 2.47733 8.80041 3.26867 7.36199 4.85136L6.39844 5.90625L7.36199 6.96114C8.80041 8.54383 9.51961 9.33518 9.31827 10.0179C9.30096 10.0766 9.27946 10.1337 9.25399 10.1887C8.95759 10.8281 7.94047 10.8281 5.90625 10.8281C3.87203 10.8281 2.85491 10.8281 2.55851 10.1887C2.53304 10.1337 2.51154 10.0766 2.49424 10.0179C2.29289 9.33518 3.01209 8.54383 4.45051 6.96113L5.41406 5.90625L4.45051 4.85137C3.01209 3.26867 2.29289 2.47733 2.49424 1.79456C2.51154 1.73587 2.53304 1.67878 2.55851 1.62382ZM4.92188 8.73633C4.718 8.73633 4.55273 8.9016 4.55273 9.10547C4.55273 9.30934 4.718 9.47461 4.92188 9.47461H6.89063C7.0945 9.47461 7.25977 9.30934 7.25977 9.10547C7.25977 8.9016 7.0945 8.73633 6.89063 8.73633H4.92188ZM4.55273 2.70703C4.55273 2.50316 4.718 2.33789 4.92188 2.33789H6.89063C7.0945 2.33789 7.25977 2.50316 7.25977 2.70703C7.25977 2.9109 7.0945 3.07617 6.89063 3.07617H4.92188C4.718 3.07617 4.55273 2.9109 4.55273 2.70703Z" />
</svg>
