<svg viewBox="0 0 24 24" xmlns="http://www.w3.org/2000/svg">
<path d="M18 2H6C2.4 2 0 3.76471 0 7.88235V16.1176C0 20.2353 2.4 22 6 22H18C21.6 22 24 20.2353 24 16.1176V7.88235C24 3.76471 21.6 2 18 2ZM18.564 9.16471L14.808 12.1059C14.016 12.7294 13.008 13.0353 12 13.0353C10.992 13.0353 9.972 12.7294 9.192 12.1059L5.436 9.16471C5.052 8.85882 4.992 8.29412 5.292 7.91765C5.604 7.54118 6.168 7.47059 6.552 7.77647L10.308 10.7176C11.22 11.4353 12.768 11.4353 13.68 10.7176L17.436 7.77647C17.82 7.47059 18.396 7.52941 18.696 7.91765C19.008 8.29412 18.948 8.85882 18.564 9.16471Z" />
</svg>
