<svg viewBox="0 0 85 26" xmlns="http://www.w3.org/2000/svg">
<path fill-rule="evenodd" clip-rule="evenodd" d="M8.98303 16.2583C9.50039 17.4802 13.9695 20.7274 15.5546 23.9086C15.8958 24.5911 15.9729 24.9874 15.9949 25.3836C16.105 27.5852 9.94069 23.2812 9.45636 22.8959C8.11343 21.8172 0.209954 15.1576 0.000809189 12.5377C-0.197328 10.039 7.54103 4.32605 8.58675 3.51149C9.19217 3.03816 17.536 -2.43263 15.6426 1.73926C14.1896 4.92047 9.24721 8.68507 9.04908 9.22445C8.72985 10.083 10.6012 10.4353 16.9195 10.5564C23.2379 10.6775 35.3023 10.5564 41.6206 10.2372C47.939 9.91793 48.4894 9.40057 49.5901 8.20074C50.6799 7.00091 52.32 5.12961 53.729 3.79769C55.138 2.46577 56.3378 1.66221 57.4166 1.16687C58.4953 0.671527 59.453 0.47339 62.392 0.385328C65.3421 0.308275 70.2845 0.341301 73.7299 0.264246C77.1753 0.187193 79.1236 -0.0109438 80.6977 -0.0109437C82.2718 -0.0109436 83.4716 0.187192 83.9009 0.550445C84.3412 0.913695 84.022 1.43105 82.7891 2.56484C81.5563 3.69862 79.3988 5.44884 77.7697 6.94587C76.1405 8.44291 75.0178 9.67576 74.3023 10.7875C73.5868 11.8993 73.2675 12.901 74.1592 14.288C75.0508 15.6859 77.1642 17.4802 79.0796 19.1313C80.9949 20.7825 82.7011 22.3015 83.6147 23.2151C84.5283 24.1288 84.6494 24.448 84.4623 24.7452C84.2752 25.0424 83.7798 25.3176 79.2777 25.3836C74.7756 25.4387 66.2667 25.2846 61.8967 25.1635C57.5266 25.0424 57.2845 24.9654 56.1067 23.8536C54.9288 22.7418 52.8154 20.5843 51.2303 19.0322C49.6342 17.4802 48.5664 16.5335 47.6418 15.9171C46.7282 15.3007 45.9686 15.0145 41.3675 14.8714C36.7663 14.7283 28.3234 14.7283 22.6655 14.7503C17.0076 14.7723 12.8247 14.8053 11.0304 14.9044C9.23621 15.0034 8.52071 15.1576 8.98303 16.2363V16.2583ZM56.2167 10.4133C57.8238 10.6114 60.994 10.6885 63.1185 10.6775C65.243 10.6664 66.3107 10.5674 66.8941 10.5123C67.4775 10.4573 67.5546 10.4353 68.204 9.96196C68.8535 9.48863 70.0643 8.575 71.11 7.65036C72.1558 6.72572 73.0364 5.79007 73.4327 5.29473C73.8289 4.79939 73.7519 4.73334 71.6714 4.72233C69.591 4.70032 65.5072 4.72233 63.1846 4.73334C60.8509 4.74435 60.2785 4.74435 59.3649 5.22868C58.4513 5.71302 57.1964 6.6927 56.3268 7.49625C55.4572 8.29981 54.9839 8.93825 54.7747 9.42259C54.5656 9.89592 54.6206 10.2151 56.2388 10.4133L56.2167 10.4133ZM56.2167 15.1025C57.8238 14.9044 60.994 14.8273 63.1185 14.8383C65.243 14.8493 66.3107 14.9484 66.8941 15.0035C67.4775 15.0585 67.5546 15.0805 68.204 15.5538C68.8535 16.0272 70.0643 16.9408 71.11 17.8654C72.1558 18.7901 73.0364 19.7257 73.4327 20.2211C73.8289 20.7164 73.7519 20.7825 71.6714 20.8045C69.591 20.8265 65.5072 20.8045 63.1846 20.7935C60.8509 20.7825 60.2785 20.7825 59.3649 20.2981C58.4513 19.8138 57.1964 18.8341 56.3268 18.0305C55.4572 17.227 54.9839 16.5885 54.7747 16.1042C54.5656 15.6309 54.6206 15.3117 56.2388 15.1135L56.2167 15.1025Z" />
</svg>
