<svg viewBox="0 0 28 28" xmlns="http://www.w3.org/2000/svg">
<path d="M14.4348 14.007C14.4348 14.2362 14.3438 14.456 14.1817 14.6181C14.0196 14.7802 13.7997 14.8713 13.5705 14.8713C13.3413 14.8713 13.1214 14.7802 12.9593 14.6181C12.7973 14.456 12.7062 14.2362 12.7062 14.007C12.7062 13.7777 12.7973 13.5579 12.9593 13.3958C13.1214 13.2337 13.3413 13.1426 13.5705 13.1426C13.7997 13.1426 14.0196 13.2337 14.1817 13.3958C14.3438 13.5579 14.4348 13.7777 14.4348 14.007ZM18.2849 15.6327C18.2824 15.9632 18.1933 16.2872 18.0265 16.5724C17.8596 16.8577 17.6209 17.0942 17.334 17.2583C17.0472 17.4224 16.7223 17.5084 16.3919 17.5076C16.0614 17.5069 15.7369 17.4195 15.4508 17.2542C15.4478 19.8182 11.6911 19.8169 11.6911 17.2542C9.46329 18.4759 7.6612 15.2438 9.84748 13.9828C7.66336 12.7226 9.45854 9.49524 11.6859 10.7087C11.6859 10.2087 11.8845 9.72909 12.2381 9.37549C12.5917 9.02189 13.0713 8.82324 13.5714 8.82324C14.0714 8.82324 14.551 9.02189 14.9046 9.37549C15.2582 9.72909 15.4569 10.2087 15.4569 10.7087C17.6846 9.49481 19.4785 12.7243 17.2953 13.9828C17.5937 14.1429 17.8433 14.3808 18.0175 14.6713C18.1917 14.9618 18.2841 15.294 18.2849 15.6327ZM15.2991 14.007C15.2991 13.5485 15.117 13.1088 14.7928 12.7846C14.4686 12.4605 14.029 12.2783 13.5705 12.2783C13.112 12.2783 12.6724 12.4605 12.3482 12.7846C12.024 13.1088 11.8419 13.5485 11.8419 14.007C11.8419 14.4654 12.024 14.9051 12.3482 15.2293C12.6724 15.5535 13.112 15.7356 13.5705 15.7356C14.029 15.7356 14.4686 15.5535 14.7928 15.2293C15.117 14.9051 15.2991 14.4654 15.2991 14.007Z" />
</svg>
