<svg viewBox="0 0 20 20" xmlns="http://www.w3.org/2000/svg">
<path d="M17.5 14.0245V9.30223C17.5 8.43257 17.5 7.99775 17.2641 7.67039C17.0735 7.40595 16.7676 7.2654 16.2222 7.07617C16.1107 8.41468 15.6674 9.7816 14.9713 10.978C14.1607 12.371 12.957 13.6164 11.4142 14.2895C10.515 14.6817 9.48498 14.6817 8.58585 14.2895C7.04303 13.6164 5.83932 12.371 5.02874 10.978C4.50071 10.0705 4.11817 9.06496 3.91551 8.04809C3.59673 8.00114 3.35208 8.02523 3.14097 8.14301C3.05674 8.19001 2.97823 8.24659 2.90701 8.31164C2.5 8.68338 2.5 9.37459 2.5 10.757V14.8651C2.5 15.7347 2.5 16.1696 2.73595 16.4969C2.97189 16.8243 3.38441 16.9618 4.20943 17.2368L4.52907 17.3433C5.84322 17.7814 6.50029 18.0004 7.1724 18.0017C7.37483 18.0021 7.57702 17.9877 7.77736 17.9587C8.44253 17.8624 9.06742 17.55 10.3172 16.9251C11.2749 16.4462 11.7538 16.2068 12.2625 16.0957C12.441 16.0567 12.6219 16.0295 12.804 16.0142C13.3229 15.9708 13.8464 16.0581 14.8934 16.2326C15.9546 16.4094 16.4851 16.4978 16.8725 16.2754C17.004 16.1999 17.1207 16.101 17.2169 15.9836C17.5 15.6381 17.5 15.1002 17.5 14.0245Z"/>
<path fill-rule="evenodd" clip-rule="evenodd" d="M10 1.66699C7.23858 1.66699 5 3.79375 5 6.41725C5 9.02018 6.59583 12.0576 9.08567 13.1438C9.66609 13.397 10.3339 13.397 10.9143 13.1438C13.4042 12.0576 15 9.02018 15 6.41725C15 3.79375 12.7614 1.66699 10 1.66699ZM10 8.33366C10.9205 8.33366 11.6667 7.58747 11.6667 6.66699C11.6667 5.74652 10.9205 5.00033 10 5.00033C9.07953 5.00033 8.33333 5.74652 8.33333 6.66699C8.33333 7.58747 9.07953 8.33366 10 8.33366Z" />
</svg>
