<svg viewBox="0 0 28 28" xmlns="http://www.w3.org/2000/svg">
<path fill-rule="evenodd" clip-rule="evenodd" d="M13.7095 9.59783C12.2601 9.72023 11.1157 10.5265 10.5095 11.533C10.0666 12.2674 9.83342 13.0795 9.90337 13.9985C10.0685 16.1726 11.9376 17.9503 14.2963 17.7949C16.4509 17.6531 18.2811 15.7529 18.1043 13.3962C18.0111 12.1586 17.3932 11.2163 16.754 10.6431C16.0876 10.0447 14.9821 9.49292 13.7076 9.59978L13.7095 9.59783Z" />
<path fill-rule="evenodd" clip-rule="evenodd" d="M10.4336 10.876L10.7445 10.5302C10.8494 10.4214 10.966 10.3145 11.0884 10.2096C11.2593 10.0639 11.4692 9.91622 11.6712 9.79576C11.7354 9.7569 11.8306 9.71416 11.8869 9.67142C11.8461 9.63061 11.6887 9.56456 11.6227 9.52958L10.2529 8.83791C10.1636 8.79128 9.75943 8.57951 9.69531 8.56396L10.4336 10.876Z" />
<path fill-rule="evenodd" clip-rule="evenodd" d="M16.1421 9.68696C16.521 9.8521 17.1563 10.3709 17.4244 10.7031C17.4691 10.7594 17.5313 10.8352 17.5798 10.8838C17.5876 10.876 17.5876 10.876 17.5973 10.8585L17.7683 10.3126C17.848 10.06 18.2812 8.69608 18.3045 8.56396C18.2074 8.59505 16.6472 9.4169 16.4083 9.53736L16.1712 9.65976C16.1382 9.68307 16.1576 9.66753 16.1421 9.6889V9.68696Z" />
<path fill-rule="evenodd" clip-rule="evenodd" d="M18.5549 13.8389C18.654 13.7922 19.8897 12.9743 20.0859 12.8557C20.1733 12.8033 20.2608 12.7431 20.3443 12.6887L20.5386 12.5643C20.5502 12.5565 20.56 12.5527 20.5716 12.5429C20.6085 12.5119 20.5833 12.5371 20.6008 12.5119L18.2227 11.9814C18.3101 12.3001 18.3859 12.3875 18.4694 12.8227C18.5763 13.3862 18.516 13.4134 18.5549 13.8389Z" />
<path fill-rule="evenodd" clip-rule="evenodd" d="M7.39893 12.5801C7.45138 12.6481 8.3218 13.1746 8.42089 13.2368C8.59964 13.3495 8.7473 13.4408 8.93381 13.5593C9.02513 13.6176 9.1009 13.6662 9.19416 13.7245C9.26022 13.7653 9.39428 13.8605 9.46034 13.8857C9.45062 13.5263 9.47005 13.2174 9.53028 12.8774C9.60994 12.4286 9.70709 12.2926 9.76926 12.0283L7.39893 12.5782V12.5801Z" />
<path fill-rule="evenodd" clip-rule="evenodd" d="M8.2246 17.0855L10.6396 16.7629L10.3618 16.4113C10.2685 16.2869 10.185 16.1645 10.0995 16.0227C10.0159 15.8847 9.94795 15.7526 9.87412 15.5972C9.84109 15.5253 9.80806 15.4476 9.77697 15.3738C9.75366 15.3135 9.7148 15.1834 9.68566 15.1387C9.64291 15.1717 8.66952 16.4832 8.58986 16.59L8.22266 17.0874L8.2246 17.0855Z" />
<path fill-rule="evenodd" clip-rule="evenodd" d="M17.397 16.7243L19.8159 17.0274C19.779 16.9497 19.5186 16.6214 19.4487 16.532L18.7104 15.5702C18.6501 15.4886 18.588 15.4148 18.5258 15.3293C18.4831 15.271 18.382 15.1292 18.3373 15.0942C18.248 15.2361 18.1508 15.7937 17.5446 16.5456C17.498 16.6039 17.4319 16.6699 17.397 16.7243Z" />
<path fill-rule="evenodd" clip-rule="evenodd" d="M14.6694 18.2026C14.718 18.2745 14.8113 18.3542 14.8715 18.426C14.9375 18.5018 15.0094 18.5737 15.0755 18.6475L15.6992 19.312C15.8274 19.4402 16.2373 19.9046 16.3248 19.9804L16.4336 17.5479L16.0333 17.7616C15.7438 17.9034 15.4835 18.0044 15.1649 18.0899L14.7977 18.1696C14.7743 18.1735 14.7452 18.1773 14.7238 18.1812C14.7005 18.1851 14.7122 18.1832 14.6927 18.189C14.6558 18.2026 14.6811 18.1929 14.6675 18.2026H14.6694Z" />
<path fill-rule="evenodd" clip-rule="evenodd" d="M11.7449 19.9999C11.7916 19.9746 12.9612 18.6787 12.9884 18.6476C13.0525 18.5758 13.3789 18.2455 13.3886 18.1969C12.3667 18.0745 11.7799 17.6199 11.6187 17.5693L11.7449 19.9999Z" />
<path fill-rule="evenodd" clip-rule="evenodd" d="M13.0605 9.24405C13.4297 9.21297 13.4958 9.1508 14.0067 9.1508C14.4847 9.14885 14.5721 9.20714 14.949 9.24794L14.0126 7.00195L13.0605 9.246V9.24405Z" />
</svg>
