<svg viewBox="0 0 28 28" xmlns="http://www.w3.org/2000/svg">
<path fill-rule="evenodd" clip-rule="evenodd" d="M11.6598 9.59984L11.6165 9.61459C11.5323 9.66721 11.5297 9.65417 11.5121 9.73572C11.5011 9.78665 11.527 9.78083 11.5038 9.86778C11.5554 9.95742 11.6157 10.2871 11.6066 10.3598C11.6823 10.5964 11.7184 10.9041 11.7653 11.1628C11.7947 11.3252 11.935 11.7827 11.8609 11.9142C11.7394 11.8796 10.5961 10.9696 10.468 10.8366C10.3801 10.8034 10.4385 10.794 10.3354 10.7797C10.2023 10.8701 10.1825 11.0143 10.1313 11.1488C9.98135 11.5428 9.97483 11.7213 9.67156 11.7491C9.46688 11.7678 7.78547 11.9387 7.67 11.9034L7.61184 11.919C7.47809 11.9525 7.41057 11.92 7.30518 12.0049C7.34291 12.1713 7.89383 12.9217 8.02787 13.1271C8.08971 13.196 8.76404 14.1713 8.81921 14.2981C8.93014 14.5528 8.52191 15.177 8.54475 15.3207C8.58162 15.5526 9.78461 15.6044 9.94559 15.8556C9.71836 16.2438 8.67708 16.9264 8.36318 17.3367C8.43737 17.4525 8.60077 17.4756 8.71396 17.5139C8.87723 17.5876 9.2029 17.6374 9.33268 17.7349C9.36686 17.7309 9.33027 17.7169 9.40389 17.742C9.51084 17.7781 9.41666 17.7374 9.47013 17.7837C9.62105 17.7831 9.64758 17.815 9.77495 17.8613C9.90658 17.9089 9.96261 17.8918 10.0745 17.976C10.1111 17.9715 10.0683 17.9555 10.146 17.9828C10.2218 18.0095 10.1764 17.9935 10.2138 18.0277C10.5293 18.0701 10.3585 18.7511 10.5723 18.8329C10.6842 18.8757 10.854 18.754 11.047 18.6625C11.1809 18.5991 12.4209 17.9904 12.5294 17.9909C12.6036 17.9194 12.6262 17.9174 12.7244 17.8745C12.906 17.7818 13.046 17.7047 13.2296 17.7213C13.811 17.7739 13.7823 17.7017 13.7456 18.6122L13.6942 19.5075C13.6932 19.6479 13.6523 19.8108 13.7254 19.9468C13.8457 20.019 14.1216 20.0181 14.2672 19.9408C14.2819 19.8925 14.2913 19.8065 14.3064 19.7786L14.2225 18.3799C14.2154 18.0111 14.0843 17.7994 14.5372 17.7492C14.9576 17.7027 14.9796 17.7223 15.3264 17.8967L17.173 18.7664C17.3551 18.8569 17.4098 18.916 17.5401 18.7068C17.5202 18.642 17.566 18.3672 17.6117 18.3015C17.6262 18.0557 17.7358 18.0152 17.9886 17.9362C18.0925 17.9037 18.1908 17.8711 18.2917 17.8386C18.342 17.8225 18.3802 17.8084 18.4328 17.7922C18.4548 17.7852 18.4813 17.7763 18.5036 17.7719L18.6033 17.7631C18.6688 17.7072 18.7724 17.6804 18.8571 17.6567L19.5318 17.462L19.6446 17.3546L19.547 17.198C19.4192 17.1611 18.9286 16.674 18.7869 16.5468C18.6232 16.3996 18.1198 16.0051 18.064 15.8252C18.211 15.7267 19.027 15.4847 19.1491 15.5143C19.2462 15.4519 19.3271 15.443 19.4415 15.4109C19.4599 15.1488 19.3049 14.9652 19.3212 14.8394L19.2466 14.693C19.1605 14.5037 19.1375 14.3986 19.2107 14.2608C19.2559 14.1753 19.392 13.9848 19.4643 13.9106C19.4805 13.8336 19.985 13.0867 20.065 13.0391C20.1128 12.8189 20.7011 12.1977 20.6947 11.996C20.5518 11.8847 20.5584 11.9891 20.3603 11.9061C20.3269 11.9289 20.3364 11.9633 20.3273 11.9079C20.1689 11.9252 19.3107 11.8349 19.0786 11.8131C18.1615 11.7268 18.1477 11.8279 17.9613 11.3689L17.8188 10.978L17.6985 10.7818C17.5517 10.8079 17.4012 10.9672 17.2628 11.0644L17.188 11.0991L16.6796 11.5282C16.5298 11.645 16.3141 11.8356 16.1442 11.9295C16.1074 11.8008 16.1256 11.7733 16.1679 11.6943C16.1243 11.5668 16.3084 10.8515 16.3287 10.7084C16.3528 10.5386 16.3934 10.3928 16.422 10.2241C16.4399 10.1189 16.4738 9.84042 16.5127 9.75673C16.4254 9.59134 16.3533 9.62141 16.2063 9.62269C16.1003 9.62368 16.0123 9.61815 15.905 9.62283C15.5829 9.63092 15.4751 9.68184 15.2869 9.32666C15.0727 8.92226 14.1351 7.12199 14.0001 7C13.8791 7.05646 13.5867 7.67915 13.505 7.82922C13.3525 8.10908 13.2114 8.39078 13.0659 8.6671L12.6208 9.50369C12.4832 9.67248 12.2955 9.62199 12.1313 9.62099L11.6598 9.59986V9.59984Z" />
</svg>
