<svg viewBox="0 0 24 24" xmlns="http://www.w3.org/2000/svg">
<path d="M14.906 16.3757C12.0728 19.3417 4.84606 12.2163 7.68992 9.23852C9.42652 7.42009 7.46515 5.34273 6.37919 3.81384C4.34093 0.947903 -0.131876 4.9049 0.00298276 7.42245C0.432401 15.3623 9.06453 24.7711 17.4234 23.9495C20.0378 23.693 23.0425 18.9945 20.0437 17.2773C18.5437 16.4181 16.4841 14.7232 14.906 16.3745" />
<path d="M17.7693 12.398C17.2557 12.398 16.8496 11.9821 16.8496 11.483C16.8496 11.0433 16.4077 10.1284 15.6672 9.3322C14.9386 8.55982 14.1384 8.10827 13.4695 8.10827C12.9559 8.10827 12.5498 7.69237 12.5498 7.1933C12.5498 6.69422 12.9678 6.27832 13.4695 6.27832C14.6639 6.27832 15.918 6.91999 17.0169 8.07263C18.044 9.15396 18.701 10.4967 18.701 11.4711C18.701 11.9821 18.2829 12.398 17.7693 12.398Z" />
<path d="M22.0799 12.3975C21.5663 12.3975 21.1602 11.9816 21.1602 11.4825C21.1602 7.26408 17.7084 3.84184 13.4802 3.84184C12.9666 3.84184 12.5605 3.42594 12.5605 2.92686C12.5605 2.42778 12.9666 2 13.4683 2C18.7236 2 22.9996 6.25405 22.9996 11.4825C22.9996 11.9816 22.5816 12.3975 22.0799 12.3975Z" />
</svg>
