<svg viewBox="0 0 12 12" xmlns="http://www.w3.org/2000/svg">
<path fill-rule="evenodd" clip-rule="evenodd" d="M1.67578 9.04102C1.67578 9.3808 1.95123 9.65625 2.29102 9.65625C2.6308 9.65625 2.90625 9.3808 2.90625 9.04102C2.90625 8.70123 2.6308 8.42578 2.29102 8.42578C1.95123 8.42578 1.67578 8.70123 1.67578 9.04102ZM2.29102 10.3945C1.54349 10.3945 0.9375 9.78854 0.9375 9.04102C0.9375 8.42146 1.35377 7.89913 1.92188 7.73845L1.92187 3.87305C1.92187 2.71778 2.8584 1.78125 4.01367 1.78125C5.16894 1.78125 6.10547 2.71778 6.10547 3.87305V8.30273C6.10547 9.05026 6.71146 9.65625 7.45899 9.65625C8.20651 9.65625 8.8125 9.05026 8.8125 8.30273V3.04157L8.45829 3.39579C8.31413 3.53995 8.0804 3.53995 7.93625 3.39579C7.79209 3.25163 7.79209 3.0179 7.93625 2.87374L8.92062 1.88937C9.06478 1.74521 9.29851 1.74521 9.44266 1.88937L10.427 2.87374C10.5712 3.0179 10.5712 3.25163 10.427 3.39579C10.2829 3.53995 10.0492 3.53995 9.90499 3.39579L9.55078 3.04157V8.30273C9.55078 9.458 8.61425 10.3945 7.45899 10.3945C6.30372 10.3945 5.36719 9.458 5.36719 8.30273L5.36719 3.87305C5.36719 3.12552 4.7612 2.51953 4.01367 2.51953C3.26615 2.51953 2.66016 3.12552 2.66016 3.87305L2.66016 7.73845C3.22827 7.89913 3.64453 8.42146 3.64453 9.04102C3.64453 9.78854 3.03854 10.3945 2.29102 10.3945Z" />
</svg>
