<svg viewBox="0 0 24 24" xmlns="http://www.w3.org/2000/svg">
<path d="M21.7183 7.51707C20.5352 2.33366 15.9944 0 12.0056 0C12.0056 0 12.0056 0 11.9944 0C8.01689 0 3.46477 2.32244 2.28167 7.50585C0.963353 13.2951 4.52393 18.198 7.74647 21.2834C8.94084 22.4278 10.4732 23 12.0056 23C13.538 23 15.0704 22.4278 16.2535 21.2834C19.4761 18.198 23.0366 13.3063 21.7183 7.51707ZM12.0056 13.138C10.0451 13.138 8.45633 11.5561 8.45633 9.6039C8.45633 7.65171 10.0451 6.06976 12.0056 6.06976C13.9662 6.06976 15.5549 7.65171 15.5549 9.6039C15.5549 11.5561 13.9662 13.138 12.0056 13.138Z"/>
</svg>
