<svg viewBox="0 0 14 14" xmlns="http://www.w3.org/2000/svg">
<path d="M11.992 0.344555C12.4515 -0.114701 13.1967 -0.11484 13.6561 0.344555C14.1153 0.803964 14.1153 1.54919 13.6561 2.00861L8.66391 6.99982L13.6551 11.992C14.1146 12.4515 14.1146 13.1966 13.6551 13.6561C13.1958 14.115 12.4514 14.115 11.992 13.6561L6.99985 8.66388L2.00866 13.6561C1.54924 14.1153 0.804024 14.1153 0.344598 13.6561C-0.114814 13.1966 -0.11471 12.4515 0.344598 11.992L5.3358 6.99982L0.344598 2.00861C-0.114866 1.54915 -0.114866 0.804019 0.344598 0.344555C0.804069 -0.114822 1.54922 -0.114881 2.00866 0.344555L6.99985 5.33576L11.992 0.344555Z" />
</svg>
