<svg viewBox="0 0 28 28" xmlns="http://www.w3.org/2000/svg">
<path fill-rule="evenodd" clip-rule="evenodd" d="M13.4284 8.14832V9.21838C13.4284 9.56428 13.2267 9.4299 13.0482 9.33534C12.937 9.27561 12.6991 9.13128 12.5905 9.09644C12.1715 8.96455 11.7991 9.34778 11.931 9.74594C11.9956 9.94502 12.112 9.99479 12.2801 10.0894C12.5775 10.2561 12.8905 10.4054 13.1801 10.5821C13.4594 10.7538 13.4 11.1967 13.4 11.5302C13.4 12.0403 12.8051 11.4555 12.4922 11.3734C12.2543 11.3112 12.2931 11.5775 12.2931 11.7318C12.2931 11.8612 12.3241 12.217 12.2594 12.2991C12.1612 12.4161 11.9206 12.2369 11.8301 12.1872C11.4344 11.9682 11.2405 11.9408 11.2431 11.4307L11.2456 10.7936C11.2456 10.495 11.2844 10.3332 11.1034 10.1416C10.7775 9.79571 10.1931 9.95995 10.1931 10.5049C10.1931 10.6393 10.1931 10.7737 10.1931 10.9106C10.1931 11.361 10.0353 11.2092 9.53358 10.9305C9.35254 10.8284 9.17668 10.7339 9.00082 10.6343C8.80685 10.5273 8.62841 10.4278 8.35944 10.5572C8.10341 10.6816 8.0103 10.8036 8.00772 11.0997C8.00772 11.4705 8.23789 11.5377 8.50427 11.677C8.74737 11.8039 8.98013 11.9259 9.22323 12.0553C9.31892 12.105 9.54392 12.1896 9.43272 12.329C9.39134 12.3813 9.16116 12.4908 9.08875 12.5306C8.81203 12.6824 8.60513 12.7371 8.60513 13.1378C8.60513 13.3916 8.81461 13.5782 9.04737 13.6081C9.33185 13.6454 9.53358 13.4737 9.71979 13.3692C9.91634 13.2597 10.1155 13.1477 10.3069 13.0382C10.6172 12.8615 10.7465 12.9163 11.0129 13.0631C11.1138 13.1179 11.2069 13.1726 11.3051 13.2298C11.3905 13.2771 11.5482 13.3344 11.512 13.4613C11.4836 13.5583 11.062 13.7773 10.956 13.837C10.5991 14.0436 10.837 14.1357 11.0879 14.275C11.2741 14.3795 11.4991 14.5288 11.6905 14.606C11.6517 14.6831 11.2896 14.8573 11.1913 14.9146C11.0258 15.0091 10.8344 15.1535 10.5836 15.1062C10.4284 15.0763 9.70944 14.6433 9.52582 14.5363C9.29823 14.4044 9.15341 14.3895 8.90254 14.5164C8.71375 14.611 8.61289 14.7727 8.62582 15.044C8.63616 15.2903 8.81461 15.3899 8.99823 15.477C9.0991 15.5242 9.49737 15.6785 9.50772 15.783C9.52065 15.9075 9.19479 16.0319 9.0422 16.114C8.85341 16.2136 8.69048 16.3031 8.50685 16.3952C8.29737 16.5022 8.14996 16.5545 8.0491 16.7486C7.94565 16.9477 8.00513 17.2413 8.13961 17.3707C8.25082 17.4777 8.52754 17.5773 8.7422 17.5449C8.89737 17.5225 9.16375 17.3558 9.29565 17.2836C9.3991 17.2264 9.9991 16.878 10.0974 16.8705C10.3922 16.8456 10.1103 17.5748 10.3482 17.8908C10.4439 18.0202 10.6379 18.1471 10.8836 18.06C11.0646 17.9978 11.1965 17.8759 11.2612 17.7017C11.3181 17.5399 11.287 16.7909 11.287 16.4898C11.2896 16.1538 11.5353 16.0593 11.7655 15.9324C12.3681 15.6014 12.3163 15.5989 12.3163 16.4325C12.3163 16.9725 12.5724 16.6615 13.1594 16.3081C13.462 16.1265 13.3974 16.5943 13.3974 16.8382C13.4 17.3981 13.2344 17.3931 12.6577 17.7042C12.5025 17.7888 12.3344 17.8784 12.1793 17.9655C11.8198 18.1695 11.8069 18.7145 12.2025 18.8812C12.4586 18.9907 12.6241 18.8962 12.8051 18.7966C13.5267 18.3985 13.4336 18.4159 13.4284 19.6253C13.4284 19.894 13.4025 20.1479 13.6482 20.3246C13.7698 20.4117 13.9405 20.5062 14.1448 20.444C14.2819 20.4017 14.4422 20.2773 14.512 20.1603C14.631 19.9612 14.5793 19.4262 14.5819 19.1475C14.5844 18.7195 14.5094 18.4184 14.9258 18.6448C15.0551 18.7145 15.2879 18.8588 15.4094 18.9011C15.8646 19.0504 16.2344 18.6523 16.0586 18.2193C15.9784 18.0227 15.8413 17.9754 15.6629 17.8784C15.4896 17.7838 14.8094 17.4429 14.7241 17.3359C14.5586 17.1293 14.6025 16.8033 14.6025 16.5196C14.6025 15.9995 14.9698 16.4126 15.4353 16.6515C15.8543 16.8655 15.5025 15.8278 15.7405 15.7532C15.8517 15.7183 16.1 15.8876 16.1801 15.9324C16.7439 16.2459 16.7543 16.2086 16.7569 16.8506C16.7594 17.1119 16.7129 17.6295 16.8086 17.8137C16.9638 18.1173 17.4008 18.1844 17.6439 17.963C17.8327 17.7913 17.8146 17.5325 17.812 17.2836C17.8094 16.7411 17.9181 16.8655 18.3655 17.1069C18.5801 17.2239 18.7715 17.3309 18.9862 17.4478C19.3689 17.6569 19.8603 17.4902 19.9327 17.1467C20.0413 16.6242 19.6508 16.4948 19.3379 16.3156C19.1258 16.1936 18.9293 16.0792 18.7275 15.9622C18.2362 15.6785 19.0094 15.5616 19.2344 15.3301C19.5189 15.039 19.3431 14.4741 18.9034 14.4417C18.681 14.4243 18.3603 14.6383 18.1715 14.7428C17.375 15.1833 17.4603 15.2182 16.7388 14.8523C16.1879 14.5736 16.4284 14.5687 17.0206 14.2277C17.3931 14.0137 17.1319 13.9216 16.8448 13.7549C16.2681 13.419 16.3405 13.4414 16.9405 13.0681C17.2043 12.9038 17.3439 12.7894 17.6801 12.9785C17.8948 13.1004 18.1094 13.2249 18.3319 13.3493C18.5646 13.4787 18.8077 13.6753 19.0948 13.5533C19.4853 13.3866 19.5138 12.8416 19.1155 12.6251C19.0094 12.5679 18.9034 12.5107 18.787 12.4485C18.7043 12.4037 18.4974 12.334 18.5646 12.1921C18.5931 12.1324 18.8051 12.0304 18.8801 11.9881C19.1077 11.8637 19.325 11.7492 19.5422 11.6297C19.8008 11.4854 19.9896 11.4132 19.9896 11.04C19.9896 10.7812 19.8396 10.607 19.5939 10.5149C19.3172 10.4129 19.0741 10.5871 18.8801 10.6891C18.7715 10.7463 18.037 11.1544 17.9362 11.147C17.75 11.137 17.8069 10.8011 17.8069 10.6468C17.8094 10.271 17.7836 9.93009 17.2456 9.93755C17.0724 9.94004 16.9379 10.0023 16.8577 10.0869C16.6974 10.2536 16.7336 10.5298 16.7336 10.7637V11.5302C16.7336 11.9408 16.5551 11.9756 16.2681 12.1324C16.1543 12.1946 16.0353 12.2568 15.9189 12.3166C15.5775 12.4908 15.65 12.0627 15.65 11.8039C15.65 11.6546 15.7146 11.3087 15.5077 11.3261C15.4094 11.3336 14.9724 11.6198 14.856 11.6845C14.5638 11.8487 14.5948 11.5302 14.5948 11.3411C14.5948 10.7239 14.5844 10.699 15.1353 10.4079C15.2982 10.3208 15.4663 10.2287 15.6241 10.1416C15.8077 10.0446 15.9706 9.97986 16.0638 9.82557C16.2939 9.44483 15.906 8.98695 15.4793 9.07404C15.3706 9.09644 15.0784 9.26815 14.9724 9.32538C14.5172 9.57174 14.5741 9.38511 14.5715 8.91229V8.16076C14.5715 7.95422 14.5327 7.85219 14.4163 7.73274C14.3388 7.65311 14.1655 7.53615 14.0025 7.53615C13.6715 7.53366 13.4155 7.81735 13.4155 8.14583L13.4284 8.14832Z" />
</svg>
