<svg viewBox="0 0 12 12" xmlns="http://www.w3.org/2000/svg">
<path d="M3.9375 2.46094C3.9375 3.27642 3.27642 3.9375 2.46094 3.9375C1.64545 3.9375 0.984375 3.27642 0.984375 2.46094C0.984375 1.64545 1.64545 0.984375 2.46094 0.984375C3.27642 0.984375 3.9375 1.64545 3.9375 2.46094Z" />
<path d="M10.8281 9.35156C10.8281 10.167 10.167 10.8281 9.35156 10.8281C8.53608 10.8281 7.875 10.167 7.875 9.35156C7.875 8.53608 8.53608 7.875 9.35156 7.875C10.167 7.875 10.8281 8.53608 10.8281 9.35156Z" />
<path fill-rule="evenodd" clip-rule="evenodd" d="M5.04586 2.46094C5.04586 2.25707 5.21113 2.0918 5.415 2.0918H7.94085C9.29497 2.0918 9.80994 3.86023 8.66752 4.58722L3.54322 7.84814C3.02394 8.17859 3.25802 8.98242 3.87352 8.98242H5.50819L5.40007 8.8743C5.25591 8.73014 5.25591 8.49642 5.40007 8.35226C5.54423 8.2081 5.77795 8.2081 5.92211 8.35226L6.66039 9.09054C6.80455 9.2347 6.80455 9.46843 6.66039 9.61258L5.92211 10.3509C5.77795 10.495 5.54423 10.495 5.40007 10.3509C5.25591 10.2067 5.25591 9.97298 5.40007 9.82882L5.50819 9.7207H3.87352C2.5194 9.7207 2.00444 7.95227 3.14686 7.22528L8.27115 3.96436C8.79043 3.63391 8.55636 2.83008 7.94085 2.83008H5.415C5.21113 2.83008 5.04586 2.66481 5.04586 2.46094Z" />
</svg>
