<svg xmlns="http://www.w3.org/2000/svg" xmlns:xlink="http://www.w3.org/1999/xlink"><defs><style>
    .sprite-symbol-usage {display: none;}
    .sprite-symbol-usage:target {display: inline;}
  </style><symbol viewBox="0 0 85 26" id="icon-arrow-left">
<path fill-rule="evenodd" clip-rule="evenodd" d="M8.98303 16.2583C9.50039 17.4802 13.9695 20.7274 15.5546 23.9086C15.8958 24.5911 15.9729 24.9874 15.9949 25.3836C16.105 27.5852 9.94069 23.2812 9.45636 22.8959C8.11343 21.8172 0.209954 15.1576 0.000809189 12.5377C-0.197328 10.039 7.54103 4.32605 8.58675 3.51149C9.19217 3.03816 17.536 -2.43263 15.6426 1.73926C14.1896 4.92047 9.24721 8.68507 9.04908 9.22445C8.72985 10.083 10.6012 10.4353 16.9195 10.5564C23.2379 10.6775 35.3023 10.5564 41.6206 10.2372C47.939 9.91793 48.4894 9.40057 49.5901 8.20074C50.6799 7.00091 52.32 5.12961 53.729 3.79769C55.138 2.46577 56.3378 1.66221 57.4166 1.16687C58.4953 0.671527 59.453 0.47339 62.392 0.385328C65.3421 0.308275 70.2845 0.341301 73.7299 0.264246C77.1753 0.187193 79.1236 -0.0109438 80.6977 -0.0109437C82.2718 -0.0109436 83.4716 0.187192 83.9009 0.550445C84.3412 0.913695 84.022 1.43105 82.7891 2.56484C81.5563 3.69862 79.3988 5.44884 77.7697 6.94587C76.1405 8.44291 75.0178 9.67576 74.3023 10.7875C73.5868 11.8993 73.2675 12.901 74.1592 14.288C75.0508 15.6859 77.1642 17.4802 79.0796 19.1313C80.9949 20.7825 82.7011 22.3015 83.6147 23.2151C84.5283 24.1288 84.6494 24.448 84.4623 24.7452C84.2752 25.0424 83.7798 25.3176 79.2777 25.3836C74.7756 25.4387 66.2667 25.2846 61.8967 25.1635C57.5266 25.0424 57.2845 24.9654 56.1067 23.8536C54.9288 22.7418 52.8154 20.5843 51.2303 19.0322C49.6342 17.4802 48.5664 16.5335 47.6418 15.9171C46.7282 15.3007 45.9686 15.0145 41.3675 14.8714C36.7663 14.7283 28.3234 14.7283 22.6655 14.7503C17.0076 14.7723 12.8247 14.8053 11.0304 14.9044C9.23621 15.0034 8.52071 15.1576 8.98303 16.2363V16.2583ZM56.2167 10.4133C57.8238 10.6114 60.994 10.6885 63.1185 10.6775C65.243 10.6664 66.3107 10.5674 66.8941 10.5123C67.4775 10.4573 67.5546 10.4353 68.204 9.96196C68.8535 9.48863 70.0643 8.575 71.11 7.65036C72.1558 6.72572 73.0364 5.79007 73.4327 5.29473C73.8289 4.79939 73.7519 4.73334 71.6714 4.72233C69.591 4.70032 65.5072 4.72233 63.1846 4.73334C60.8509 4.74435 60.2785 4.74435 59.3649 5.22868C58.4513 5.71302 57.1964 6.6927 56.3268 7.49625C55.4572 8.29981 54.9839 8.93825 54.7747 9.42259C54.5656 9.89592 54.6206 10.2151 56.2388 10.4133L56.2167 10.4133ZM56.2167 15.1025C57.8238 14.9044 60.994 14.8273 63.1185 14.8383C65.243 14.8493 66.3107 14.9484 66.8941 15.0035C67.4775 15.0585 67.5546 15.0805 68.204 15.5538C68.8535 16.0272 70.0643 16.9408 71.11 17.8654C72.1558 18.7901 73.0364 19.7257 73.4327 20.2211C73.8289 20.7164 73.7519 20.7825 71.6714 20.8045C69.591 20.8265 65.5072 20.8045 63.1846 20.7935C60.8509 20.7825 60.2785 20.7825 59.3649 20.2981C58.4513 19.8138 57.1964 18.8341 56.3268 18.0305C55.4572 17.227 54.9839 16.5885 54.7747 16.1042C54.5656 15.6309 54.6206 15.3117 56.2388 15.1135L56.2167 15.1025Z" />
</symbol><symbol viewBox="0 0 85 27" id="icon-arrow-right">
<path fill-rule="evenodd" clip-rule="evenodd" d="M75.5541 9.74901C75.0367 8.52717 70.5676 5.27992 68.9825 2.09871C68.6413 1.41624 68.5642 1.01997 68.5422 0.623692C68.4321 -1.57783 74.5964 2.72615 75.0808 3.11142C76.4237 4.19016 84.3272 10.8498 84.5363 13.4696C84.7344 15.9683 76.9961 21.6813 75.9504 22.4958C75.3449 22.9692 67.0012 28.44 68.8945 24.2681C70.3475 21.0869 75.2899 17.3223 75.488 16.7829C75.8073 15.9243 73.936 15.572 67.6176 15.451C61.2992 15.3299 49.2349 15.451 42.9165 15.7702C36.5981 16.0894 36.0477 16.6068 34.947 17.8066C33.8572 19.0064 32.2171 20.8777 30.8081 22.2096C29.3991 23.5416 28.1993 24.3451 27.1205 24.8405C26.0418 25.3358 25.0841 25.5339 22.1451 25.622C19.195 25.6991 14.2526 25.666 10.8072 25.7431C7.36185 25.8201 5.4135 26.0183 3.83942 26.0183C2.26533 26.0183 1.06549 25.8201 0.636191 25.4569C0.195884 25.0936 0.515113 24.5763 1.74796 23.4425C2.98082 22.3087 5.13831 20.5585 6.76744 19.0615C8.39657 17.5644 9.51935 16.3316 10.2348 15.2198C10.9503 14.108 11.2696 13.1063 10.3779 11.7194C9.48632 10.3214 7.37286 8.52716 5.45753 6.87602C3.54221 5.22487 1.83603 3.70582 0.922394 2.79219C0.00875846 1.87855 -0.112328 1.55933 0.0747985 1.26213C0.261932 0.964922 0.757278 0.689731 5.2594 0.623686C9.76152 0.568648 18.2704 0.722756 22.6404 0.84384C27.0105 0.964924 27.2526 1.04198 28.4304 2.15375C29.6083 3.26552 31.7217 5.42301 33.3068 6.97509C34.9029 8.52716 35.9707 9.47382 36.8953 10.0902C37.8089 10.7067 38.5685 10.9929 43.1697 11.136C47.7708 11.2791 56.2137 11.2791 61.8716 11.2571C67.5295 11.235 71.7124 11.202 73.5067 11.103C75.3009 11.0039 76.0164 10.8498 75.5541 9.77103L75.5541 9.74901ZM28.3204 15.5941C26.7133 15.3959 23.5431 15.3189 21.4186 15.3299C19.2941 15.3409 18.2264 15.4399 17.643 15.495C17.0596 15.55 16.9825 15.572 16.3331 16.0454C15.6836 16.5187 14.4728 17.4323 13.4271 18.357C12.3813 19.2816 11.5007 20.2173 11.1044 20.7126C10.7082 21.2079 10.7852 21.274 12.8657 21.285C14.9461 21.307 19.0299 21.285 21.3525 21.274C23.6862 21.263 24.2586 21.263 25.1722 20.7786C26.0858 20.2943 27.3407 19.3146 28.2103 18.5111C29.0799 17.7075 29.5532 17.0691 29.7624 16.5847C29.9715 16.1114 29.9165 15.7922 28.2984 15.5941L28.3204 15.5941ZM28.3204 10.9048C26.7133 11.1029 23.5431 11.18 21.4186 11.169C19.2941 11.158 18.2264 11.0589 17.643 11.0039C17.0596 10.9488 16.9825 10.9268 16.3331 10.4535C15.6836 9.98017 14.4728 9.06653 13.4271 8.14189C12.3813 7.21725 11.5007 6.28161 11.1044 5.78626C10.7082 5.29092 10.7852 5.22487 12.8657 5.20286C14.9461 5.18084 19.0299 5.20286 21.3525 5.21387C23.6862 5.22487 24.2586 5.22487 25.1722 5.70921C26.0858 6.19354 27.3407 7.17322 28.2103 7.97678C29.0799 8.78034 29.5532 9.41878 29.7624 9.90312C29.9715 10.3764 29.9165 10.6957 28.2984 10.8938L28.3204 10.9048Z" />
</symbol><symbol viewBox="0 0 28 28" id="icon-autumn">
<path fill-rule="evenodd" clip-rule="evenodd" d="M11.6598 9.59984L11.6165 9.61459C11.5323 9.66721 11.5297 9.65417 11.5121 9.73572C11.5011 9.78665 11.527 9.78083 11.5038 9.86778C11.5554 9.95742 11.6157 10.2871 11.6066 10.3598C11.6823 10.5964 11.7184 10.9041 11.7653 11.1628C11.7947 11.3252 11.935 11.7827 11.8609 11.9142C11.7394 11.8796 10.5961 10.9696 10.468 10.8366C10.3801 10.8034 10.4385 10.794 10.3354 10.7797C10.2023 10.8701 10.1825 11.0143 10.1313 11.1488C9.98135 11.5428 9.97483 11.7213 9.67156 11.7491C9.46688 11.7678 7.78547 11.9387 7.67 11.9034L7.61184 11.919C7.47809 11.9525 7.41057 11.92 7.30518 12.0049C7.34291 12.1713 7.89383 12.9217 8.02787 13.1271C8.08971 13.196 8.76404 14.1713 8.81921 14.2981C8.93014 14.5528 8.52191 15.177 8.54475 15.3207C8.58162 15.5526 9.78461 15.6044 9.94559 15.8556C9.71836 16.2438 8.67708 16.9264 8.36318 17.3367C8.43737 17.4525 8.60077 17.4756 8.71396 17.5139C8.87723 17.5876 9.2029 17.6374 9.33268 17.7349C9.36686 17.7309 9.33027 17.7169 9.40389 17.742C9.51084 17.7781 9.41666 17.7374 9.47013 17.7837C9.62105 17.7831 9.64758 17.815 9.77495 17.8613C9.90658 17.9089 9.96261 17.8918 10.0745 17.976C10.1111 17.9715 10.0683 17.9555 10.146 17.9828C10.2218 18.0095 10.1764 17.9935 10.2138 18.0277C10.5293 18.0701 10.3585 18.7511 10.5723 18.8329C10.6842 18.8757 10.854 18.754 11.047 18.6625C11.1809 18.5991 12.4209 17.9904 12.5294 17.9909C12.6036 17.9194 12.6262 17.9174 12.7244 17.8745C12.906 17.7818 13.046 17.7047 13.2296 17.7213C13.811 17.7739 13.7823 17.7017 13.7456 18.6122L13.6942 19.5075C13.6932 19.6479 13.6523 19.8108 13.7254 19.9468C13.8457 20.019 14.1216 20.0181 14.2672 19.9408C14.2819 19.8925 14.2913 19.8065 14.3064 19.7786L14.2225 18.3799C14.2154 18.0111 14.0843 17.7994 14.5372 17.7492C14.9576 17.7027 14.9796 17.7223 15.3264 17.8967L17.173 18.7664C17.3551 18.8569 17.4098 18.916 17.5401 18.7068C17.5202 18.642 17.566 18.3672 17.6117 18.3015C17.6262 18.0557 17.7358 18.0152 17.9886 17.9362C18.0925 17.9037 18.1908 17.8711 18.2917 17.8386C18.342 17.8225 18.3802 17.8084 18.4328 17.7922C18.4548 17.7852 18.4813 17.7763 18.5036 17.7719L18.6033 17.7631C18.6688 17.7072 18.7724 17.6804 18.8571 17.6567L19.5318 17.462L19.6446 17.3546L19.547 17.198C19.4192 17.1611 18.9286 16.674 18.7869 16.5468C18.6232 16.3996 18.1198 16.0051 18.064 15.8252C18.211 15.7267 19.027 15.4847 19.1491 15.5143C19.2462 15.4519 19.3271 15.443 19.4415 15.4109C19.4599 15.1488 19.3049 14.9652 19.3212 14.8394L19.2466 14.693C19.1605 14.5037 19.1375 14.3986 19.2107 14.2608C19.2559 14.1753 19.392 13.9848 19.4643 13.9106C19.4805 13.8336 19.985 13.0867 20.065 13.0391C20.1128 12.8189 20.7011 12.1977 20.6947 11.996C20.5518 11.8847 20.5584 11.9891 20.3603 11.9061C20.3269 11.9289 20.3364 11.9633 20.3273 11.9079C20.1689 11.9252 19.3107 11.8349 19.0786 11.8131C18.1615 11.7268 18.1477 11.8279 17.9613 11.3689L17.8188 10.978L17.6985 10.7818C17.5517 10.8079 17.4012 10.9672 17.2628 11.0644L17.188 11.0991L16.6796 11.5282C16.5298 11.645 16.3141 11.8356 16.1442 11.9295C16.1074 11.8008 16.1256 11.7733 16.1679 11.6943C16.1243 11.5668 16.3084 10.8515 16.3287 10.7084C16.3528 10.5386 16.3934 10.3928 16.422 10.2241C16.4399 10.1189 16.4738 9.84042 16.5127 9.75673C16.4254 9.59134 16.3533 9.62141 16.2063 9.62269C16.1003 9.62368 16.0123 9.61815 15.905 9.62283C15.5829 9.63092 15.4751 9.68184 15.2869 9.32666C15.0727 8.92226 14.1351 7.12199 14.0001 7C13.8791 7.05646 13.5867 7.67915 13.505 7.82922C13.3525 8.10908 13.2114 8.39078 13.0659 8.6671L12.6208 9.50369C12.4832 9.67248 12.2955 9.62199 12.1313 9.62099L11.6598 9.59986V9.59984Z" />
</symbol><symbol viewBox="0 0 27 27" id="icon-ball">
<path fill-rule="evenodd" clip-rule="evenodd" d="M2.04288 12.5H6.87594C6.79071 11.8808 6.62647 11.2737 6.38623 10.6937C6.01769 9.80393 5.47752 8.99551 4.79656 8.31455C4.46863 7.98662 4.11115 7.69135 3.72926 7.43217C2.79895 8.92702 2.20215 10.651 2.04288 12.5ZM4.93046 5.83087C5.38721 6.14767 5.81584 6.5054 6.21077 6.90034C7.07745 7.76702 7.76494 8.79592 8.23399 9.92829C8.57495 10.7514 8.79562 11.6175 8.89072 12.5H10.0278C10.5801 12.5 11.0278 12.9477 11.0278 13.5C11.0278 14.0523 10.5801 14.5 10.0278 14.5H8.89072C8.79562 15.3825 8.57495 16.2486 8.23399 17.0717C7.76494 18.2041 7.07745 19.233 6.21077 20.0997C5.81584 20.4946 5.38721 20.8523 4.93046 21.1691C7.03612 23.5204 10.0953 25 13.5 25C16.9047 25 19.9639 23.5204 22.0695 21.1691C21.6128 20.8523 21.1841 20.4946 20.7892 20.0997C19.9225 19.233 19.235 18.2041 18.766 17.0717C18.425 16.2486 18.2043 15.3825 18.1092 14.5H14.5V21.8333C14.5 22.3856 14.0523 22.8333 13.5 22.8333C12.9477 22.8333 12.5 22.3856 12.5 21.8333V2.04288C9.49918 2.30136 6.82776 3.71226 4.93046 5.83087ZM14.5 2.04288V12.5H18.1092C18.2043 11.6176 18.425 10.7514 18.766 9.92829C19.235 8.79592 19.9225 7.76702 20.7892 6.90034C21.1841 6.5054 21.6128 6.14767 22.0695 5.83086C20.1722 3.71226 17.5008 2.30136 14.5 2.04288ZM23.2707 7.43215C22.8888 7.69134 22.5313 7.98662 22.2034 8.31456C21.5224 8.99552 20.9823 9.80394 20.6137 10.6937C20.3735 11.2737 20.2093 11.8808 20.124 12.5H24.9571C24.7979 10.651 24.201 8.92701 23.2707 7.43215ZM24.9571 14.5H20.124C20.2093 15.1192 20.3735 15.7264 20.6137 16.3064C20.9823 17.1961 21.5224 18.0045 22.2034 18.6855C22.5313 19.0134 22.8888 19.3087 23.2707 19.5679C24.201 18.073 24.7979 16.349 24.9571 14.5ZM3.72926 19.5678C4.11115 19.3087 4.46863 19.0134 4.79656 18.6854C5.47752 18.0045 6.01769 17.1961 6.38623 16.3063C6.62647 15.7263 6.79071 15.1192 6.87594 14.5H2.04288C2.20215 16.349 2.79895 18.073 3.72926 19.5678ZM0 13.5C0 6.04416 6.04416 0 13.5 0C20.9558 0 27 6.04416 27 13.5C27 20.9558 20.9558 27 13.5 27C6.04416 27 0 20.9558 0 13.5Z" />
</symbol><symbol viewBox="0 0 24 24" id="icon-call">
<path d="M14.906 16.3757C12.0728 19.3417 4.84606 12.2163 7.68992 9.23852C9.42652 7.42009 7.46515 5.34273 6.37919 3.81384C4.34093 0.947903 -0.131876 4.9049 0.00298276 7.42245C0.432401 15.3623 9.06453 24.7711 17.4234 23.9495C20.0378 23.693 23.0425 18.9945 20.0437 17.2773C18.5437 16.4181 16.4841 14.7232 14.906 16.3745" />
<path d="M17.7693 12.398C17.2557 12.398 16.8496 11.9821 16.8496 11.483C16.8496 11.0433 16.4077 10.1284 15.6672 9.3322C14.9386 8.55982 14.1384 8.10827 13.4695 8.10827C12.9559 8.10827 12.5498 7.69237 12.5498 7.1933C12.5498 6.69422 12.9678 6.27832 13.4695 6.27832C14.6639 6.27832 15.918 6.91999 17.0169 8.07263C18.044 9.15396 18.701 10.4967 18.701 11.4711C18.701 11.9821 18.2829 12.398 17.7693 12.398Z" />
<path d="M22.0799 12.3975C21.5663 12.3975 21.1602 11.9816 21.1602 11.4825C21.1602 7.26408 17.7084 3.84184 13.4802 3.84184C12.9666 3.84184 12.5605 3.42594 12.5605 2.92686C12.5605 2.42778 12.9666 2 13.4683 2C18.7236 2 22.9996 6.25405 22.9996 11.4825C22.9996 11.9816 22.5816 12.3975 22.0799 12.3975Z" />
</symbol><symbol viewBox="0 0 14 14" id="icon-close">
<path d="M11.992 0.344555C12.4515 -0.114701 13.1967 -0.11484 13.6561 0.344555C14.1153 0.803964 14.1153 1.54919 13.6561 2.00861L8.66391 6.99982L13.6551 11.992C14.1146 12.4515 14.1146 13.1966 13.6551 13.6561C13.1958 14.115 12.4514 14.115 11.992 13.6561L6.99985 8.66388L2.00866 13.6561C1.54924 14.1153 0.804024 14.1153 0.344598 13.6561C-0.114814 13.1966 -0.11471 12.4515 0.344598 11.992L5.3358 6.99982L0.344598 2.00861C-0.114866 1.54915 -0.114866 0.804019 0.344598 0.344555C0.804069 -0.114822 1.54922 -0.114881 2.00866 0.344555L6.99985 5.33576L11.992 0.344555Z" />
</symbol><symbol viewBox="0 0 28 28" id="icon-flower">
<path d="M14.4348 14.007C14.4348 14.2362 14.3438 14.456 14.1817 14.6181C14.0196 14.7802 13.7997 14.8713 13.5705 14.8713C13.3413 14.8713 13.1214 14.7802 12.9593 14.6181C12.7973 14.456 12.7062 14.2362 12.7062 14.007C12.7062 13.7777 12.7973 13.5579 12.9593 13.3958C13.1214 13.2337 13.3413 13.1426 13.5705 13.1426C13.7997 13.1426 14.0196 13.2337 14.1817 13.3958C14.3438 13.5579 14.4348 13.7777 14.4348 14.007ZM18.2849 15.6327C18.2824 15.9632 18.1933 16.2872 18.0265 16.5724C17.8596 16.8577 17.6209 17.0942 17.334 17.2583C17.0472 17.4224 16.7223 17.5084 16.3919 17.5076C16.0614 17.5069 15.7369 17.4195 15.4508 17.2542C15.4478 19.8182 11.6911 19.8169 11.6911 17.2542C9.46329 18.4759 7.6612 15.2438 9.84748 13.9828C7.66336 12.7226 9.45854 9.49524 11.6859 10.7087C11.6859 10.2087 11.8845 9.72909 12.2381 9.37549C12.5917 9.02189 13.0713 8.82324 13.5714 8.82324C14.0714 8.82324 14.551 9.02189 14.9046 9.37549C15.2582 9.72909 15.4569 10.2087 15.4569 10.7087C17.6846 9.49481 19.4785 12.7243 17.2953 13.9828C17.5937 14.1429 17.8433 14.3808 18.0175 14.6713C18.1917 14.9618 18.2841 15.294 18.2849 15.6327ZM15.2991 14.007C15.2991 13.5485 15.117 13.1088 14.7928 12.7846C14.4686 12.4605 14.029 12.2783 13.5705 12.2783C13.112 12.2783 12.6724 12.4605 12.3482 12.7846C12.024 13.1088 11.8419 13.5485 11.8419 14.007C11.8419 14.4654 12.024 14.9051 12.3482 15.2293C12.6724 15.5535 13.112 15.7356 13.5705 15.7356C14.029 15.7356 14.4686 15.5535 14.7928 15.2293C15.117 14.9051 15.2991 14.4654 15.2991 14.007Z" />
</symbol><symbol viewBox="0 0 9 9" id="icon-link">
<path d="M2.7 0C2.20294 0 1.8 0.402944 1.8 0.9C1.8 1.39706 2.20294 1.8 2.7 1.8H5.92721L0.263604 7.4636C-0.087868 7.81508 -0.087868 8.38493 0.263604 8.7364C0.615076 9.08787 1.18492 9.08787 1.5364 8.7364L7.2 3.07279V6.3C7.2 6.79706 7.60294 7.2 8.1 7.2C8.59706 7.2 9 6.79706 9 6.3V0.9C9 0.402944 8.59706 0 8.1 0H2.7Z" />
</symbol><symbol viewBox="0 0 24 24" id="icon-mail">
<path d="M18 2H6C2.4 2 0 3.76471 0 7.88235V16.1176C0 20.2353 2.4 22 6 22H18C21.6 22 24 20.2353 24 16.1176V7.88235C24 3.76471 21.6 2 18 2ZM18.564 9.16471L14.808 12.1059C14.016 12.7294 13.008 13.0353 12 13.0353C10.992 13.0353 9.972 12.7294 9.192 12.1059L5.436 9.16471C5.052 8.85882 4.992 8.29412 5.292 7.91765C5.604 7.54118 6.168 7.47059 6.552 7.77647L10.308 10.7176C11.22 11.4353 12.768 11.4353 13.68 10.7176L17.436 7.77647C17.82 7.47059 18.396 7.52941 18.696 7.91765C19.008 8.29412 18.948 8.85882 18.564 9.16471Z" />
</symbol><symbol viewBox="0 0 24 24" id="icon-marker">
<path d="M21.7183 7.51707C20.5352 2.33366 15.9944 0 12.0056 0C12.0056 0 12.0056 0 11.9944 0C8.01689 0 3.46477 2.32244 2.28167 7.50585C0.963353 13.2951 4.52393 18.198 7.74647 21.2834C8.94084 22.4278 10.4732 23 12.0056 23C13.538 23 15.0704 22.4278 16.2535 21.2834C19.4761 18.198 23.0366 13.3063 21.7183 7.51707ZM12.0056 13.138C10.0451 13.138 8.45633 11.5561 8.45633 9.6039C8.45633 7.65171 10.0451 6.06976 12.0056 6.06976C13.9662 6.06976 15.5549 7.65171 15.5549 9.6039C15.5549 11.5561 13.9662 13.138 12.0056 13.138Z" />
</symbol><symbol viewBox="0 0 20 20" id="icon-marker-2">
<path d="M17.5 14.0245V9.30223C17.5 8.43257 17.5 7.99775 17.2641 7.67039C17.0735 7.40595 16.7676 7.2654 16.2222 7.07617C16.1107 8.41468 15.6674 9.7816 14.9713 10.978C14.1607 12.371 12.957 13.6164 11.4142 14.2895C10.515 14.6817 9.48498 14.6817 8.58585 14.2895C7.04303 13.6164 5.83932 12.371 5.02874 10.978C4.50071 10.0705 4.11817 9.06496 3.91551 8.04809C3.59673 8.00114 3.35208 8.02523 3.14097 8.14301C3.05674 8.19001 2.97823 8.24659 2.90701 8.31164C2.5 8.68338 2.5 9.37459 2.5 10.757V14.8651C2.5 15.7347 2.5 16.1696 2.73595 16.4969C2.97189 16.8243 3.38441 16.9618 4.20943 17.2368L4.52907 17.3433C5.84322 17.7814 6.50029 18.0004 7.1724 18.0017C7.37483 18.0021 7.57702 17.9877 7.77736 17.9587C8.44253 17.8624 9.06742 17.55 10.3172 16.9251C11.2749 16.4462 11.7538 16.2068 12.2625 16.0957C12.441 16.0567 12.6219 16.0295 12.804 16.0142C13.3229 15.9708 13.8464 16.0581 14.8934 16.2326C15.9546 16.4094 16.4851 16.4978 16.8725 16.2754C17.004 16.1999 17.1207 16.101 17.2169 15.9836C17.5 15.6381 17.5 15.1002 17.5 14.0245Z" />
<path fill-rule="evenodd" clip-rule="evenodd" d="M10 1.66699C7.23858 1.66699 5 3.79375 5 6.41725C5 9.02018 6.59583 12.0576 9.08567 13.1438C9.66609 13.397 10.3339 13.397 10.9143 13.1438C13.4042 12.0576 15 9.02018 15 6.41725C15 3.79375 12.7614 1.66699 10 1.66699ZM10 8.33366C10.9205 8.33366 11.6667 7.58747 11.6667 6.66699C11.6667 5.74652 10.9205 5.00033 10 5.00033C9.07953 5.00033 8.33333 5.74652 8.33333 6.66699C8.33333 7.58747 9.07953 8.33366 10 8.33366Z" />
</symbol><symbol viewBox="0 0 16 14" id="icon-menu">
<path d="M0 1C0 0.447715 0.447715 0 1 0H15C15.5523 0 16 0.447715 16 1V1C16 1.55228 15.5523 2 15 2H1C0.447715 2 0 1.55228 0 1V1Z" />
<path d="M0 7C0 6.44772 0.447715 6 1 6H15C15.5523 6 16 6.44772 16 7V7C16 7.55228 15.5523 8 15 8H1C0.447715 8 0 7.55228 0 7V7Z" />
<path d="M0 13C0 12.4477 0.447715 12 1 12H15C15.5523 12 16 12.4477 16 13V13C16 13.5523 15.5523 14 15 14H1C0.447715 14 0 13.5523 0 13V13Z" />
</symbol><symbol viewBox="0 0 28 28" id="icon-profile">
<path d="M18.6667 7C18.6667 9.57733 16.5774 11.6667 14 11.6667C11.4227 11.6667 9.33337 9.57733 9.33337 7C9.33337 4.42267 11.4227 2.33333 14 2.33333C16.5774 2.33333 18.6667 4.42267 18.6667 7Z" />
<path d="M23.3333 20.4167C23.3333 23.3162 23.3333 25.6667 14 25.6667C4.66663 25.6667 4.66663 23.3162 4.66663 20.4167C4.66663 17.5172 8.8453 15.1667 14 15.1667C19.1546 15.1667 23.3333 17.5172 23.3333 20.4167Z" />
</symbol><symbol viewBox="0 0 20 20" id="icon-search">
<path fill-rule="evenodd" clip-rule="evenodd" d="M19.7883 19.7883C20.0706 19.506 20.0706 19.0483 19.7883 18.7659L16.1224 15.1002C17.4884 13.5007 18.3133 11.425 18.3133 9.15663C18.3133 4.09956 14.2137 0 9.15663 0C4.09956 0 0 4.09956 0 9.15663C0 14.2137 4.09956 18.3133 9.15663 18.3133C11.4249 18.3133 13.5006 17.4885 15.1 16.1225L18.7659 19.7883C19.0483 20.0706 19.506 20.0706 19.7883 19.7883Z" />
</symbol><symbol viewBox="0 0 28 28" id="icon-snow">
<path fill-rule="evenodd" clip-rule="evenodd" d="M13.4284 8.14832V9.21838C13.4284 9.56428 13.2267 9.4299 13.0482 9.33534C12.937 9.27561 12.6991 9.13128 12.5905 9.09644C12.1715 8.96455 11.7991 9.34778 11.931 9.74594C11.9956 9.94502 12.112 9.99479 12.2801 10.0894C12.5775 10.2561 12.8905 10.4054 13.1801 10.5821C13.4594 10.7538 13.4 11.1967 13.4 11.5302C13.4 12.0403 12.8051 11.4555 12.4922 11.3734C12.2543 11.3112 12.2931 11.5775 12.2931 11.7318C12.2931 11.8612 12.3241 12.217 12.2594 12.2991C12.1612 12.4161 11.9206 12.2369 11.8301 12.1872C11.4344 11.9682 11.2405 11.9408 11.2431 11.4307L11.2456 10.7936C11.2456 10.495 11.2844 10.3332 11.1034 10.1416C10.7775 9.79571 10.1931 9.95995 10.1931 10.5049C10.1931 10.6393 10.1931 10.7737 10.1931 10.9106C10.1931 11.361 10.0353 11.2092 9.53358 10.9305C9.35254 10.8284 9.17668 10.7339 9.00082 10.6343C8.80685 10.5273 8.62841 10.4278 8.35944 10.5572C8.10341 10.6816 8.0103 10.8036 8.00772 11.0997C8.00772 11.4705 8.23789 11.5377 8.50427 11.677C8.74737 11.8039 8.98013 11.9259 9.22323 12.0553C9.31892 12.105 9.54392 12.1896 9.43272 12.329C9.39134 12.3813 9.16116 12.4908 9.08875 12.5306C8.81203 12.6824 8.60513 12.7371 8.60513 13.1378C8.60513 13.3916 8.81461 13.5782 9.04737 13.6081C9.33185 13.6454 9.53358 13.4737 9.71979 13.3692C9.91634 13.2597 10.1155 13.1477 10.3069 13.0382C10.6172 12.8615 10.7465 12.9163 11.0129 13.0631C11.1138 13.1179 11.2069 13.1726 11.3051 13.2298C11.3905 13.2771 11.5482 13.3344 11.512 13.4613C11.4836 13.5583 11.062 13.7773 10.956 13.837C10.5991 14.0436 10.837 14.1357 11.0879 14.275C11.2741 14.3795 11.4991 14.5288 11.6905 14.606C11.6517 14.6831 11.2896 14.8573 11.1913 14.9146C11.0258 15.0091 10.8344 15.1535 10.5836 15.1062C10.4284 15.0763 9.70944 14.6433 9.52582 14.5363C9.29823 14.4044 9.15341 14.3895 8.90254 14.5164C8.71375 14.611 8.61289 14.7727 8.62582 15.044C8.63616 15.2903 8.81461 15.3899 8.99823 15.477C9.0991 15.5242 9.49737 15.6785 9.50772 15.783C9.52065 15.9075 9.19479 16.0319 9.0422 16.114C8.85341 16.2136 8.69048 16.3031 8.50685 16.3952C8.29737 16.5022 8.14996 16.5545 8.0491 16.7486C7.94565 16.9477 8.00513 17.2413 8.13961 17.3707C8.25082 17.4777 8.52754 17.5773 8.7422 17.5449C8.89737 17.5225 9.16375 17.3558 9.29565 17.2836C9.3991 17.2264 9.9991 16.878 10.0974 16.8705C10.3922 16.8456 10.1103 17.5748 10.3482 17.8908C10.4439 18.0202 10.6379 18.1471 10.8836 18.06C11.0646 17.9978 11.1965 17.8759 11.2612 17.7017C11.3181 17.5399 11.287 16.7909 11.287 16.4898C11.2896 16.1538 11.5353 16.0593 11.7655 15.9324C12.3681 15.6014 12.3163 15.5989 12.3163 16.4325C12.3163 16.9725 12.5724 16.6615 13.1594 16.3081C13.462 16.1265 13.3974 16.5943 13.3974 16.8382C13.4 17.3981 13.2344 17.3931 12.6577 17.7042C12.5025 17.7888 12.3344 17.8784 12.1793 17.9655C11.8198 18.1695 11.8069 18.7145 12.2025 18.8812C12.4586 18.9907 12.6241 18.8962 12.8051 18.7966C13.5267 18.3985 13.4336 18.4159 13.4284 19.6253C13.4284 19.894 13.4025 20.1479 13.6482 20.3246C13.7698 20.4117 13.9405 20.5062 14.1448 20.444C14.2819 20.4017 14.4422 20.2773 14.512 20.1603C14.631 19.9612 14.5793 19.4262 14.5819 19.1475C14.5844 18.7195 14.5094 18.4184 14.9258 18.6448C15.0551 18.7145 15.2879 18.8588 15.4094 18.9011C15.8646 19.0504 16.2344 18.6523 16.0586 18.2193C15.9784 18.0227 15.8413 17.9754 15.6629 17.8784C15.4896 17.7838 14.8094 17.4429 14.7241 17.3359C14.5586 17.1293 14.6025 16.8033 14.6025 16.5196C14.6025 15.9995 14.9698 16.4126 15.4353 16.6515C15.8543 16.8655 15.5025 15.8278 15.7405 15.7532C15.8517 15.7183 16.1 15.8876 16.1801 15.9324C16.7439 16.2459 16.7543 16.2086 16.7569 16.8506C16.7594 17.1119 16.7129 17.6295 16.8086 17.8137C16.9638 18.1173 17.4008 18.1844 17.6439 17.963C17.8327 17.7913 17.8146 17.5325 17.812 17.2836C17.8094 16.7411 17.9181 16.8655 18.3655 17.1069C18.5801 17.2239 18.7715 17.3309 18.9862 17.4478C19.3689 17.6569 19.8603 17.4902 19.9327 17.1467C20.0413 16.6242 19.6508 16.4948 19.3379 16.3156C19.1258 16.1936 18.9293 16.0792 18.7275 15.9622C18.2362 15.6785 19.0094 15.5616 19.2344 15.3301C19.5189 15.039 19.3431 14.4741 18.9034 14.4417C18.681 14.4243 18.3603 14.6383 18.1715 14.7428C17.375 15.1833 17.4603 15.2182 16.7388 14.8523C16.1879 14.5736 16.4284 14.5687 17.0206 14.2277C17.3931 14.0137 17.1319 13.9216 16.8448 13.7549C16.2681 13.419 16.3405 13.4414 16.9405 13.0681C17.2043 12.9038 17.3439 12.7894 17.6801 12.9785C17.8948 13.1004 18.1094 13.2249 18.3319 13.3493C18.5646 13.4787 18.8077 13.6753 19.0948 13.5533C19.4853 13.3866 19.5138 12.8416 19.1155 12.6251C19.0094 12.5679 18.9034 12.5107 18.787 12.4485C18.7043 12.4037 18.4974 12.334 18.5646 12.1921C18.5931 12.1324 18.8051 12.0304 18.8801 11.9881C19.1077 11.8637 19.325 11.7492 19.5422 11.6297C19.8008 11.4854 19.9896 11.4132 19.9896 11.04C19.9896 10.7812 19.8396 10.607 19.5939 10.5149C19.3172 10.4129 19.0741 10.5871 18.8801 10.6891C18.7715 10.7463 18.037 11.1544 17.9362 11.147C17.75 11.137 17.8069 10.8011 17.8069 10.6468C17.8094 10.271 17.7836 9.93009 17.2456 9.93755C17.0724 9.94004 16.9379 10.0023 16.8577 10.0869C16.6974 10.2536 16.7336 10.5298 16.7336 10.7637V11.5302C16.7336 11.9408 16.5551 11.9756 16.2681 12.1324C16.1543 12.1946 16.0353 12.2568 15.9189 12.3166C15.5775 12.4908 15.65 12.0627 15.65 11.8039C15.65 11.6546 15.7146 11.3087 15.5077 11.3261C15.4094 11.3336 14.9724 11.6198 14.856 11.6845C14.5638 11.8487 14.5948 11.5302 14.5948 11.3411C14.5948 10.7239 14.5844 10.699 15.1353 10.4079C15.2982 10.3208 15.4663 10.2287 15.6241 10.1416C15.8077 10.0446 15.9706 9.97986 16.0638 9.82557C16.2939 9.44483 15.906 8.98695 15.4793 9.07404C15.3706 9.09644 15.0784 9.26815 14.9724 9.32538C14.5172 9.57174 14.5741 9.38511 14.5715 8.91229V8.16076C14.5715 7.95422 14.5327 7.85219 14.4163 7.73274C14.3388 7.65311 14.1655 7.53615 14.0025 7.53615C13.6715 7.53366 13.4155 7.81735 13.4155 8.14583L13.4284 8.14832Z" />
</symbol><symbol viewBox="0 0 28 28" id="icon-sun">
<path fill-rule="evenodd" clip-rule="evenodd" d="M13.7095 9.59783C12.2601 9.72023 11.1157 10.5265 10.5095 11.533C10.0666 12.2674 9.83342 13.0795 9.90337 13.9985C10.0685 16.1726 11.9376 17.9503 14.2963 17.7949C16.4509 17.6531 18.2811 15.7529 18.1043 13.3962C18.0111 12.1586 17.3932 11.2163 16.754 10.6431C16.0876 10.0447 14.9821 9.49292 13.7076 9.59978L13.7095 9.59783Z" />
<path fill-rule="evenodd" clip-rule="evenodd" d="M10.4336 10.876L10.7445 10.5302C10.8494 10.4214 10.966 10.3145 11.0884 10.2096C11.2593 10.0639 11.4692 9.91622 11.6712 9.79576C11.7354 9.7569 11.8306 9.71416 11.8869 9.67142C11.8461 9.63061 11.6887 9.56456 11.6227 9.52958L10.2529 8.83791C10.1636 8.79128 9.75943 8.57951 9.69531 8.56396L10.4336 10.876Z" />
<path fill-rule="evenodd" clip-rule="evenodd" d="M16.1421 9.68696C16.521 9.8521 17.1563 10.3709 17.4244 10.7031C17.4691 10.7594 17.5313 10.8352 17.5798 10.8838C17.5876 10.876 17.5876 10.876 17.5973 10.8585L17.7683 10.3126C17.848 10.06 18.2812 8.69608 18.3045 8.56396C18.2074 8.59505 16.6472 9.4169 16.4083 9.53736L16.1712 9.65976C16.1382 9.68307 16.1576 9.66753 16.1421 9.6889V9.68696Z" />
<path fill-rule="evenodd" clip-rule="evenodd" d="M18.5549 13.8389C18.654 13.7922 19.8897 12.9743 20.0859 12.8557C20.1733 12.8033 20.2608 12.7431 20.3443 12.6887L20.5386 12.5643C20.5502 12.5565 20.56 12.5527 20.5716 12.5429C20.6085 12.5119 20.5833 12.5371 20.6008 12.5119L18.2227 11.9814C18.3101 12.3001 18.3859 12.3875 18.4694 12.8227C18.5763 13.3862 18.516 13.4134 18.5549 13.8389Z" />
<path fill-rule="evenodd" clip-rule="evenodd" d="M7.39893 12.5801C7.45138 12.6481 8.3218 13.1746 8.42089 13.2368C8.59964 13.3495 8.7473 13.4408 8.93381 13.5593C9.02513 13.6176 9.1009 13.6662 9.19416 13.7245C9.26022 13.7653 9.39428 13.8605 9.46034 13.8857C9.45062 13.5263 9.47005 13.2174 9.53028 12.8774C9.60994 12.4286 9.70709 12.2926 9.76926 12.0283L7.39893 12.5782V12.5801Z" />
<path fill-rule="evenodd" clip-rule="evenodd" d="M8.2246 17.0855L10.6396 16.7629L10.3618 16.4113C10.2685 16.2869 10.185 16.1645 10.0995 16.0227C10.0159 15.8847 9.94795 15.7526 9.87412 15.5972C9.84109 15.5253 9.80806 15.4476 9.77697 15.3738C9.75366 15.3135 9.7148 15.1834 9.68566 15.1387C9.64291 15.1717 8.66952 16.4832 8.58986 16.59L8.22266 17.0874L8.2246 17.0855Z" />
<path fill-rule="evenodd" clip-rule="evenodd" d="M17.397 16.7243L19.8159 17.0274C19.779 16.9497 19.5186 16.6214 19.4487 16.532L18.7104 15.5702C18.6501 15.4886 18.588 15.4148 18.5258 15.3293C18.4831 15.271 18.382 15.1292 18.3373 15.0942C18.248 15.2361 18.1508 15.7937 17.5446 16.5456C17.498 16.6039 17.4319 16.6699 17.397 16.7243Z" />
<path fill-rule="evenodd" clip-rule="evenodd" d="M14.6694 18.2026C14.718 18.2745 14.8113 18.3542 14.8715 18.426C14.9375 18.5018 15.0094 18.5737 15.0755 18.6475L15.6992 19.312C15.8274 19.4402 16.2373 19.9046 16.3248 19.9804L16.4336 17.5479L16.0333 17.7616C15.7438 17.9034 15.4835 18.0044 15.1649 18.0899L14.7977 18.1696C14.7743 18.1735 14.7452 18.1773 14.7238 18.1812C14.7005 18.1851 14.7122 18.1832 14.6927 18.189C14.6558 18.2026 14.6811 18.1929 14.6675 18.2026H14.6694Z" />
<path fill-rule="evenodd" clip-rule="evenodd" d="M11.7449 19.9999C11.7916 19.9746 12.9612 18.6787 12.9884 18.6476C13.0525 18.5758 13.3789 18.2455 13.3886 18.1969C12.3667 18.0745 11.7799 17.6199 11.6187 17.5693L11.7449 19.9999Z" />
<path fill-rule="evenodd" clip-rule="evenodd" d="M13.0605 9.24405C13.4297 9.21297 13.4958 9.1508 14.0067 9.1508C14.4847 9.14885 14.5721 9.20714 14.949 9.24794L14.0126 7.00195L13.0605 9.246V9.24405Z" />
</symbol><symbol viewBox="0 0 14 14" id="icon-weight">
<path d="M4.88887 11.9984L2.00187 9.11144C1.47442 8.584 1.2107 8.32027 1.17309 7.99822C1.16469 7.92633 1.16469 7.85371 1.17309 7.78182C1.2107 7.45976 1.47442 7.19604 2.00187 6.6686C2.52931 6.14115 2.79303 5.87743 3.11509 5.83981C3.18698 5.83142 3.2596 5.83142 3.33149 5.83981C3.65355 5.87743 3.91727 6.14115 4.44471 6.6686L4.87243 7.09632L7.09626 4.87249L6.66854 4.44477C6.14109 3.91733 5.87737 3.65361 5.83975 3.33155C5.83136 3.25966 5.83136 3.18704 5.83975 3.11515C5.87737 2.7931 6.14109 2.52937 6.66853 2.00193C7.19598 1.47448 7.4597 1.21076 7.78175 1.17315C7.85365 1.16475 7.92627 1.16475 7.99816 1.17315C8.32021 1.21076 8.58394 1.47448 9.11138 2.00193L11.9984 4.88893C12.5258 5.41637 12.7895 5.68009 12.8272 6.00215C12.8356 6.07404 12.8356 6.14666 12.8272 6.21855C12.7895 6.5406 12.5258 6.80433 11.9984 7.33177C11.4709 7.85922 11.2072 8.12294 10.8852 8.16055C10.8133 8.16895 10.7406 8.16895 10.6688 8.16055C10.3467 8.12294 10.083 7.85922 9.55553 7.33177L8.90693 6.68317L6.68311 8.90699L7.33171 9.55559C7.85915 10.083 8.12288 10.3468 8.16049 10.6688C8.16889 10.7407 8.16889 10.8133 8.16049 10.8852C8.12288 11.2073 7.85916 11.471 7.33171 11.9984C6.80427 12.5259 6.54054 12.7896 6.21849 12.8272C6.1466 12.8356 6.07398 12.8356 6.00209 12.8272C5.68003 12.7896 5.41631 12.5259 4.88887 11.9984Z" />
<path fill-rule="evenodd" clip-rule="evenodd" d="M10.2017 1.14816C10.3726 0.977306 10.6496 0.977306 10.8204 1.14816L12.6311 2.95883C12.802 3.12969 12.802 3.4067 12.6311 3.57755C12.4603 3.74841 12.1833 3.74841 12.0124 3.57755L10.2017 1.76688C10.0309 1.59602 10.0309 1.31901 10.2017 1.14816ZM1.14767 10.2014C1.31853 10.0306 1.59554 10.0306 1.76639 10.2014L3.57706 12.0121C3.74792 12.183 3.74792 12.46 3.57706 12.6308C3.40621 12.8017 3.1292 12.8017 2.95834 12.6308L1.14767 10.8202C0.976818 10.6493 0.976818 10.3723 1.14767 10.2014Z" />
</symbol></defs><use id="icon-arrow-left-usage" xlink:href="#icon-arrow-left" class="sprite-symbol-usage" /><use id="icon-arrow-right-usage" xlink:href="#icon-arrow-right" class="sprite-symbol-usage" /><use id="icon-autumn-usage" xlink:href="#icon-autumn" class="sprite-symbol-usage" /><use id="icon-ball-usage" xlink:href="#icon-ball" class="sprite-symbol-usage" /><use id="icon-call-usage" xlink:href="#icon-call" class="sprite-symbol-usage" /><use id="icon-close-usage" xlink:href="#icon-close" class="sprite-symbol-usage" /><use id="icon-flower-usage" xlink:href="#icon-flower" class="sprite-symbol-usage" /><use id="icon-link-usage" xlink:href="#icon-link" class="sprite-symbol-usage" /><use id="icon-mail-usage" xlink:href="#icon-mail" class="sprite-symbol-usage" /><use id="icon-marker-usage" xlink:href="#icon-marker" class="sprite-symbol-usage" /><use id="icon-marker-2-usage" xlink:href="#icon-marker-2" class="sprite-symbol-usage" /><use id="icon-menu-usage" xlink:href="#icon-menu" class="sprite-symbol-usage" /><use id="icon-profile-usage" xlink:href="#icon-profile" class="sprite-symbol-usage" /><use id="icon-search-usage" xlink:href="#icon-search" class="sprite-symbol-usage" /><use id="icon-snow-usage" xlink:href="#icon-snow" class="sprite-symbol-usage" /><use id="icon-sun-usage" xlink:href="#icon-sun" class="sprite-symbol-usage" /><use id="icon-weight-usage" xlink:href="#icon-weight" class="sprite-symbol-usage" /></svg>